<svg xmlns="http://www.w3.org/2000/svg" xmlns:xlink="http://www.w3.org/1999/xlink" width="500" height="500" fill="none" xmlns:v="https://vecta.io/nano"><style><![CDATA[.B{fill:#407bff}.C{fill:#fff}.D{fill:#000}.E{opacity:.3}.F{fill:#455a64}.G{opacity:.4}.H{opacity:.1}.I{opacity:.7}.J{opacity:.8}.K{opacity:.5}.L{opacity:.2}.M{fill:#263238}.N{fill:#f28f8f}.O{fill:#37474f}.P{fill:#ffa8a7}.Q{fill:#fafafa}]]></style><path d="M251.42 482.6c96.06 0 173.93-40.988 173.93-91.55s-77.87-91.55-173.93-91.55S77.5 340.488 77.5 391.05s77.87 91.55 173.93 91.55z" fill="#f5f5f5"/><path d="M172.9 436.54c34.534 0 62.53-16.163 62.53-36.1s-27.996-36.1-62.53-36.1-62.53 16.163-62.53 36.1 27.996 36.1 62.53 36.1z" fill="#e0e0e0"/><use xlink:href="#B" class="B"/><use xlink:href="#B" opacity=".15" class="D"/><path d="M134.2 380.57h.1a.56.56 0 0 0 .205-.081c.063-.04.116-.093.158-.155s.07-.13.086-.203.015-.148.001-.22C129.12 351 111 336.45 102 332.43a.56.56 0 0 0-.378.038c-.118.057-.212.153-.267.27s-.066.253-.032.38a.56.56 0 0 0 .217.312c8.83 3.94 26.54 18.18 32.08 46.67.022.134.092.256.196.342a.56.56 0 0 0 .374.128h0z" class="C"/><use xlink:href="#C" class="B"/><use xlink:href="#C" class="D E"/><path d="M118.25 372.3c-.044-.054-.098-.098-.16-.13-9.6-8.6-22.06-10.87-26.1-10.85a.41.41 0 0 0-.41.41c-.001.054.008.108.028.16a.4.4 0 0 0 .089.134.42.42 0 0 0 .135.089.41.41 0 0 0 .159.028c3.82 0 15.4 2.07 24.65 9.86-3.116-.312-6.262.022-9.242.982a22.74 22.74 0 0 0-8.078 4.598.43.43 0 0 0 0 .59.44.44 0 0 0 .59 0 21.9 21.9 0 0 1 8.314-4.591c3.074-.903 6.31-1.122 9.476-.64a34.51 34.51 0 0 1 10.78 19.32c.007.05.025.1.05.146a.42.42 0 0 0 .104.114c.042.03.1.053.14.065a.38.38 0 0 0 .154.005h0c.053-.01.104-.032.15-.062a.42.42 0 0 0 .114-.116c.03-.045.05-.097.06-.15a.4.4 0 0 0-.003-.162c-1.398-7.63-5.267-14.587-11-19.8h0z" class="C"/><use xlink:href="#D" class="B"/><use xlink:href="#D" class="C J"/><path d="M231.2 195.6s-4-1.9-12.3 5.8l2.66 1.16c4.1-4.54 7.66-6.72 9.63-6.95z" class="D H"/><use xlink:href="#E" class="B"/><use xlink:href="#E" opacity=".6" class="C"/><use xlink:href="#E" class="D H"/><path d="M220.52 392.83c.24 0 .45 3-.9 4.1-1.56 1.3-6.06 3.32-11.8 2.05s-8.8-3.5-11-5.83-5.3-5.6-7.9-6.45c-2.4-.78-5-2.2-5.72-3.1s-.44-4.6-.44-4.6l37.77 13.82z" class="F"/><use xlink:href="#F" class="B"/><use xlink:href="#F" opacity=".9" class="C"/><use xlink:href="#G" class="B"/><use xlink:href="#G" class="C I"/><path d="M205.4 386.22c4 2.14 2.23 2.86 1.07 2.95s-7.87-4.92-11.9-8.95c-4.2-4.2-6.78-8.65-8.34-10.2-.6-.58-1.2-1.28-1.77-1.93.16-1 .3-1.9.4-2.38a.92.92 0 0 1 .92-.8c0 .6-.14 1.14.24 1.6.342.324.707.625 1.1.9a6.89 6.89 0 0 1 1 1.27c.49.88 1.047 1.72 1.67 2.5 3.33 5.33 11.6 12.87 15.62 15z" class="B"/><path d="M206.22 388.48c-.097-.013-.188-.054-.26-.12a.5.5 0 0 1 0-.64c.984-1.023 2.194-1.803 3.532-2.277s2.77-.63 4.178-.453a.46.46 0 0 1 .33.53.38.38 0 0 1-.044.158c-.026.05-.06.092-.105.126s-.094.058-.147.07-.1.015-.164.005c-1.277-.15-2.57-.005-3.784.422a8.46 8.46 0 0 0-3.216 2.038c-.04.047-.088.084-.143.108s-.116.035-.177.032h0zm-3.47-2.73c-.048-.001-.095-.012-.138-.032a.31.31 0 0 1-.112-.088.49.49 0 0 1 0-.64 9.12 9.12 0 0 1 3.533-2.272 9.11 9.11 0 0 1 4.177-.448.46.46 0 0 1 .271.194c.063.096.088.213.07.326a.45.45 0 0 1-.048.16.4.4 0 0 1-.107.128c-.044.034-.095.06-.15.074s-.1.017-.166.01a8.48 8.48 0 0 0-3.782.419c-1.213.425-2.313 1.12-3.218 2.03a.38.38 0 0 1-.147.113.37.37 0 0 1-.183.027h0zm-3.48-2.6a.42.42 0 0 1-.27-.16.48.48 0 0 1 0-.64c.984-1.023 2.194-1.803 3.532-2.277s2.77-.63 4.178-.453c.112.03.207.102.27.2s.083.216.06.33a.45.45 0 0 1-.048.16.4.4 0 0 1-.107.128c-.044.034-.095.06-.15.074s-.1.017-.166.01a8.41 8.41 0 0 0-3.785.412c-1.215.425-2.313 1.122-3.215 2.038a.41.41 0 0 1-.13.125.4.4 0 0 1-.171.055h0zm-3.17-3.06a.46.46 0 0 1-.27-.13.54.54 0 0 1 0-.7c1.35-1.6 5.1-3.6 8.37-2.95a.49.49 0 0 1 .36.57c-.005.06-.022.12-.05.174s-.068.1-.116.138a.43.43 0 0 1-.162.08.44.44 0 0 1-.181.008c-3-.6-6.5 1.38-7.56 2.66-.048.055-.108.098-.176.124s-.142.035-.214.026h0zm-2.18-2.9a.46.46 0 0 1-.27-.13.53.53 0 0 1 0-.69c1.84-2.28 5.82-3.57 9.07-2.93a.49.49 0 0 1 .36.57.43.43 0 0 1-.167.301c-.047.036-.1.063-.157.08s-.117.018-.176.01c-2.93-.58-6.64.6-8.28 2.63-.044.057-.102.102-.17.13s-.14.038-.2.03h0zm-49.38 32.08c-.57 4.27-1.5 7.06-3.34 9.43s-5.06 2.9-8.2 1.87-7.1-3.35-7.77-7.14-.3-6.3.7-10.23l18.62 6.07z" class="F"/><use xlink:href="#H" class="B"/><use xlink:href="#H" opacity=".9" class="C"/><use xlink:href="#I" class="B"/><use xlink:href="#I" class="C I"/><path d="M130.28 405.2c-.17 2.1-2.4 1.2-2.3-1.78s2.36-9.84 2.7-14.94c1.15-5.7 1.93-11.45 3.26-11.42v.2l-.38 2.92c-.06.42-.13.8-.16 1.25-.32 4.27-1.55 12.48-2.22 16.36-.447 2.446-.748 4.918-.9 7.4h0zm9.07 1.63a60.77 60.77 0 0 0 1.76-7.25c.72-3.84 2.42-11.86 3.6-16a9.59 9.59 0 0 0 .63-2.34l.38-1.92v-.13c.8.43.7 2.76.37 5.65-.28 1.67-.72 3.72-1.3 6.2-1.47 4.9-1.75 12.16-2.7 15s-3.32 2.82-2.75.8z" class="B"/><path d="M140.18 407.13c-.063-.014-.124-.038-.18-.07a17.14 17.14 0 0 0-10.08-1.84.52.52 0 0 1-.58-.37.44.44 0 0 1 .004-.181c.013-.06.04-.116.076-.165a.44.44 0 0 1 .137-.12c.053-.03.112-.048.173-.054a18 18 0 0 1 10.78 2c.054.028.1.067.138.114s.065.102.08.16.018.12.008.18-.033.117-.066.167c-.056.074-.13.13-.218.162s-.182.038-.272.018h0zm1.42-4.46l-.16-.05a21.16 21.16 0 0 0-11.3-2.07.52.52 0 0 1-.57-.38c-.008-.06-.004-.12.012-.18s.045-.113.084-.16a.44.44 0 0 1 .14-.113c.054-.027.113-.043.174-.047a21.93 21.93 0 0 1 11.92 2.18c.056.024.106.06.146.105a.67.67 0 0 1 .1.156.42.42 0 0 1 .015.18c-.008.06-.03.118-.06.17a.46.46 0 0 1-.217.184c-.1.037-.188.047-.283.026h0zm-10.85-6.4a.46.46 0 0 1-.244-.114.5.5 0 0 1-.146-.226c-.016-.058-.02-.12-.012-.178s.03-.117.062-.168a.43.43 0 0 1 .124-.127.42.42 0 0 1 .166-.067c6-1.3 11.68 1.94 11.92 2.08.053.028.1.067.138.114a.44.44 0 0 1 .082.159.47.47 0 0 1 .011.179.44.44 0 0 1-.061.168c-.078.1-.2.17-.315.195a.52.52 0 0 1-.365-.065c-.05 0-5.54-3.18-11.15-1.95h-.2zm.62-4.06a.49.49 0 0 1-.241-.11c-.07-.058-.12-.134-.15-.22a.41.41 0 0 1-.016-.177c.007-.06.027-.117.058-.168s.073-.095.123-.13a.43.43 0 0 1 .165-.066 16.6 16.6 0 0 1 12.16 2.07c.052.03.096.07.13.12a.42.42 0 0 1 .069.163c.012.058.01.12-.003.177a.41.41 0 0 1-.077.16c-.082.097-.197.16-.323.176a.51.51 0 0 1-.357-.086 15.81 15.81 0 0 0-11.33-1.91.74.74 0 0 1-.21 0zm.7-4.53a.52.52 0 0 1-.237-.115.53.53 0 0 1-.153-.215.41.41 0 0 1-.016-.177c.007-.06.027-.117.058-.168s.073-.095.123-.13a.43.43 0 0 1 .165-.066c6.23-1.55 12 2 12.24 2.2a.45.45 0 0 1 .13.119.42.42 0 0 1 .072.16c.012.057.015.118.004.176a.45.45 0 0 1-.066.164c-.08.098-.195.163-.32.182s-.254-.01-.36-.082c-.06 0-5.63-3.5-11.42-2.06-.072.018-.147.022-.22.01zm66.05-153s-12-.25-31.64-.13l-.72-2.67c-5.7.34-15.8-2.78-15.8-2.78-2.37 6.7-3.94 12.27-4.5 28.25l-2 52.6s-4.93 8.8-6.2 14.47c-1.6 7.1-4.72 33.06-7.08 59 4.5 2.93 11.67 4.65 17.64 1.8l19.5-68.82c1.85-6.1 8.7-41.26 9.3-44.32l.06.1 10.5 33.44a75.75 75.75 0 0 0-3.93 22.15c-.18 6.87.4 39.38.4 39.38 3.82 5.5 15.44 5.9 18.3 4l11.12-71.88c.65-9.43-14.97-64.6-14.97-64.6z" class="F"/><path d="M176.7 272.2l.74-15.56s8.57-1.88 13.57-8.84a14.62 14.62 0 0 1-3.254 6.846c-1.668 1.956-3.823 3.437-6.246 4.294l-1.83 12.64 7.55 34.06-10.53-33.44z" class="O"/><use xlink:href="#J" class="B"/><use xlink:href="#J" opacity=".6" class="C"/><use xlink:href="#K" class="B"/><use xlink:href="#K" opacity=".9" class="C"/><g class="F"><path d="M153.85 126.38l5 4.12c.274-.312.482-.678.6-1.073a3.04 3.04 0 0 0 .134-1.228 3.05 3.05 0 0 0-1.164-2.119c-.66-.538-1.5-.806-2.35-.75s-1.647.43-2.23 1.05h0z"/><path d="M167 163.24c0-3.15-7.35-7.88-11.15-14.52s-1.9-17.54 3.3-19.22c0 0 .1-9.92 13.48-12.56s17.6-5.6 20-6 2.85 8-.3 10.22c2.233-.883 4.27-2.194 6-3.86 1.95-1.88 2.72 7.93-1.48 11.37 0 0 3.48 2 3.05 7.2a8.59 8.59 0 0 1-6.65 8L167 163.24z"/></g><path d="M189.83 126c3.23 1.4 6.3 6.33 6.25 20.14 0 11.7-3.63 14.67-5.44 15.54s-5.35.43-8.8-.1v6.73c2.624 3.75 4.113 8.176 4.3 12.75a39.12 39.12 0 0 1-12.68-6c-4.94-3.7-6.6-7-6.6-7l-.12-14.73s-2 2.08-5.46-1c-2.87-2.5-3.9-6.83-1.75-9.2s4.93-2.56 7.43.1l1.8-1c3.2-.38 7.94-.9 11.36-2.66 8.88-4.47 9.78-9.38 9.7-13.56z" class="P"/><path d="M165.92 139.9l1.94 6.2a3.01 3.01 0 0 0 1.109-.551c.327-.26.596-.583.79-.952s.31-.775.34-1.19a3.01 3.01 0 0 0-.17-1.226 3.35 3.35 0 0 0-4.01-2.28z" class="F"/><path d="M190.14 142.2a1.55 1.55 0 0 0 .957 1.411c.28.116.588.147.886.1a1.55 1.55 0 0 0 .789-.412c.217-.212.367-.483.432-.78a1.56 1.56 0 0 0-.067-.887c-.107-.283-.298-.528-.545-.704a1.57 1.57 0 0 0-.842-.29 1.6 1.6 0 0 0-1.61 1.57h0zm-12.4.7a1.67 1.67 0 0 0 .091.657c.073.2.187.405.336.572a1.71 1.71 0 0 0 .53.398 1.69 1.69 0 0 0 .643.163 1.74 1.74 0 0 0 1.698-.96 1.74 1.74 0 0 0 .165-1.006c-.046-.345-.195-.668-.427-.927a1.74 1.74 0 0 0-2.706.139c-.204.28-.32.617-.33.965h0z" class="M"/><path d="M180.28 152.48l5 1.56c-.074.343-.218.667-.422.953a2.57 2.57 0 0 1-1.749 1.051c-.348.046-.7.02-1.04-.074-.68-.252-1.243-.75-1.575-1.396s-.408-1.394-.215-2.094h0z" class="N"/><path d="M194.25 139.32l-4-1.6c.092-.267.237-.513.428-.72a2.06 2.06 0 0 1 .68-.492c.258-.115.536-.176.82-.18s.563.052.823.162a2.22 2.22 0 0 1 1.25 2.82h0z" class="M"/><path d="M186.35 140.94l-.2 9.6 5.15-1.15-4.95-8.44zm-4.5 20.68c-3.63-.43-10.25-3.08-12.6-6.1a7.9 7.9 0 0 0 2.57 4.5c3 2.6 10 4.05 10 4.05l.03-2.46z" class="N"/><use xlink:href="#L" class="B"/><use xlink:href="#L" class="C K"/><path d="M165.6 142.06c1.4 1.2 1.62 3.15 1.92 4.1.29 1.3.505 2.615.64 3.94l.13 2a9.66 9.66 0 0 0 1.527 4.16c.824 1.25 1.927 2.3 3.223 3.04 3.62 1.92 12.68 4.33 17.6 2.7 4.12-1.36 5.66-8.84 5.32-13.84 0 0-5.53-2-8-1.5s-8.16 3-10.47 3.08c-3.07.08-5.13-1.37-8.43-4.54-2.53-2.4-3.46-3.15-3.46-3.15z" class="D H"/><path d="M196 149.34l-.05-1.16s-5.53-2-8-1.5-5.72 1.8-8.6 2.36c-4.93.94-7.26-.9-10.38-4.26-2.33-2.5-3.72-3-3.72-3 1.17.94 1.65 2.76 2 3.72a31.89 31.89 0 0 1 .69 3.35c.14 1-.12 5.53 2.58 8.34a14.01 14.01 0 0 1-1.57-6.07c-.2-4-.76-5.9-1.2-6.7.53.74 3.2 4.25 6.47 5.5 3.54 1.35 7.8-.37 11.14-1.33 4.55-1.3 5.53-.84 10.65.74z" class="C"/><use xlink:href="#M" class="B"/><use xlink:href="#M" class="D E"/><path d="M198.24 142.77a3.88 3.88 0 0 1-.114 1.593 3.89 3.89 0 0 1-.744 1.413c-.343.414-.768.753-1.25.995s-1.006.38-1.543.41h-.57c-1.8.1-2.43-1-3.23-2.62-.67-1.36-1.72-2.7-3.28-2.62s-2.5 1.52-3 2.93c-.296.84-.834 1.57-1.546 2.105s-1.566.845-2.454.895l-3.26.16c-.526.033-1.053-.046-1.547-.23a3.77 3.77 0 0 1-2.189-2.139 3.78 3.78 0 0 1-.264-1.542l.3-4.9c.4-2.73 3.56-4 13.56-4.52s9.67.67 10.32 3.35c.3 1.1.57 3.16.8 4.7z" class="K O"/><use xlink:href="#N" class="B"/><use xlink:href="#N" class="C I"/><use xlink:href="#O" class="B"/><use xlink:href="#O" class="C J"/><use xlink:href="#P" class="B"/><use xlink:href="#P" class="C I"/><use xlink:href="#Q" class="B"/><use xlink:href="#Q" opacity=".6" class="C"/><use xlink:href="#R" class="B"/><use xlink:href="#R" class="C J"/><use xlink:href="#S" class="B"/><use xlink:href="#S" class="C I"/><path d="M80.9 161.13c-.043-.2-.103-.42-.18-.62s-.2-.42-.3-.63L31.18 219.4l.67.17c.2.038.425.06.64.06l48.4-58.5zm-1.07-2.23a8.85 8.85 0 0 0-1.19-1.35l-50.1 60.55c.23.17.47.32.72.47l.1.05.74.4 49.73-60.1z" class="E C"/><use xlink:href="#T" class="B"/><use xlink:href="#T" opacity=".6" class="Q"/><use xlink:href="#U" class="B"/><use xlink:href="#U" opacity=".65" class="Q"/><path d="M80.9 161.13c-.043-.2-.103-.42-.18-.62s-.2-.42-.3-.63l-7.77 9.4 1 .62 7.24-8.76zm-10.58 6.47l1.43 1.06 8.08-9.77c-.35-.5-.748-.942-1.2-1.35L70.3 167.6z" class="E C"/><path opacity=".05" d="M75.24 155.4a5.94 5.94 0 0 0-1-.25 2.92 2.92 0 0 0-1.544-.015c-.507.134-.968.402-1.336.775h0l-5.8 7c.562.697 1.16 1.365 1.8 2l7.9-9.5z" class="D"/><use xlink:href="#V" class="B"/><use xlink:href="#V" class="C K"/><use xlink:href="#V" opacity=".05" class="D"/><path d="M77 164.07c.218.075.442.132.67.17a5.09 5.09 0 0 0 .64.07l8.8-10.64-.9-.74-9.2 11.14zm-1.13-.4l9-10.86-1.37-1.13-9.17 11.08c.482.353.998.658 1.54.9h0z" class="E C"/><path d="M71.16 158.9c.12.317.265.624.43.92l10.84-13.1c-.326-.11-.66-.195-1-.25a2.99 2.99 0 0 0-1.546-.005 3 3 0 0 0-1.344.765l-7.2 8.7a2.93 2.93 0 0 0-.19 2.97h0z" class="D H"/><use xlink:href="#W" class="B"/><use xlink:href="#W" class="C G"/><path d="M81 137.14c-6.6-1.12-10.06 3.06-7.73 9.33s9.57 12.26 16.17 13.38 10.06-3.06 7.73-9.33S87.6 138.25 81 137.14z" class="M"/><path d="M81.82 136.14c-6.6-1.12-10.06 3.06-7.73 9.33s9.57 12.26 16.17 13.38 10.06-3.06 7.73-9.33-9.57-12.27-16.17-13.38z" class="O"/><g class="B"><path d="M156.35 85.8c1.28-1.55 1.45-4 .2-7.06-2.5-6.06-9.75-12-16.18-13.38-3.2-.66-5.6 0-6.9 1.52l-58.15 70.3c-1.4 1.68-1.68 4.3-.52 7.43 2.33 6.27 9.57 12.27 16.2 13.4 3.3.56 5.8-.2 7.2-1.9l58.14-70.3z"/><use xlink:href="#X"/></g><use xlink:href="#X" class="C L"/><use xlink:href="#Y" class="F"/><path d="M77.78 140.77c2.28-1.93 6.1-.7 10.2-2.22s6.06-1.3 7.5 0c-.3-.44-.656-.835-1.06-1.18-2.93-2.43-8.65-1.47-12-2s-5.82.2-7.2 1.9-1.7 4.3-.52 7.44c2.38 6.23 9.58 12.3 16.3 13.35-14.3-5.48-15.6-15.25-13.22-17.3z" class="D L"/><use xlink:href="#Y" class="B"/><use xlink:href="#Y" class="D G"/><path d="M88.73 157.42A15.31 15.31 0 0 0 91 158c.858.15 1.73.203 2.6.16L154.9 84l-3.23-2.67-62.95 76.1zm-3.96-1.77a19.62 19.62 0 0 0 2 1l62.3-75.28L147.4 80l-62.62 75.65z" class="E C"/><path d="M88.6 157.38c-9.6-4.76-10.16-14-7.14-17.7l55.05-66.53.26-8a5.13 5.13 0 0 0-3.29 1.68l-58.15 70.33c-1.4 1.68-1.68 4.3-.52 7.43 2.05 5.52 7.88 10.86 13.8 12.78z" class="D H"/><use xlink:href="#Z" class="B"/><use xlink:href="#Z" class="C E"/><use xlink:href="#a" class="B"/><g class="C"><use xlink:href="#a" class="I"/><path d="M146.9 83c.18 0 .36.1.54.14.505.088 1.018.118 1.53.1l8.84-10.68-1.34-1.1L146.9 83zm-2.3-.8c.395.197.802.368 1.22.5l9.32-11.26-1-.8-9.54 11.56z" class="G"/></g><use xlink:href="#b" class="B"/><use xlink:href="#b" class="C K"/><use xlink:href="#c" class="B"/><use xlink:href="#c" class="C J"/><use xlink:href="#d" class="B"/><g class="C"><use xlink:href="#d" class="I"/><path d="M151.1 71.7a5.29 5.29 0 0 0 1.2.4h.24l6.8-8.2-1.05-.88-7.18 8.7zm-1.55-.96a6.53 6.53 0 0 0 .81.57l6.86-8.3-.76-.63-6.9 8.37z" class="G"/></g><use xlink:href="#e" class="B"/><use xlink:href="#e" class="C K"/><use xlink:href="#f" class="B"/><use xlink:href="#f" class="C J"/><path d="M157.16 60.67a7.32 7.32 0 0 1 .85-1.09l3.16-3.8 4.48-5.36 5.18-6.1 9.75-11.4 3.2-3.75.9-1.06c.2-.25.35-.34.4-.3 0 0 0 .2-.23.45l-.86 1.08-17.48 21.8-7.57 9.22a7.6 7.6 0 0 1-.92 1 .77.77 0 0 1-.303-.019c-.1-.026-.19-.072-.272-.134s-.15-.14-.2-.23-.083-.187-.095-.288h0z" class="F"/><g class="C"><path d="M156.77 79.36c1.52 5.73-2.42 7.87-8 6.87s-12.3-6.8-14-9.5c3.25 5 9.24 9.46 14.67 10.58 6.2 1.28 9.37-2.26 7.33-7.96z" class="K"/><path d="M134.83 80.83c4 4.6 9.75 8.23 15.15 9.15 7.92 1.34 12.07-3.68 9.27-11.2a16.95 16.95 0 0 0-.88-2c1.7 3.76 2 9.22-2.32 11.54s-13.26.45-21.22-7.48z" class="E"/><path d="M158.64 87.7l-69 83.37c-1.73 1.72-4.57 2.48-8.24 1.86l-.5-.1c6.36.52 8.16-3 11.9-7.52l62.4-75.42a6.65 6.65 0 0 0 3.43-2.18h0z" class="G"/><path d="M158.26 70.1c0-.1-.1-.22-.15-.34.6 2 .3 4.68-2.54 5.2s-9.58-2.12-12.07-9.2a6.66 6.66 0 0 0 .42 1.92c.878 2 2.214 3.768 3.9 5.158a13.93 13.93 0 0 0 5.81 2.842c3.96.7 6.03-1.8 4.63-5.57zm2.4-8.1a4.66 4.66 0 0 0-.58-1.07c.53 1.1.64 2.7-.5 3.2-1 .42-4 0-5.77-3.6.017.1.044.216.08.32a6.57 6.57 0 0 0 1.837 2.443c.796.66 1.735 1.12 2.743 1.347 1.86.3 2.84-.9 2.18-2.64z" class="E"/><path d="M44.5 217.45a16.02 16.02 0 0 0-.72-1.66c5 10.63-5 14.52-14.1 10-9.33-4.64-14.2-13.74-14.7-17 .088 1.308.37 2.596.84 3.82 2.8 7.53 11.5 14.72 19.4 16.06S47.3 225 44.5 217.45z" class="G"/></g><path d="M152.54 225.38h-.1l.38-.87a6.01 6.01 0 0 0 3.3 0 11.62 11.62 0 0 1-1.57-3.1c-.7-2.38 1.23-16.67 3.36-19.35 1.8-2.25 6.47-6.92 8.75-6.15 2.24.86 3.12 7.32 3.18 10.17.08 3.43-7 16-9 17.43a11.36 11.36 0 0 1-3.12 1.53 6 6 0 0 0 2.65 2l-.23.92a7.38 7.38 0 0 1-3.41-2.6c-1.363.405-2.813.412-4.18.02h0zm13.83-28.57c-1.33-.45-5.3 2.83-7.7 5.85-2 2.46-3.85 16.28-3.2 18.5a11.08 11.08 0 0 0 1.64 3.12 10.93 10.93 0 0 0 3.2-1.49c1.86-1.35 8.72-13.5 8.65-16.65-.1-3.84-1.27-8.8-2.6-9.32z" class="F"/><path d="M161.57 227.92a1.39 1.39 0 0 1-1.214.936 1.38 1.38 0 0 1-1.329-.763 1.37 1.37 0 0 1 .194-1.519 1.38 1.38 0 0 1 .679-.426 1.39 1.39 0 0 1 .8.023c.173.056.333.147.47.266a1.38 1.38 0 0 1 .331.427 1.35 1.35 0 0 1 .14.521c.012.182-.013.364-.072.536zm-7.64-2.57c-.1.257-.252.483-.468.648a1.38 1.38 0 0 1-.749.279c-.272.017-.542-.046-.778-.182a1.39 1.39 0 0 1-.547-.584c-.12-.244-.166-.518-.13-.788s.15-.524.327-.73.414-.353.677-.425a1.39 1.39 0 0 1 1.67 1.78z" class="M"/><use xlink:href="#g" class="B"/><use xlink:href="#g" class="D L"/><use xlink:href="#h" class="B"/><use xlink:href="#h" class="D L"/><path d="M181.86 166.38c5.48.55 10.78 1.88 14.5 8.77 0 0-4.3-4.88-14.5-6.8v-1.97z" class="B"/><path d="M181.86 166.38c5.48.55 10.78 1.88 14.5 8.77 0 0-4.3-4.88-14.5-6.8v-1.97z" class="D L"/><use xlink:href="#i" class="B"/><use xlink:href="#i" opacity=".9" class="C"/><g class="P"><path d="M211.3 234.2l-.75 3.58s.7 0 1.57-2.6a11.83 11.83 0 0 1 2.31-3.15 3 3 0 0 1 .05 2.14c-.58 1.8-1.84 4.87-3.38 6s-3.3.82-3.9-.13c-.058-2.028.202-4.052.77-6 .27-.7-.63-.13-.82.3-.404 1.902-.575 3.846-.5 5.8-.598.068-1.203-.06-1.723-.36a2.8 2.8 0 0 1-1.167-1.319c.136-2.05.454-4.085.95-6.08.24-.64-.18-.88-.67-.4s-.8 4.47-.73 6.57c-.5.087-1.015.053-1.5-.1-1.42-.52-1.45-1.55-1.45-1.63a34.04 34.04 0 0 1 .69-5.35c.26-1.05.35-1.57-.34-1s-.82 4.58-.8 6.33c-.9-.28-2.4-1.63-2.24-3 .2-1.7 1.16-7.5 2.3-8.86s6-5.5 9-8a11.15 11.15 0 0 1 9.56 6.83 10.71 10.71 0 0 0-2.87 5.28 6.43 6.43 0 0 1-1.49 2.55l-2.85 2.6z"/><path d="M201 231.43a34.04 34.04 0 0 0-.69 5.35c-.15.054-.31.054-.46 0 0-1.75.18-5.8.8-6.33s.63-.07.34.98z"/><use xlink:href="#j"/><use xlink:href="#k"/><path d="M214.4 232a11.83 11.83 0 0 0-2.31 3.15c-.86 2.6-1.57 2.6-1.57 2.6l.75-3.58 2.84-2.67a2.16 2.16 0 0 1 .19.29 1.01 1.01 0 0 1 .1.21z"/></g><g class="N"><path d="M201 231.43a34.04 34.04 0 0 0-.69 5.35.62.62 0 0 1-.46 0c0-1.75.18-5.8.8-6.33s.63-.07.34.98z"/><use xlink:href="#j"/><use xlink:href="#k"/><path d="M214.42 232a11.83 11.83 0 0 0-2.31 3.15c-.86 2.6-1.57 2.6-1.57 2.6l.75-3.58 2.84-2.67a2.07 2.07 0 0 1 .19.29 1 1 0 0 1 .09.21h.01z"/></g><path d="M275.9 172.06c0-.87-.17-1.4-.56-1.62h-.05c-.42-.2-3.15-1.82-3.54-2-.42-.2-1 0-1.76.55-7.3 5.58-17.33 6.94-25 3.58a17.86 17.86 0 0 1-2.89-2.68l-.13-.15c-.212-.242-.462-.448-.74-.6l-3.6-2.13-.13-.07c-.82-.38-1.56 0-2.06 1.23-6.92 17.2-21.68 34.64-31.52 39-.744.337-1.406.83-1.94 1.45a4.09 4.09 0 0 0-1.09 2.82c0 22.12 12.12 57.48 35.08 69.3a40.03 40.03 0 0 0 4.21 2.4c31.6-32.63 35.7-84.84 35.7-111.06z" class="B"/><path d="M275.3 170.4c-.42-.18-1 0-1.76.55-8.5 6.5-20.7 7.28-28.53 1.53 7.64 3.35 17.67 2 25-3.6.74-.56 1.34-.74 1.76-.55.38.25 3.1 1.88 3.53 2.06z" class="C G"/><path d="M241.1 169c-.82-.4-1.57 0-2.06 1.22-6.93 17.22-21.68 34.64-31.52 39-.747.327-1.41.82-1.94 1.44-.29.336-.536.7-.73 1.1l-3.56-2.06c.18-.403.42-.777.7-1.1.534-.62 1.196-1.113 1.94-1.45 9.84-4.36 24.6-21.8 31.52-39 .5-1.22 1.25-1.6 2.06-1.23l.13.07 1.58.9 1.87 1.1z" class="B"/><path d="M236 280.64c-22.94-11.82-35-47.16-35-69.26a3.75 3.75 0 0 1 .38-1.71l3.56 2.06a3.87 3.87 0 0 0-.37 1.71c-.1 20.94 10.75 53.73 31.43 67.2z" class="D E"/><path d="M275.9 172.06c0 26.22-4.1 78.43-35.7 111-23.38-11.48-35.7-47.3-35.7-69.63a4.06 4.06 0 0 1 1.09-2.81c.534-.62 1.196-1.113 1.94-1.45 9.84-4.36 24.6-21.8 31.52-39 .5-1.2 1.24-1.6 2.06-1.22l.13.07c.278.162.528.368.74.6l.13.15c7.35 8.55 21.8 8.54 31.44 1.16.73-.55 1.34-.73 1.76-.54h.05c.4.25.65.8.56 1.66z" class="B"/><path d="M241.1 169c-.82-.4-1.57 0-2.06 1.22-6.92 17.2-21.68 34.65-31.52 39-.744.337-1.406.83-1.94 1.45a4.06 4.06 0 0 0-1.09 2.81c0 22.33 12.33 58.15 35.7 69.63 15.7-60.78.9-114.1.9-114.1z" class="D H"/><path d="M230 244.52c.2-4.438.18-8.885-.1-13.32L242 224c.097-4.58-.1-9.163-.56-13.72l11.26-6.42c.63 4.4 1.02 8.83 1.17 13.27h0l11-6.16a101.15 101.15 0 0 1-1.42 14l-10 5.5c-.6 5.32-1.13 8.6-2 13.6-4.3 2.44-6.38 3.67-10.65 6.3.813-4.41 1.347-8.864 1.6-13.34l-12.4 7.48z" class="Q"/><path d="M242 224l-12.07 7.22c.27 4.435.3 8.882.1 13.32l12.4-7.47c-.253 4.476-.787 8.93-1.6 13.34l5.64-3.42c1.2-13.25 1.333-26.576.43-39.85l-5.45 3.14c.47 4.557.657 9.14.56 13.72h0z" fill="#ebebeb"/><path d="M253 180.75c7.88 2 14.87-1.45 18.87-3.5 0 0 .92 46.28-15 76.2 6.3-23.37 5.63-28.16 6.08-45.5.46-17.02-3.95-22.95-9.95-27.2z" class="C G"/><path d="M100.73 165.28a14.99 14.99 0 0 0-1.39-5.92l-3.08 3.73 4.47 2.2z" class="N"/><path d="M157.22 169.13c-8.7-.4-11.7 2.62-19.18 7.66l-21.77 14.73-14-21.46c-1.2-1.8-1.06-4.16-2.08-6.05s-4.24-2.12-6.27-2.33a23.48 23.48 0 0 1-7.75-2c-2.1-1-4-2.52-6.2-3.26a19.69 19.69 0 0 0-6.81-.59c-.348-.036-.7.002-1.032.1a2.51 2.51 0 0 0-.898.52c-.76.93-.07 2.27.45 3.13a20.95 20.95 0 0 0 2 3.09 34.36 34.36 0 0 0 6.33 5.68 26.42 26.42 0 0 0 3.41 1.8c1.35.68 2.73 1.3 4.14 1.84a10.69 10.69 0 0 1 4.94 3.38 13.19 13.19 0 0 1 1 1.64c2.73 6.5 7.57 17.66 10.68 23.06 5 8.7 7.08 9.36 15 6.1 10.9-4.12 33.7-14.67 33.7-14.67s7.58-8 4.36-22.38z" class="P"/><use xlink:href="#l" class="B"/><use xlink:href="#l" class="C J"/><path d="M119.64 202.33c.76-4.4.148-8.947-1.75-13l-2.1 1.43c3.38 4.96 3.84 11.57 3.84 11.57z" class="D H"/><defs ><path id="B" d="M137.32 383.9s.77-16.57-5.3-30.5-15.9-23.6-26.15-26.1-20.16 5.7-10.1 14 28.7 18.2 33.82 44.2l7.73-1.6z"/><path id="C" d="M86.34 365c.6 1.74 2.34 2.77 4 3.6s3.4 1.73 4.18 3.4c1.56 3.35-1.86 7.57-.16 10.85.408.662.947 1.233 1.583 1.68s1.356.76 2.117.92c1.24.35 2.52.46 3.8.7.613.035 1.227.035 1.84 0a8.31 8.31 0 0 1 5.22 1c2.4 1.65 2.9 4.92 4.22 7.52.848 1.486 1.983 2.79 3.34 3.83a12.87 12.87 0 0 0 4.562 2.24 12.88 12.88 0 0 0 5.074.298c1.695-.24 3.324-.813 4.794-1.69 1.667-1.09 3.077-2.532 4.13-4.223a13.71 13.71 0 0 0 1.975-5.567 13.72 13.72 0 0 0-.547-5.882 13.75 13.75 0 0 0-2.969-5.108c-1.75-1.9-4-3.32-5.62-5.36-2.63-3.37-3.1-8-6-11.16-2.78-3-6.16-5-10.42-4.67-2.7.2-5.46 1.48-8.2 1.1s-5.22-1.3-8-1.36c-1.45-.1-2.9.152-4.244.706A9.56 9.56 0 0 0 87.5 360.3c-.568.626-.972 1.383-1.174 2.203A5.09 5.09 0 0 0 86.34 365h0z"/><path id="D" d="M243.6 199.05c0 2.7-2.44 6.35-7.47 10.62-6.22 5.33-17.5 14.33-17.5 14.33s-.08-.2-.13-.3a11.15 11.15 0 0 0-9.56-6.83 1.13 1.13 0 0 0-.26 0l12.9-14.32-28.18-12.3-5.16-20.8c4.72-1.34 4.85-1.4 12.52 2.42s30.83 16.8 35.34 19.07c3 1.48 7.5 4.54 7.5 8.12z"/><path id="E" d="M65.07 290.48s8.12-15.13 25.5-18.48c14.8-2.84 17.43 7.82 34.55 4.7 13.45-2.44 16.77-19.07 31.5-18.9 10.82.13 14.17 12.3 14.17 12.3s31.74-20.28 32.2-58.3-21.15-43.5-21.15-43.5l-15-.33s6.56 25.76-20.53 44.32S62.16 244 65.07 290.48z"/><path id="F" d="M185.8 364.92a.92.92 0 0 0-.92.8l-1.05 5.6a33.49 33.49 0 0 0-1 9c.22 1.92 4.12 3.54 6.6 4.8a32.84 32.84 0 0 1 7.92 6.38c2.6 2.7 8.2 5.72 12 6 4.47.3 9.57-.9 10.84-3.12 1.57-2.73.54-4.46-5.9-8.37-1.22-.74-5.48-4-6.92-5.13-3.92-3.14-5.3-7.5-6.9-12.67-.2-.6-2.83-1.15-3.32-1.48a2 2 0 0 0-1.28-.23c-1.118.093-2.213.37-3.24.82-.92.4-2.2.85-2.25 2.12a4.81 4.81 0 0 0 .19 1.3c.06.26.1.6-.1.75s-.45-.06-.6-.24c-.623-.79-1.18-1.63-1.67-2.5a6.86 6.86 0 0 0-1-1.27 10.54 10.54 0 0 1-1.09-.9c-.42-.53-.3-1.08-.28-1.67z"/><path id="G" d="M197.32 391.5a46.07 46.07 0 0 0-3.46-3.27h0s7.52 5.85 10.8 3.7c2.1-1.37 1.24-3.3 1.22-3.9s5.1-2.77 7.1-2.88l1.26.85c6.45 3.9 7.48 5.64 5.9 8.37-1.27 2.2-5 3.72-10.77 3.28-3.77-.3-9.44-3.45-12.04-6.14z"/><path id="H" d="M133.94 377.05c-1.33 0-2.1 5.7-3.26 11.42-1.24 6.12-3.44 8.5-4.52 13.52-1.22 5.73-1.06 8.35.93 12.05s9.65 7.84 13.9 3.15c3.45-3.8 3.9-8.34 4-14.16-.032-4.933.208-9.864.72-14.77.55-4.32 1.17-8.5.05-9.08l-.4 2.05c-.1.47-.4 2.8-1.14 2.77-.022-.55.012-1.098.1-1.64a1.81 1.81 0 0 0 .016-.744c-.047-.246-.144-.48-.286-.686-.39-.38-.884-.636-1.42-.73-1.28-.34-2.57-.67-3.88-.9-.65-.1-1.3-.2-2-.25a5.88 5.88 0 0 0-1.68.07c-.157.03-.305.094-.436.185s-.24.21-.324.345a1.59 1.59 0 0 0-.11.65c-.027.403-.11.8-.25 1.18-.06.17-.2.37-.4.3-.067-.033-.122-.087-.156-.154a.35.35 0 0 1-.034-.216c.05-.7.18-1.2.27-2 0-.38.14-.9.18-1.26l.13-1.12z"/><path id="I" d="M126.58 400.37c-.2.82-1.34 6.3.24 7.44s3-3 3-3 4.3-.8 10.24 2.17c-.38.87.37 3.9 2.1 3.44s2.8-6.78 2.8-6.86c-.12 5.58-.63 10-4 13.66-4.24 4.7-11.9.55-13.9-3.15s-2.15-6.32-.93-12.05l.44-1.65z"/><path id="J" d="M167.54 168.16l-13.37 1.26c-5.22 1.28-4.52 2.66-5.06 7.3-.62 4.683-.297 9.443.95 14 1.65 6.52 6.7 19.9 6.7 19.9a72.3 72.3 0 0 0-7 15 168.52 168.52 0 0 0-4.51 16.41 44.77 44.77 0 0 0 5.29 2.46s2.4-8.62 4.85-12.38c.1 6.22 2.54 14.33 2.54 14.33 16.23 2.95 36-1.2 42-7-.65-6.94-4.43-16.43-5-22.62 0 0 .4-9.66 1.16-13.85 5.88-6.4 5.3-13.7 2.65-18.65-4.87-9.13-14.6-16-17-16l-14.2-.15z"/><path id="K" d="M166.87 168c1.32 5.73 4.6 18.65-8.48 36.93s-57.24 43.2-73.94 55-19.38 30.52-19.38 30.52-17.3-21.74-7.34-50.4c0 0 9.64-12.93 35.67-17.66 25.87-4.7 41.3-10.43 47.22-16.53s5.72-15.5 5.72-15.5-1.93-18.2 5.24-21.34h6.5a34.21 34.21 0 0 1 8.79-1.02h0z"/><path id="L" d="M165.6 142.06c1.7.74 1.62 3.15 1.92 4.1.29 1.3.505 2.615.64 3.94l.13 2a9.66 9.66 0 0 0 1.527 4.16c.824 1.25 1.927 2.3 3.223 3.04 3.62 1.92 12.68 4.33 17.6 2.7 4.12-1.36 5.66-8.84 5.32-13.84 0 0-5.53-2-8-1.5s-8.16 3-10.47 3.08c-3.07.08-5.13-1.37-8.43-4.54-2.53-2.4-3.46-3.15-3.46-3.15z"/><path id="M" d="M199.9 142.54v-.1l-.78-4.78c-1.06-4.33-2.7-5.1-12-4.64s-14.5 1.55-15.13 6c-.17 1.23-.25 3.32-.32 5v.06c-.025.753.106 1.504.385 2.204s.7 1.336 1.235 1.866 1.173.95 1.878 1.22a5.37 5.37 0 0 0 2.212.35l3.25-.17c1.203-.062 2.362-.474 3.336-1.184a6.2 6.2 0 0 0 2.144-2.816c.25-.68.78-1.8 1.53-1.85s1.4 1 1.7 1.68c1.1 2.25 2.35 3.67 4.8 3.55h.57a5.56 5.56 0 0 0 2.206-.584c.687-.345 1.295-.83 1.786-1.42s.853-1.28 1.064-2.02.267-1.514.164-2.276l-.04-.1zm-5.3 4.64h-.57c-1.8.1-2.43-1-3.23-2.62-.67-1.36-1.72-2.7-3.28-2.62s-2.5 1.52-3 2.93a4.51 4.51 0 0 1-1.546 2.105c-.712.534-1.566.845-2.454.895l-3.26.16c-.526.033-1.053-.046-1.547-.23a3.77 3.77 0 0 1-2.189-2.139c-.195-.5-.285-1.015-.264-1.542.06-1.6.14-3.73.3-4.9.4-2.73 3.56-4 13.56-4.52s9.67.67 10.32 3.35c.27 1.1.55 3.17.77 4.72a3.91 3.91 0 0 1-.113 1.581 3.89 3.89 0 0 1-1.969 2.399 3.9 3.9 0 0 1-1.528.42h0z"/><path id="N" d="M159.25 78.77c-2.8-7.53-11.5-14.72-19.4-16.06-4-.67-7 .25-8.65 2.28l-69 83.36c-1.36 2-1.57 5-.27 8.44 2.8 7.53 11.48 14.72 19.4 16.06 3.67.62 6.5-.13 8.25-1.86l69-83.36c1.74-1.96 2.08-5.1.68-8.86z"/><path id="O" d="M130.57 73.92c-2.8-7.53 1.35-12.55 9.27-11.2s16.6 8.53 19.4 16.06S157.9 91.32 150 90s-16.63-8.55-19.43-16.08z"/><path id="P" d="M14.48 214.22c-2.8-7.53 1.35-12.54 9.27-11.2s16.6 8.53 19.4 16-1.35 12.55-9.27 11.2-16.6-8.48-19.4-16z"/><path id="Q" d="M35.14 208.54c-3.27-2.776-7.188-4.68-11.4-5.54-7.92-1.34-12.07 3.67-9.27 11.2A25.56 25.56 0 0 0 22 224.37l13.14-15.83z"/><path id="R" d="M15.82 212.6c-2.8-7.53 1.36-12.55 9.28-11.2s16.6 8.53 19.4 16.06-1.35 12.55-9.27 11.2-16.6-8.53-19.4-16.06z"/><path id="S" d="M80.36 163.62a2.81 2.81 0 0 0 .36-3.11 9.25 9.25 0 0 0-2.593-3.451c-1.125-.93-2.453-1.58-3.877-1.9a2.92 2.92 0 0 0-1.544-.015c-.507.134-.968.402-1.336.775L25.6 211.24a3 3 0 0 0-.21 3c.583 1.337 1.473 2.517 2.597 3.447s2.45 1.58 3.873 1.903a2.8 2.8 0 0 0 1.644-.009c.535-.168 1.007-.492 1.356-.93l45.5-55.03z"/><path id="T" d="M27.44 213.87c.24-1.4 3.3-4.7 6.38-8.4l41.42-50.06a5.94 5.94 0 0 0-1-.25 2.92 2.92 0 0 0-1.544-.015c-.507.134-.968.402-1.336.775h0L25.6 211.24a3 3 0 0 0-.21 3c.583 1.337 1.473 2.517 2.597 3.447s2.45 1.58 3.873 1.903h1.48c-2.18-.2-6.23-3.68-5.9-5.72z"/><path id="U" d="M80.72 160.5a9.25 9.25 0 0 0-2.593-3.451c-1.125-.93-2.453-1.58-3.877-1.9a2.92 2.92 0 0 0-1.544-.015c-.507.134-.968.402-1.336.775l-5.8 7c2.5 3.094 5.606 5.663 9.1 7.56l5.68-6.86a2.81 2.81 0 0 0 .36-3.11h0z"/><path id="V" d="M89.63 152.42a2.82 2.82 0 0 0 .37-3.12 9.3 9.3 0 0 0-2.61-3.42 9.29 9.29 0 0 0-3.87-1.88c-.505-.135-1.036-.136-1.54-.003a3.01 3.01 0 0 0-1.339.763l-9.27 11.2a2.93 2.93 0 0 0-.21 3c.582 1.34 1.47 2.522 2.594 3.453a9.29 9.29 0 0 0 3.876 1.907 2.8 2.8 0 0 0 1.646-.014c.535-.17 1.007-.495 1.354-.936l9-10.96z"/><path id="W" d="M79.06 172.3c-7.23-2.2-14.56-8.7-17.1-15.5-1.3-3.48-1.08-6.42.3-8.44l69-83.36c-1.68 2-2 5.17-.62 8.94L67.1 150.63c-3.5 4.23-1.45 13.74 11.96 21.68z"/><path id="X" d="M130.57 73.92c2.8 7.53 11.5 14.72 19.43 16.08a14.79 14.79 0 0 0 2.74.21l3.63-4.4c1.28-1.55 1.45-4 .2-7.06-2.5-6.06-9.75-12-16.18-13.38-3.2-.66-5.6 0-6.9 1.52l-3.62 4.38a14.96 14.96 0 0 0 .7 2.64h0z"/><path id="Y" d="M82.48 135.33c-3.3-.55-5.82.2-7.2 1.9s-1.7 4.3-.52 7.44c2.33 6.27 9.57 12.26 16.17 13.38 3.3.56 5.82-.2 7.22-1.9s1.68-4.3.5-7.43-1.3-8.94-4.22-11.36-8.65-1.47-11.95-2.03z"/><path id="Z" d="M140.37 65.36c-6.42-1.32-9.6 2.52-7.1 8.58S143 86 149.44 87.32s9.6-2.5 7.1-8.58-9.75-12.05-16.18-13.38z"/><path id="a" d="M158 74.55c.84-1 1-2.58.3-4.46a13.89 13.89 0 0 0-3.894-5.16c-1.685-1.4-3.674-2.363-5.806-2.84-2-.34-3.5.12-4.33 1.14l-6.18 7.47c-.84 1-1 2.58-.3 4.46.878 2 2.214 3.768 3.9 5.158s3.677 2.363 5.81 2.842c2 .33 3.48-.12 4.32-1.14l6.18-7.47z"/><path id="b" d="M140.34 72.92l4.8-5.8 2.07-5.1a3.86 3.86 0 0 0-3 1.25l-6.18 7.47c-.84 1-1 2.58-.3 4.46.878 2 2.214 3.768 3.9 5.158s3.677 2.363 5.81 2.842c.505.088 1.018.118 1.53.1-6.4-1.14-10.52-8.06-8.63-10.35z"/><path id="c" d="M148.56 62.06c-4-.67-6 1.84-4.64 5.6.878 2 2.214 3.768 3.9 5.158s3.677 2.363 5.81 2.842c4 .67 6-1.84 4.63-5.6a13.89 13.89 0 0 0-3.894-5.16c-1.685-1.4-3.674-2.363-5.806-2.84h0z"/><path id="d" d="M160.65 62c-.41-.946-1.04-1.782-1.833-2.44a6.56 6.56 0 0 0-2.737-1.349 2.07 2.07 0 0 0-2 .54l-6.18 7.47a2.06 2.06 0 0 0-.364 1.029c-.026.37.048.74.214 1.07a6.57 6.57 0 0 0 4.58 3.79 2.11 2.11 0 0 0 1.071-.008c.35-.095.67-.278.93-.532l6.18-7.47c.21-.305.332-.66.357-1.03A2.07 2.07 0 0 0 160.65 62z"/><path id="e" d="M153.28 72.1a4.53 4.53 0 0 1-2.381-.93c-.688-.532-1.21-1.25-1.5-2.07-.5-1.63.27-2.35 1.34-3.64l4.8-5.8-.07-1.47a1.79 1.79 0 0 0-1.44.58l-6.18 7.47a2.06 2.06 0 0 0-.364 1.029c-.026.37.048.74.214 1.07a6.57 6.57 0 0 0 1.837 2.443c.796.66 1.735 1.12 2.743 1.347a3 3 0 0 0 .99-.02h0z"/><path id="f" d="M156.08 58.2c-1.87-.32-2.85.87-2.2 2.64a6.57 6.57 0 0 0 1.837 2.443c.796.66 1.735 1.12 2.743 1.347 1.86.3 2.84-.87 2.18-2.64a6.58 6.58 0 0 0-1.832-2.441 6.57 6.57 0 0 0-2.738-1.349h0z"/><path id="g" d="M167.88 212l-.72-.33a.31.31 0 0 1-.15-.41c.848-1.59 1.42-3.3 1.7-5.1-.08-3.67-1.24-8.7-2.43-9.1s-5.16 2.9-7.45 5.77c-.85 1.583-1.433 3.296-1.72 5.07-.008.04-.024.078-.048.112s-.052.063-.087.085-.073.038-.113.045-.082.007-.122-.002l-.78-.17c-.04-.008-.078-.024-.11-.048s-.062-.053-.084-.088a.3.3 0 0 1-.041-.113.29.29 0 0 1 .006-.121c.64-2.9 1.32-4.8 2-5.65 1.22-1.54 6.35-7.12 9-6.23s3.36 8.44 3.4 10.4c0 1.1-.6 3-1.83 5.7-.015.038-.038.073-.067.103s-.065.05-.103.067-.08.02-.12.02-.082-.012-.12-.03h0z"/><path id="h" d="M167.55 196.2l-1.7-.53c1.1-3.55 1.65-9.44-2.06-17.36-2.4-5.1-1.5-8.2-.76-9.6.3-.603.717-1.13 1.246-1.54s1.147-.7 1.804-.82h.18c.193-.05.39-.08.6-.1V168h-.23l-.27.06c-.386.088-.747.263-1.054.513a2.57 2.57 0 0 0-.716.927c-.47.9-1.34 3.45.8 8 3.95 8.5 3.35 14.84 2.15 18.7z"/><path id="i" d="M181.86 168.35s10.9 5.86 16.4 17.42 4.75 29.5 4.75 29.5 3.5-14.4 1-26.58-13.7-18.52-15.8-19.27a25.83 25.83 0 0 0-6.37-1.07h0z"/><path id="j" d="M204.7 232.33c-.496 1.995-.814 4.03-.95 6.08-.147.045-.298.08-.45.1-.07-2.1.3-6.16.73-6.57s.9-.25.67.4z"/><path id="k" d="M208 234c-.568 1.948-.828 3.972-.77 6h-.56c-.065-1.944.106-3.888.5-5.8.15-.33 1.05-.9.82-.2z"/><path id="l" d="M158.08 169.05s-4.45-2.37-10.7 1-31.58 20.72-31.58 20.72l-12.65-19.4s-3.15 4.78-11.33 6.26c0 0 10.56 21.94 13.63 26.82s3.64 6.36 10.8 4.3 35.34-16 35.34-16 8.77-7 6.5-23.72z"/></defs></svg>