<svg xmlns="http://www.w3.org/2000/svg" xmlns:xlink="http://www.w3.org/1999/xlink" width="73" height="81" fill="none" xmlns:v="https://vecta.io/nano"><style><![CDATA[.B{fill:#e0e0e0}.C{fill:#f0f0f0}.D{opacity:.1}.E{fill:#000}]]></style><path d="M59.25 35.76a11.93 11.93 0 0 1-1.75-5.48c.47.87 2.18 1.15 5.25.35l6.6-1.9.73-.23.45 1.43-.72.23-6.5 2.28c-2.97 1.12-4.2 2.33-4.08 3.32z" class="C"/><path d="M69.64 30.22c-.107-.228-.2-.46-.28-.7a4.14 4.14 0 0 1-.17-.74l.9-.28.45 1.43-.9.3z" class="B"/><path d="M71.92 31.4a1.14 1.14 0 0 0 .37-.22l.07-.07.1-.12v-.07c.02-.035.037-.072.05-.1h0a3.53 3.53 0 0 0-.09-2.23 3.6 3.6 0 0 0-1.22-1.88h0l-.1-.07h-.3c-.146-.024-.294-.024-.44 0a1 1 0 0 0-.37.22c-.47.36-.56 1.47-.2 2.65s1.1 2 1.7 2a1.28 1.28 0 0 0 .45-.1z" class="C"/><path d="M72 30.32c-.4.12-.9-.44-1.17-1.25s-.16-1.57.23-1.7.53.1.78.46c-.37-.3-.76-.1-.8.43a3 3 0 0 0 .54 1.64c.23.27.45.4.66.2a.46.46 0 0 1-.24.22h0z" class="B"/><path d="M55.3 26.15a13.35 13.35 0 0 1-3.83-4.3c.77.62 1.52 1 3.74-.77l3.18-2.53.5-.44 1 1.1-.5.46-2.9 2.82c-2 2-1.7 2.8-1.18 3.65z" class="C"/><path d="M59.18 19.85c-.197-.155-.378-.33-.54-.52-.17-.188-.323-.388-.46-.6l.7-.62 1 1.1-.7.63z" class="B"/><path d="M62.24 20.18a1 1 0 0 0 .3-.42v-.1a1.15 1.15 0 0 0 0-.18v-.28a4.22 4.22 0 0 0-1.18-2.37 4.29 4.29 0 0 0-2.22-1.45h0-.48a1.3 1.3 0 0 0-.46.25 1.14 1.14 0 0 0-.29.41c-.33.63.1 1.87 1.07 3s2.16 1.67 2.82 1.4a1.14 1.14 0 0 0 .44-.27h0z" class="C"/><path d="M61.76 19c-.36.32-1.2 0-1.87-.8s-.93-1.62-.57-1.94.63-.14 1.07.12c-.55-.16-.88.25-.66.85a3.47 3.47 0 0 0 1.38 1.51c.38.18.68.2.8-.1a.55.55 0 0 1-.16.35h0z" class="B"/><path d="M47.26 18.86a12.13 12.13 0 0 1-4.42-2c.8.23 1.85-.45 2.86-2.38a14.51 14.51 0 0 0 1-1.74l.2-.47 1.16.52-.22.47c-.26.61-.482 1.24-.66 1.88-.8 2.04-.63 3.27.07 3.72z" class="C"/><path d="M47.7 13.52l-.6-.22c-.194-.09-.38-.193-.56-.3l.33-.72 1.16.52c-.1.2-.22.47-.33.73z" class="B"/><path d="M49.73 12.75a.89.89 0 0 0 .07-.36v-.24c-.004-.02-.004-.04 0-.06l-.1-.1a3.06 3.06 0 0 0-1.45-1.2 3.13 3.13 0 0 0-1.87-.3h-.16l-.1.06h-.07a1 1 0 0 0-.22.3.84.84 0 0 0-.07.35c0 .5.6 1.18 1.55 1.6s1.9.46 2.24.1a.8.8 0 0 0 .19-.17h0z" class="C"/><path d="M49.07 12.13c-.14.3-.78.32-1.44 0s-1.07-.78-.93-1.1.37-.27.72-.23c-.4.06-.5.42-.17.75a2.44 2.44 0 0 0 1.33.58c.3 0 .5-.06.5-.3a.34.34 0 0 1 0 .3h0z" class="B"/><path d="M37.8 15.64a12.07 12.07 0 0 1-5.76 0c1-.17 1.78-1.7 2-4.8l.23-6.8V3.3h1.5v.75l.16 6.8c.12 3.1.9 4.6 1.87 4.8z" class="C"/><path d="M35.75 4.2a6.06 6.06 0 0 1-.76.05 4.56 4.56 0 0 1-.75-.06v-.94h1.5l.01.95z" class="B"/><path d="M38.2 2.06a1.18 1.18 0 0 0-.12-.53.54.54 0 0 0-.05-.11l-.12-.15a.23.23 0 0 0-.07-.07.52.52 0 0 0-.11-.1h0a5.31 5.31 0 0 0-5.39 0h0l-.1.1-.07.06-.12.16a.54.54 0 0 0-.05.11 1.19 1.19 0 0 0-.13.53 1.27 1.27 0 0 0 .11.52c.26.7 1.54 1.24 3.08 1.25s2.82-.52 3.08-1.22a1.24 1.24 0 0 0 .07-.55h0z" class="C"/><path d="M36.94 1.6c0 .5-.87.9-1.94.9s-1.92-.42-1.92-.93c0-.3.34-.6.84-.75-.5.32-.42.86.2 1.1a3.64 3.64 0 0 0 2.15 0c.4-.17.64-.38.5-.7a.55.55 0 0 1 .17.36h0z" class="B"/><path d="M27.27 16.55a20.51 20.51 0 0 1-5 2.2c.82-.46 1.2-1.48.67-3l-1.24-3.3-.16-.36 1.3-.57.16.36c.37.84.94 2 1.6 3.16.78 1.4 1.78 1.8 2.67 1.52z" class="C"/><path d="M23.08 12l-.64.32c-.218.098-.442.18-.67.25l-.25-.56 1.3-.57c.07.2.17.4.25.56z" class="B"/><path d="M24 9.94a1.09 1.09 0 0 0-.23-.32h-.07l-.12-.07h-.17a3.21 3.21 0 0 0-2 .29 3.18 3.18 0 0 0-1.6 1.16h0v.3c-.005.03-.005.06 0 .1a.9.9 0 0 0 .08.38.87.87 0 0 0 .22.31c.37.38 1.36.36 2.37-.08s1.7-1.16 1.66-1.7a1 1 0 0 0-.14-.37h0z" class="C"/><path d="M23 10c.15.33-.3.85-1 1.15s-1.38.3-1.52 0 0-.48.33-.73c-.24.36 0 .7.46.67a2.61 2.61 0 0 0 1.4-.64c.2-.22.3-.43.1-.6A.4.4 0 0 1 23 10h0z" class="B"/><path d="M18.25 21.58a12 12 0 0 1-3.88 4.26c.53-.84-.06-2.44-2.24-4.65l-4.86-4.7-.55-.5 1-1.1.55.5 5.13 4.4c2.42 1.97 4.06 2.4 4.85 1.8z" class="C"/><path d="M8.43 15.52a5 5 0 0 1-.46.59 4.43 4.43 0 0 1-.55.52l-.7-.63 1-1.1.7.63z" class="B"/><path d="M8.56 11.93a1.41 1.41 0 0 0-.52-.29h-.66a5.81 5.81 0 0 0-4 4.36h0v.27a1.18 1.18 0 0 0 0 .2v.06a.61.61 0 0 0 0 .12 1.24 1.24 0 0 0 .34.49 1.34 1.34 0 0 0 .5.29c.76.3 2.13-.34 3.26-1.6s1.65-2.67 1.28-3.4a1.45 1.45 0 0 0-.2-.52h0z" class="C"/><path d="M7.27 12.63c.4.37.1 1.37-.68 2.23s-1.75 1.26-2.16.88c-.25-.23-.23-.7 0-1.23-.1.65.4 1 1.06.65a4 4 0 0 0 1.56-1.76c.16-.45.15-.8-.2-.9a.59.59 0 0 1 .43.14h0z" class="B"/><path d="M12.06 29.83a18.91 18.91 0 0 1-1.9 5.74c.2-1-.55-2.13-2.57-3L3.16 30.9l-.5-.17.5-1.5.5.16 4.57 1.3c2.13.53 3.4.1 3.84-.85z" class="C"/><path d="M3.84 29.46a7.78 7.78 0 0 1-.2.76c-.1.27-.2.5-.3.74l-.7-.23.5-1.5.68.22z" class="B"/><path d="M2.64 27.16a1.06 1.06 0 0 0-.43 0h-.1c-.046-.007-.094-.007-.14 0H1.9l-.1.06a3.63 3.63 0 0 0-1.23 1.87 3.57 3.57 0 0 0-.12 2.23h0a.54.54 0 0 0 .05.11v.07a.54.54 0 0 0 .09.12l.07.06A1 1 0 0 0 1 32a1 1 0 0 0 .42 0c.6 0 1.32-.86 1.7-2s.3-2.28-.16-2.66a.9.9 0 0 0-.33-.18z" class="C"/><path d="M2 28c.38.13.48.9.2 1.7s-.8 1.36-1.18 1.23-.37-.4-.37-.83c.12.47.56.54.9.12a3 3 0 0 0 .53-1.64c0-.35-.14-.58-.42-.55A.48.48 0 0 1 2 28h0z" class="B"/><path d="M9.63 40.82c.23 1.454.378 2.92.44 4.4-.1-.6-.45-1.37-1.06-1.46a6.32 6.32 0 0 0-1.38-.07H7.5l-.1-.92h.15a4.34 4.34 0 0 0 1.31-.37 1.54 1.54 0 0 0 .78-1.57z" class="C"/><path d="M7.74 42.73a3.4 3.4 0 0 1 .06.46 4.09 4.09 0 0 1 0 .47h-.34l-.1-.92.38-.01z" class="B"/><path d="M6.22 41.37a.8.8 0 0 0-.32.1h-.07l-.1.08-.05.07a3.27 3.27 0 0 0 .33 3.32h0l.07.06.1.06h.06a.78.78 0 0 0 .34 0 .81.81 0 0 0 .31-.1c.42-.2.67-1 .57-2s-.5-1.7-.95-1.83a.85.85 0 0 0-.3.24z" class="C"/><path d="M6 42.17c.3 0 .62.48.68 1.14s-.13 1.2-.44 1.24-.4-.17-.52-.47c.23.3.56.2.67-.2a2.29 2.29 0 0 0-.14-1.33c-.13-.23-.28-.36-.47-.25a.36.36 0 0 1 .22-.13h0z" class="B"/><path d="M11.8 50.83a13.64 13.64 0 0 1 2.94 5c-.64-.76-1.3-1.27-3.74 0l-3.5 1.83-.56.33-.77-1.3.56-.34 3.3-2.17c2.27-1.6 2.13-2.43 1.77-3.36z" class="C"/><path d="M7 56.17c.162.193.305.4.43.62s.243.44.34.67l-.8.48-.77-1.3.8-.48z" class="B"/><path d="M4 55.27a1.16 1.16 0 0 0-.38.35l-.06.1a.87.87 0 0 0-.07.17v.23a5 5 0 0 0 2.62 4.4h.56a1.19 1.19 0 0 0 .87-.5c.44-.56.25-1.86-.5-3.12s-1.8-2-2.5-1.92a1.11 1.11 0 0 0-.54.29h0z" class="C"/><path d="M4.26 56.5c.42-.24 1.17.26 1.7 1.13s.6 1.78.2 2c-.26.15-.65 0-1-.3.52.25.9-.08.8-.72a3.63 3.63 0 0 0-1.07-1.75c-.33-.24-.62-.32-.8 0a.58.58 0 0 1 .19-.35z" class="B"/><path d="M18.4 59.47a12.62 12.62 0 0 1 4 2.8c-.74-.37-1.9.1-3.23 1.76-.46.465-.882.966-1.26 1.5l-.3.4-1-.73.3-.42a11.64 11.64 0 0 0 1-1.69c1.1-1.82 1.1-3.05.5-3.63z" class="C"/><path d="M17 64.56a3.92 3.92 0 0 1 .54.33c.177.12.344.254.5.4l-.47.65-1-.73.43-.65z" class="B"/><path d="M14.9 64.93a.85.85 0 0 0-.14.34v.08c-.005.043-.005.087 0 .13v.07a.29.29 0 0 1 0 .09 3.56 3.56 0 0 0 3 2.1h.37a.92.92 0 0 0 .27-.25.94.94 0 0 0 .14-.33c.13-.5-.37-1.28-1.22-1.88s-1.77-.8-2.18-.53a.91.91 0 0 0-.24.18h0z" class="C"/><path d="M15.42 65.67c.2-.28.83-.17 1.42.24s.9 1 .7 1.26-.42.2-.76.1c.4 0 .57-.3.32-.7a2.52 2.52 0 0 0-1.2-.82c-.3-.07-.5 0-.54.2a.34.34 0 0 1 .05-.27z" class="B"/><path d="M27.12 64.45a12.22 12.22 0 0 1 5.65 1.12c-1 0-2.06 1.3-2.82 4.32l-1.5 6.57-.14.72-1.47-.3c0-.22.1-.47.14-.73l1.1-6.64c.44-3.07-.03-4.7-.96-5.07z" class="C"/><path d="M27 76c.252.01.503.04.75.1a5 5 0 0 1 .72.2l-.18.92-1.47-.3L27 76z" class="B"/><path d="M24.2 77.6a1.27 1.27 0 0 0 0 .55c-.005.04-.005.08 0 .12a1.51 1.51 0 0 0 .09.18l.05.08.1.12a4.42 4.42 0 0 0 2.5 1.24 4.48 4.48 0 0 0 2.78-.19h0l.13-.08h.08l.14-.13.08-.1a1.41 1.41 0 0 0 .22-.5 1.34 1.34 0 0 0 0-.53c-.12-.74-1.27-1.5-2.78-1.8s-2.87 0-3.27.6a1.3 1.3 0 0 0-.11.43z" class="C"/><path d="M25.35 78.3c.1-.5 1-.73 2.07-.53s1.8.78 1.7 1.28c-.06.3-.44.5-1 .57.56-.22.57-.76 0-1.13a3.7 3.7 0 0 0-2.11-.39c-.43.1-.7.25-.6.6a.48.48 0 0 1-.06-.39h0z" class="B"/><path d="M37.68 65.5A20.93 20.93 0 0 1 43 64.3c-.9.3-1.44 1.22-1.24 2.83l.6 3.45c0 .14.06.26.1.38l-1.4.32-.05-.38c-.2-.9-.54-2.12-1-3.37-.5-1.53-1.4-2.14-2.32-2.02z" class="C"/><path d="M40.93 70.68a5.7 5.7 0 0 1 .69-.19c.23-.056.465-.1.7-.13l.14.6-1.4.32c-.07-.2-.07-.4-.14-.6z" class="B"/><path d="M39.67 72.57a.88.88 0 0 0 .17.35l.05.07a.44.44 0 0 0 .11.09h.15a3.78 3.78 0 0 0 3.76-.85h0l.07-.1v-.06a.34.34 0 0 0 .06-.12c.005-.026.005-.053 0-.08a.86.86 0 0 0 0-.39 1 1 0 0 0-.16-.35c-.3-.44-1.27-.6-2.34-.37s-1.88.82-2 1.35a1 1 0 0 0 .13.45z" class="C"/><path d="M40.62 72.68c-.08-.35.46-.78 1.2-1s1.4 0 1.5.34-.14.46-.47.66c.3-.3.16-.67-.32-.74a2.67 2.67 0 0 0-1.5.35c-.25.2-.38.37-.22.57a.36.36 0 0 1-.18-.18h0z" class="B"/><path d="M47.57 62.1a9.62 9.62 0 0 1 4.61-3.45c-.65.77-.13 2.77 2.1 6l2.9 4.43.57.76-1.2.9L56 70l-3.2-4.2c-2.52-3.04-4.3-4.1-5.22-3.7z" class="C"/><path d="M56 70a4.57 4.57 0 0 1 .57-.49c.2-.15.41-.288.63-.4l.57.76-1.2.9L56 70z" class="B"/><path d="M55.16 73.52a1.41 1.41 0 0 0 .46.39l.1.06.2.06h.26A5 5 0 0 0 59.1 73a4.89 4.89 0 0 0 1.88-2.4h0a.89.89 0 0 0 0-.16c.005-.033.005-.067 0-.1a.74.74 0 0 0 0-.21.13.13 0 0 0 0-.06.59.59 0 0 0 0-.13 1.45 1.45 0 0 0-.24-.54 1.42 1.42 0 0 0-.44-.38c-.7-.44-2.16-.07-3.5.94s-2.12 2.3-1.9 3.1a1.34 1.34 0 0 0 .26.47z" class="C"/><path d="M56.56 73.08c-.33-.44.16-1.37 1.1-2.06s2-.9 2.3-.46c.2.27.1.73-.24 1.2.23-.62-.2-1-.92-.83a4.1 4.1 0 0 0-1.87 1.42c-.24.42-.3.76 0 .94a.59.59 0 0 1-.35-.22z" class="B"/><path d="M55 55.3A14.55 14.55 0 0 1 57.9 50c-.36 1 .45 2.37 2.84 3.9l3.18 1.9.6.34-.77 1.37-.6-.33c-1.4-.78-1.3-.53-3.38-1.53-2.57-1.2-4.17-1.15-4.77-.34z" class="C"/><path d="M63.1 57.2a6.63 6.63 0 0 1 .35-.71c.13-.24.28-.46.42-.67l.63.36-.77 1.37-.63-.35z" class="B"/><path d="M63.85 59.7a1.36 1.36 0 0 0 .42.13h.48a3.7 3.7 0 0 0 1.57-1.6 3.66 3.66 0 0 0 .54-2.18h0v-.12c.004-.023.004-.047 0-.07-.014-.05-.034-.096-.06-.14l-.05-.08a1.32 1.32 0 0 0-.33-.29 1 1 0 0 0-.41-.12c-.6-.1-1.46.6-2.06 1.67s-.73 2.18-.35 2.64a1.08 1.08 0 0 0 .25.16h0z" class="C"/><path d="M64.66 59c-.36-.2-.3-1 .1-1.7s1-1.18 1.4-1c.2.13.28.47.2.88 0-.48-.45-.62-.87-.28a3 3 0 0 0-.82 1.51c0 .35 0 .6.3.62a.43.43 0 0 1-.32-.02h0z" class="B"/><path d="M59.57 45c.05-1.473.183-2.942.4-4.4 0 .62.2 1.44.77 1.65a6.49 6.49 0 0 0 1.34.32h.14l-.08.93H62a4.75 4.75 0 0 0-1.36.12A1.54 1.54 0 0 0 59.57 45h0z" class="C"/><path d="M61.8 43.43c-.01-.153-.01-.307 0-.46 0-.17 0-.32.06-.47h.34l-.08.93h-.32z" class="B"/><path d="M63 45.06a1 1 0 0 0 .34 0h.07l.1-.07h.05a.46.46 0 0 0 .07-.07 3.24 3.24 0 0 0 .3-3.32h0l-.05-.07-.1-.08h-.06a.68.68 0 0 0-.32-.11.93.93 0 0 0-.33 0c-.44.12-.84.88-.93 1.83s.17 1.77.6 2a.81.81 0 0 0 .26-.11h0z" class="C"/><path d="M63.38 44.3c-.3 0-.52-.6-.46-1.24s.36-1.17.67-1.14.35.24.42.56c-.17-.33-.5-.3-.7.07a2.3 2.3 0 0 0-.1 1.33c.08.25.2.4.4.33a.35.35 0 0 1-.23.09z" class="B"/><use xlink:href="#B" class="C"/><use xlink:href="#B" fill="#f5f5f5"/><path d="M33.82 65.8c-7.48-.48-23.46-11-21-29.2s22-21.6 28.38-20.5A25.29 25.29 0 0 0 9.691 36.832 25.29 25.29 0 0 0 33.83 65.81h-.01zM22.67 31.33c-.9 1.7-2.63 2.5-3.9 1.84s-1.58-2.57-.7-4.26 2.63-2.5 3.9-1.84 1.58 2.58.7 4.26z" class="B"/><path d="M20.7 27.67c.86-.27 1.67 1 .95 2.64-.57 1.27-1.74 2.15-2.55 2a1.07 1.07 0 0 1-.392-.162c-.12-.08-.22-.182-.298-.3a1.07 1.07 0 0 1-.151-.817c.14.57.7.84 1.45.45a3.36 3.36 0 0 0 1.69-2.6c.03-.67-.27-1.14-.7-1.2z" class="D E"/><path d="M43.45 53.6c1.32-1.37 3.23-1.67 4.26-.67s.8 2.9-.53 4.28-3.23 1.67-4.26.67-.8-2.87.53-4.28z" class="B"/><path d="M44.32 57.66c-.9 0-1.3-1.45-.17-2.8.9-1.06 2.27-1.58 3-1.22a1.08 1.08 0 0 1 .538.639 1.08 1.08 0 0 1-.078.831c0-.6-.45-1-1.28-.84a3.36 3.36 0 0 0-2.34 2c-.22.67-.06 1.2.33 1.4z" class="D E"/><path d="M38.62 33.58c-1.5-.57-2.36-1.94-1.93-3.06s2-1.58 3.48-1 2.36 1.94 1.93 3.07-2 1.56-3.48 1z" class="B"/><path d="M41.47 31.56c.32.7-.7 1.5-2.1 1.06-1.12-.34-2-1.23-1.94-1.92a.91.91 0 0 1 .322-.631.91.91 0 0 1 .678-.209c-.46.2-.63.68-.22 1.26a2.76 2.76 0 0 0 2.34 1.14c.55-.03.9-.33.92-.7z" class="D E"/><path d="M28.2 43.47c.83 1.7.46 3.6-.83 4.23s-3-.25-3.84-2-.46-3.6.83-4.24 3 .3 3.84 2z" class="B"/><path d="M24.08 42.9c.3-.85 1.82-.74 2.7.8.7 1.2.7 2.67.12 3.24a1.09 1.09 0 0 1-.785.284 1.09 1.09 0 0 1-.755-.354c.55.22 1.1-.08 1.23-.9a3.37 3.37 0 0 0-1.1-2.9c-.48-.43-1.08-.46-1.4-.16z" class="D E"/><path d="M40 25.37c-1.74-.78-2.68-2.46-2.1-3.77s2.46-1.75 4.2-1 2.68 2.47 2.1 3.78-2.46 1.76-4.2 1z" class="B"/><path d="M43.52 23.15c.33.84-.9 1.73-2.57 1.12-1.3-.48-2.26-1.6-2.18-2.4a1.08 1.08 0 0 1 .413-.726 1.08 1.08 0 0 1 .807-.214c-.56.2-.8.77-.35 1.5a3.35 3.35 0 0 0 2.71 1.5c.65-.01 1.13-.34 1.17-.77z" class="D E"/><path d="M37 48.15c1.68.1 3 1.2 2.9 2.47s-1.5 2.22-3.18 2.1-3-1.2-2.9-2.47 1.52-2.2 3.18-2.1z" class="B"/><path d="M34.8 51.08c-.53-.6.22-1.72 1.78-1.73 1.24 0 2.37.62 2.56 1.32a1 1 0 0 1-.73 1.15c.4-.33.42-.87-.17-1.33a2.94 2.94 0 0 0-2.71-.41c-.52.22-.83.63-.73 1z" class="D E"/><path d="M48.64 43.8c.18-2.63 1.94-4.66 3.92-4.53s3.44 2.4 3.26 5-1.93 4.66-3.9 4.53-3.45-2.36-3.27-5z" class="B"/><path d="M53.2 47.34c-.94.83-2.7-.36-2.7-2.8 0-1.93 1-3.7 2.1-4a1.49 1.49 0 0 1 1.137.199 1.49 1.49 0 0 1 .653.951c-.5-.64-1.36-.67-2.1.25a4.64 4.64 0 0 0-.68 4.24c.36.9 1 1.32 1.57 1.17z" class="D E"/><path d="M18 41.87c.2 1.4-.5 2.67-1.56 2.82s-2.08-.86-2.28-2.27.5-2.68 1.55-2.83 2.12.87 2.3 2.28z" class="B"/><path d="M15.22 40.52c.4-.54 1.47-.1 1.74 1.18a2.24 2.24 0 0 1-.66 2.3.82.82 0 0 1-1.08-.41c.34.28.8.2 1.08-.37a2.48 2.48 0 0 0-.12-2.31c-.28-.38-.66-.53-.96-.4z" class="D E"/><path d="M24.63 52.2c1.43 1.3 1.8 3.24.8 4.32s-2.94.9-4.37-.42-1.8-3.24-.8-4.32 2.94-.9 4.37.42z" class="B"/><path d="M20.5 53.2c0-.92 1.45-1.38 2.85-.26 1.1.9 1.67 2.27 1.33 3a1.1 1.1 0 0 1-.636.558 1.1 1.1 0 0 1-.844-.058c.6 0 1-.48.8-1.32a3.39 3.39 0 0 0-2.13-2.32c-.66-.18-1.2-.01-1.38.4z" class="D E"/><path d="M33.9 57.85c1.24 0 2.28.67 2.3 1.6s-.93 1.73-2.17 1.78a2 2 0 0 1-2.32-1.59c-.04-.94.94-1.74 2.18-1.8z" class="B"/><path d="M32.47 60.17c-.43-.4 0-1.28 1.18-1.4a1.94 1.94 0 0 1 2 .77.7.7 0 0 1-.034.545.7.7 0 0 1-.416.355c.28-.27.25-.67-.22-1a2.14 2.14 0 0 0-2-.1c-.45.24-.6.56-.5.83z" class="D E"/><path d="M49.38 30.9a1.76 1.76 0 0 1-.652-1.413 1.76 1.76 0 0 1 .724-1.378 1.76 1.76 0 0 1 1.534-.264A1.76 1.76 0 0 1 52.13 28.9a1.76 1.76 0 0 1 .652 1.414 1.76 1.76 0 0 1-.724 1.378 1.76 1.76 0 0 1-1.534.265A1.76 1.76 0 0 1 49.38 30.9h0z" class="B"/><path d="M52.1 30.8c-.1.58-1.1.68-1.82-.2a1.92 1.92 0 0 1-.43-2.07.7.7 0 0 1 .472-.278.7.7 0 0 1 .528.148c-.37-.08-.7.17-.68.72a2.17 2.17 0 0 0 1 1.74c.4.22.76.14.93-.05z" class="D E"/><path d="M30.3 33.66a1.76 1.76 0 0 1-1.834.253 1.76 1.76 0 0 1-1.046-1.528 1.76 1.76 0 0 1 .9-1.618 1.76 1.76 0 0 1 1.85.083 2 2 0 0 1 .13 2.81h0z" class="B"/><path d="M29.28 31.14c.57-.1 1 .8.42 1.78-.46.78-1.3 1.27-1.8 1.12a.7.7 0 0 1-.411-.351.7.7 0 0 1-.039-.539c.05.38.4.6.9.4A2.17 2.17 0 0 0 29.64 32c.07-.46-.1-.78-.36-.86z" class="D E"/><path d="M43.1 41.3c0-1.24.8-2.23 1.74-2.2s1.67 1 1.64 2.3-.8 2.23-1.74 2.2-1.67-1.05-1.64-2.3z" class="B"/><path d="M45.33 42.86c-.43.4-1.28-.1-1.32-1.26a2 2 0 0 1 .9-1.92.72.72 0 0 1 .87.5c-.26-.3-.66-.28-1 .17a2.16 2.16 0 0 0-.23 2c.2.4.5.65.78.5z" class="D E"/><path d="M30.33 22.94a2 2 0 0 1-2.63-1c-.27-.9.48-1.9 1.67-2.26a2 2 0 0 1 2.64 1c.27.9-.48 1.9-1.68 2.26z" class="B"/><path d="M31.14 20.35c.52.28.28 1.25-.8 1.65a2 2 0 0 1-2.1-.27.71.71 0 0 1-.107-.545.71.71 0 0 1 .317-.455c-.2.33-.06.7.46.88a2.18 2.18 0 0 0 2-.4c.3-.27.4-.63.23-.86z" class="D E"/><path d="M35.47 44a3.44 3.44 0 0 1-3.227-2.218 3.44 3.44 0 0 1 .94-3.801 3.44 3.44 0 0 1 3.889-.459A3.44 3.44 0 0 1 38.87 41a3.21 3.21 0 0 1-3.4 3z" class="B"/><path d="M37.18 38.55c-.83-.67-2.3-.36-3 1.1s.26 3.75 1.74 3.53a2.58 2.58 0 0 1-1-3 2 2 0 0 1 2.26-1.63h0z" class="D E"/><defs ><path id="B" d="M42.4 64.62a25.28 25.28 0 0 1-26.989-7.778 25.28 25.28 0 0 1-3.145-27.911 25.28 25.28 0 0 1 24.582-13.589A25.28 25.28 0 0 1 58.8 32.85a25.27 25.27 0 0 1-1.62 19.286A25.27 25.27 0 0 1 42.39 64.62h0z"/></defs></svg>