<svg xmlns="http://www.w3.org/2000/svg" xmlns:xlink="http://www.w3.org/1999/xlink" width="121" height="136" fill="none" xmlns:v="https://vecta.io/nano"><style><![CDATA[.B{fill:#407bff}.C{fill:#000}.D{opacity:.1}.E{opacity:.2}.F{opacity:.3}.G{opacity:.25}]]></style><path d="M20.83 83.18a20.15 20.15 0 0 1 4.4 8.68c-1-1.34-4-1.34-8.84.83-4 1.77-7.8 3.6-10.52 4.95l-1.14.58L3.58 96l1.14-.58c2.7-1.4 6.42-3.37 10.22-5.55 4.64-2.72 6.36-5.07 5.9-6.7z" class="B"/><path d="M5 95.24c.25.345.47.71.66 1.1s.353.77.5 1.17l-1.42.72L3.58 96 5 95.24z" class="C E"/><path d="M.9 93.9a1.75 1.75 0 0 0-.57.47.64.64 0 0 0-.1.13v.05a1.76 1.76 0 0 0-.11.24.56.56 0 0 0 0 .12 1.17 1.17 0 0 0-.05.2h0a7.16 7.16 0 0 0 .758 3.707c.58 1.145 1.46 2.114 2.542 2.803h0l.2.07h.6c.25-.012.494-.073.72-.18.214-.117.404-.273.56-.46.68-.74.54-2.6-.4-4.47s-2.36-3.08-3.37-3a1.74 1.74 0 0 0-.77.32h0z" class="B"/><path d="M1.13 95.7c.6-.3 1.64.48 2.3 1.76s.68 2.58.07 2.9c-.37.2-.9 0-1.42-.55.7.4 1.3 0 1.2-.94a5.08 5.08 0 0 0-1.34-2.58c-.46-.38-.86-.53-1.15-.15a.75.75 0 0 1 .34-.43h0z" class="C F"/><path d="M30 98.15c2.93 1.468 5.505 3.56 7.54 6.13-1.46-.83-2.8-1.25-6 2.28l-4.6 5.08-.72.88-2-1.6.8-.93 4.1-5.5c2.75-3.84 2.05-5.1.9-6.35z" class="B"/><path d="M25.25 109.7c.353.212.687.453 1 .72.333.268.644.562.93.88l-1 1.23-2-1.6 1.07-1.24z" class="C E"/><path d="M20.05 110c-.185.233-.318.502-.4.8a1.06 1.06 0 0 0 0 .19v.08c-.005.1-.005.2 0 .3.004.053.004.107 0 .16v.24c.526 1.428 1.427 2.688 2.607 3.65s2.597 1.586 4.103 1.81h.4a1.64 1.64 0 0 0 .3-.08h.08l.17-.08a2.06 2.06 0 0 0 .69-.54 1.94 1.94 0 0 0 .38-.76c.38-1.14-.67-3.1-2.6-4.65s-4.05-2.2-5.08-1.6c-.256.114-.487.277-.68.48h0z" class="B"/><path d="M21.17 111.8c.52-.63 2-.27 3.34.8s2 2.46 1.47 3.1c-.32.4-1 .4-1.8.1 1 .1 1.4-.66.86-1.6a6 6 0 0 0-2.7-2.15c-.68-.2-1.2-.16-1.32.4a.87.87 0 0 1 .16-.63z" class="C F"/><path d="M45.38 108.12c2.756.178 5.45.906 7.92 2.14-1.4-.16-3 1.26-4.13 4.74a24.8 24.8 0 0 0-1.15 3.16l-.23.85-2.06-.56.23-.84a24.53 24.53 0 0 0 .6-3.32c.73-3.6.1-5.6-1.18-6.17z" class="B"/><path d="M46.08 117.15c.355.043.706.113 1.05.2a6.2 6.2 0 0 1 1 .35l-.36 1.3-2.06-.56c.13-.4.3-.83.37-1.3z" class="C E"/><path d="M42.92 119a1.45 1.45 0 0 0 0 .62v.2a1 1 0 0 0 .09.21c.013.032.03.062.05.1l.1.14a6.06 6.06 0 0 0 5.94 1.6l.15-.08.1-.05.17-.13.1-.1a1.45 1.45 0 0 0 .29-.55 1.41 1.41 0 0 0 0-.61c-.08-.84-1.33-1.8-3-2.27s-3.27-.25-3.76.44a1.27 1.27 0 0 0-.21.5h0z" class="B"/><path d="M44.18 119.84c.15-.56 1.23-.76 2.4-.44s2 1 1.85 1.58c-.1.35-.54.56-1.15.6.66-.2.72-.83.1-1.3a4.26 4.26 0 0 0-2.37-.62c-.5.07-.82.24-.75.64a.64.64 0 0 1-.07-.46h0z" class="C F"/><path d="M62 111a20.32 20.32 0 0 1 9.61-1.51c-1.6.56-2.5 3.3-2 8.56.44 4.3 1 8.42 1.44 11.37.06.45.13.86.2 1.25l-2.5.4-.2-1.24c-.48-3-1.2-7.05-2.1-11.27C65.4 113.32 63.7 111 62 111z" class="B"/><path d="M68.54 129.44c.406-.127.82-.224 1.24-.3a8.06 8.06 0 0 1 1.27-.1l.24 1.57-2.5.4-.25-1.57z" class="C E"/><path d="M65 133.68a2.25 2.25 0 0 0 .33.85l.12.17a.18.18 0 0 1 0 .07c.075.078.156.152.24.22l.13.1.2.14c1.466.673 3.1.86 4.7.53a7.64 7.64 0 0 0 4.3-1.93h0c.06-.06.1-.13.16-.2.03-.045.064-.09.1-.13a1.96 1.96 0 0 0 .15-.29v-.08c0-.07.05-.13.06-.2a2.14 2.14 0 0 0-.26-1.76c-.62-1.1-2.9-1.65-5.46-1.25s-4.57 1.62-4.82 2.86a2.07 2.07 0 0 0 .05.89z" class="B"/><path d="M67.25 134.1c-.13-.85 1.2-1.76 3-2s3.32.2 3.45 1c.08.52-.4 1.08-1.2 1.48.76-.67.47-1.55-.65-1.8a6.26 6.26 0 0 0-3.58.6c-.62.4-.95.8-.62 1.3a.93.93 0 0 1-.4-.58h0z" class="C F"/><path d="M79.33 106.57c2.36-2 4.972-3.68 7.77-5-1.24 1-1.57 2.8-.3 5.25 1 2 2.15 3.87 3 5.2l.35.56-2 1.3-.36-.55-3.5-4.84c-1.76-2.2-3.54-2.63-4.95-1.9z" class="B"/><path d="M87.55 113c.32-.255.654-.492 1-.7.322-.22.656-.42 1-.6l.56.87-2 1.3-.56-.86z" class="C E"/><path d="M86.65 116.7a1.48 1.48 0 0 0 .46.47l.13.07h.05l.22.08h.3a5.5 5.5 0 0 0 3.21-1 5.43 5.43 0 0 0 2.25-2.51h0a1.54 1.54 0 0 0 .05-.17v-.12a1.8 1.8 0 0 0 0-.23v-.2c-.038-.22-.115-.43-.23-.62a1.42 1.42 0 0 0-.46-.45c-.72-.54-2.36-.24-3.92.77s-2.52 2.38-2.32 3.26a1.39 1.39 0 0 0 .27.65h0z" class="B"/><path d="M88.22 116.33c-.33-.52.27-1.5 1.35-2.2s2.22-.84 2.55-.33c.2.32.06.82-.35 1.3.3-.66-.14-1.14-.95-1-.845.254-1.596.75-2.16 1.43-.3.44-.4.8 0 1a.65.65 0 0 1-.44-.21h0z" class="C F"/><path d="M93 95.75a20.47 20.47 0 0 1 5.31-8.15c-.65 1.55.76 4.06 5 7.15a251.41 251.41 0 0 0 9.36 6.51l1.05.7-1.4 2.12-1.05-.7c-2.5-1.6-6-3.8-9.73-5.94-4.55-2.63-7.38-2.9-8.55-1.7z" class="B"/><path d="M111 103.2c.176-.384.38-.755.6-1.1s.49-.684.77-1l1.34.88-1.4 2.12-1.33-.9z" class="C E"/><path d="M111.77 109.22a2.46 2.46 0 0 0 .94.35h.32c.116.01.234.01.35 0h.17l.27-.07c1.564-.78 2.893-1.964 3.85-3.428a9.85 9.85 0 0 0 1.591-4.902v-.28c.005-.057.005-.113 0-.17a1.61 1.61 0 0 0-.12-.33v-.1l-.1-.2c-.18-.285-.417-.528-.698-.713s-.6-.306-.932-.357c-1.34-.3-3.45 1.14-5 3.52s-2 4.9-1.2 6c.15.255.346.48.58.66h0z" class="B"/><path d="M113.74 107.7c-.8-.5-.55-2.26.52-3.9s2.58-2.56 3.36-2.05c.48.3.6 1.1.33 2.05 0-1.1-.92-1.5-1.94-.78-1.026.883-1.77 2.048-2.14 3.35-.14.8 0 1.37.6 1.45a1 1 0 0 1-.74-.11z" class="C F"/><path d="M101.1 80.33a31.85 31.85 0 0 1 1.62-10.08c-.06 1.75 1.5 3.4 5.08 4.28l7.85 1.6.87.15-.42 2.62-.87-.14a122.1 122.1 0 0 0-8-.92c-3.65-.3-5.64.8-6.13 2.48z" class="B"/><path d="M114.9 78.72c0-.42.07-.86.14-1.33.07-.438.162-.872.28-1.3l1.2.2-.42 2.62-1.2-.2z" class="C E"/><path d="M117.52 82.24a1.82 1.82 0 0 0 .74 0l.15-.06h.07c.077-.032.15-.072.22-.12l.1-.08.16-.13a6.17 6.17 0 0 0 1.56-3.45 6.05 6.05 0 0 0-.4-3.75h0c-.03-.06-.068-.117-.1-.17l-.07-.1-.18-.2h-.06c-.04-.036-.083-.066-.13-.1-.2-.142-.43-.237-.673-.278a1.65 1.65 0 0 0-.727.038c-1 .2-2 1.8-2.3 3.86s.1 3.88 1 4.38a1.65 1.65 0 0 0 .64.15h0z" class="B"/><path d="M118.38 80.64c-.67-.1-1-1.34-.8-2.77s1-2.48 1.64-2.38c.42.07.72.57.83 1.28-.33-.74-1.06-.74-1.53 0-.426.896-.576 1.9-.43 2.88.14.58.38.93.84.8a.74.74 0 0 1-.54.19z" class="C F"/><path d="M102.18 61.36c-.777-2.365-1.418-4.772-1.92-7.2.33 1 1.13 2.16 2.18 2.15a10.51 10.51 0 0 0 2.3-.26L105 56l.4 1.52-.24.07c-.745.222-1.45.56-2.1 1a2.62 2.62 0 0 0-.87 1.249 2.61 2.61 0 0 0-.03 1.521h0z" class="B"/><path d="M104.82 57.65l-.23-.75-.17-.78.58-.12.4 1.52-.6.13z" class="C E"/><path d="M107.73 59.52c.183-.055.353-.147.5-.27.038-.02.07-.048.1-.08h0c.05-.047.095-.1.13-.16a.52.52 0 0 0 .05-.08s0-.1.07-.14c.31-.948.31-1.972 0-2.92a4.77 4.77 0 0 0-1.47-2.53h0l-.13-.08-.1-.06-.18-.07h-.18a1.38 1.38 0 0 0-.57 0 1.33 1.33 0 0 0-.5.26c-.63.45-.82 1.88-.4 3.44s1.3 2.7 2.07 2.78a1.33 1.33 0 0 0 .61-.09z" class="B"/><path d="M107.84 58.12c-.52.13-1.16-.63-1.45-1.7s-.1-2.06.4-2.2c.32-.08.7.18 1 .65-.47-.43-1-.2-1.07.5-.012.766.196 1.52.6 2.17.28.36.57.53.85.3-.076.13-.197.225-.34.27h0z" class="C F"/><path d="M95.88 45.24a23.24 23.24 0 0 1-6.24-7.45c1.27 1.1 2.5 1.77 6.24-1l5.35-4 .86-.7L103.7 34l-.85.72-4.92 4.5c-3.37 3.2-2.94 4.56-2.06 6z" class="B"/><path d="M102.5 35c-.316-.28-.6-.585-.88-.9-.275-.314-.525-.648-.75-1l1.23-1 1.62 1.93-1.22.98z" class="C E"/><path d="M107.65 35.75c.225-.188.406-.424.53-.7.03-.058.058-.118.08-.18v-.08c.03-.097.052-.198.06-.3v-.4c-.25-1.5-.897-2.908-1.874-4.074a8.51 8.51 0 0 0-3.686-2.556h0-.96a2.17 2.17 0 0 0-.78.41 2 2 0 0 0-.52.67c-.6 1 .08 3.16 1.67 5.06s3.56 2.92 4.68 2.52c.29-.072.564-.205.8-.4h0z" class="B"/><path d="M106.9 33.74c-.62.52-2-.12-3.12-1.43s-1.47-2.8-.85-3.3c.38-.33 1.07-.2 1.8.25-.93-.3-1.5.37-1.15 1.4.477 1.075 1.26 1.986 2.25 2.62.63.32 1.13.38 1.37-.13a.9.9 0 0 1-.29.59h0z" class="C F"/><path d="M82.5 32.63a21.28 21.28 0 0 1-7.37-3.6c1.35.43 3.13-.65 4.9-3.8.627-.91 1.195-1.858 1.7-2.84l.38-.78 1.92.94-.38.78c-.473 1-.87 2.032-1.2 3.1-1.37 3.33-1.13 5.4.03 6.2z" class="B"/><path d="M83.45 23.77c-.344-.104-.68-.238-1-.4s-.632-.34-.93-.54l.6-1.2 1.92.94-.58 1.2z" class="C E"/><path d="M86.9 22.58a1.42 1.42 0 0 0 .14-.6c.005-.047.005-.093 0-.14v-.06a.8.8 0 0 0-.05-.21.45.45 0 0 0 0-.11 1.01 1.01 0 0 0-.07-.15h0a6.09 6.09 0 0 0-5.53-2.7h0l-.16.05h-.1l-.2.1h-.05l-.1.08a1.68 1.68 0 0 0-.39.48 1.64 1.64 0 0 0-.14.6c-.08.84 1 2 2.54 2.8s3.17.87 3.78.28a1.65 1.65 0 0 0 .34-.42h0z" class="B"/><path d="M85.82 21.5c-.25.52-1.34.5-2.44 0s-1.77-1.4-1.5-1.9c.15-.32.63-.44 1.23-.35-.68.08-.85.67-.33 1.25a4.27 4.27 0 0 0 2.22 1.05c.5 0 .84-.08.85-.48a.6.6 0 0 1-.02.44h0z" class="C F"/><path d="M66.64 26.68a20.63 20.63 0 0 1-9.72-.34c1.67-.24 3.08-2.74 3.54-8 .38-4.26.62-8.38.74-11.34 0-.45 0-.87.05-1.26l2.52.1v1.25c-.08 3-.14 7.1-.06 11.38.06 5.27 1.3 7.86 2.93 8.22z" class="B"/><path d="M63.72 7.45a7.54 7.54 0 0 1-1.27 0 7.37 7.37 0 0 1-1.27-.14l.07-1.6 2.52.1-.05 1.64z" class="C E"/><path d="M68 4a2.07 2.07 0 0 0-.17-.9c-.02-.066-.047-.13-.08-.2a.2.2 0 0 1 0-.08l-.2-.26-.1-.12-.18-.17a9 9 0 0 0-9.1-.32h0c-.07.048-.138.1-.2.16l-.12.1c-.075.076-.142.16-.2.25a.56.56 0 0 0-.05.08.91.91 0 0 0-.09.17 2.22 2.22 0 0 0-.24.89 2.17 2.17 0 0 0 .16.89c.4 1.2 2.53 2.16 5.13 2.25s4.8-.73 5.27-1.9A2.07 2.07 0 0 0 68 4h0z" class="B"/><path d="M65.86 3.13c0 .86-1.5 1.5-3.3 1.44s-3.22-.8-3.2-1.66c0-.53.6-1 1.45-1.23-.87.52-.75 1.43.3 1.9a6.28 6.28 0 0 0 3.63.09c.7-.26 1.1-.62.86-1.16a.88.88 0 0 1 .26.63h0z" class="C F"/><path d="M48.75 27.77a35.58 35.58 0 0 1-8.57 3.46c1.4-.73 2.07-2.43 1.3-5.06l-1.92-5.6-.24-.6 2.23-.9.25.6 2.5 5.36c1.28 2.42 2.93 3.18 4.45 2.74z" class="B"/><path d="M41.94 20c-.357.2-.724.36-1.1.5s-.754.28-1.14.4l-.38-1 2.23-.9.4 1z" class="C E"/><path d="M43.53 16.54a1.53 1.53 0 0 0-.37-.55l-.1-.1H43l-.2-.12h-.1l-.17-.06a6.38 6.38 0 0 0-6 2.43h0l-.08.16c-.03.06 0 .07 0 .1-.03.07-.05.144-.06.22a.13.13 0 0 0 0 .06.71.71 0 0 0 0 .14 1.46 1.46 0 0 0 .11.65 1.42 1.42 0 0 0 .36.53c.6.67 2.27.7 4 0s2.92-1.87 2.9-2.77a1.4 1.4 0 0 0-.22-.71z" class="B"/><path d="M41.92 16.6c.23.57-.56 1.42-1.75 1.9s-2.34.4-2.57-.16c-.14-.35.1-.8.6-1.22-.42.6-.08 1.15.74 1.15a4.47 4.47 0 0 0 2.4-1c.37-.38.53-.72.22-1a.67.67 0 0 1 .36.33h0z" class="C F"/><path d="M33.2 36.1a16.4 16.4 0 0 1-6.76 7c.88-1.46-.53-4.66-5.12-9.5-1.1-1.14-3.33-4-6-6.6l-1.14-1.1 1.76-1.82a42.88 42.88 0 0 0 1.15 1.11l6.5 6.13c4.94 4.43 8.2 5.68 9.62 4.8z" class="B"/><path d="M17.05 25.2a9.05 9.05 0 0 1-.82 1c-.3.307-.645.587-1 .84l-1.14-1.1 1.76-1.82 1.2 1.1z" class="C E"/><path d="M17.44 19.14a2.29 2.29 0 0 0-.86-.53.65.65 0 0 0-.21-.06h-.1c-.116-.01-.234-.01-.35 0h-.17a2.42 2.42 0 0 0-.28 0h0a9.82 9.82 0 0 0-6.92 7.15h0a2.72 2.72 0 0 0 0 .28v.62c.022.072.05.142.08.2a2.35 2.35 0 0 0 .55.84 2.32 2.32 0 0 0 .84.52c1.26.55 3.6-.47 5.58-2.52s2.9-4.42 2.32-5.67a2.38 2.38 0 0 0-.49-.84h0z" class="B"/><path d="M15.23 20.24c.67.65.1 2.33-1.26 3.74s-3 2-3.68 1.38c-.42-.4-.37-1.2.07-2.07-.22 1.08.6 1.65 1.75 1.13a6.84 6.84 0 0 0 2.73-2.88c.3-.76.3-1.34-.32-1.55a1 1 0 0 1 .71.25h0z" class="C F"/><path d="M22.72 49.43a24.7 24.7 0 0 1-3.5 9.59c.34-1.72-1.38-3.83-5.8-5.75l-5.8-2.3-1.08-.4.9-2.5 1.08.4c2.56.9 2.3.53 6 1.64 4.66 1.36 7.32.9 8.18-.68z" class="B"/><path d="M8.6 48.5a12.26 12.26 0 0 1-.39 1.28c-.145.418-.32.826-.52 1.22l-1.14-.42.9-2.5 1.14.4z" class="C E"/><path d="M6.7 44.54a1.92 1.92 0 0 0-.74-.1h-.23l-.24.08-.3.15A6 6 0 0 0 3 47.75a6.09 6.09 0 0 0-.31 3.77h0a1.54 1.54 0 0 0 .08.19.61.61 0 0 0 .05.12c.04.074.088.144.14.2l.05.06a.57.57 0 0 0 .11.11 1.74 1.74 0 0 0 .62.4 1.61 1.61 0 0 0 .71.1c1 0 2.28-1.4 3-3.35s.63-3.83-.13-4.5a1.91 1.91 0 0 0-.62-.33z" class="B"/><path d="M5.54 45.94c.65.24.77 1.52.28 2.88s-1.42 2.26-2.06 2c-.4-.14-.6-.7-.57-1.4.18.8.9.93 1.5.24a5 5 0 0 0 1-2.75c0-.6-.2-1-.67-.94a.74.74 0 0 1 .51-.02h0z" class="C F"/><path d="M17.82 68c.313 2.468.486 4.952.52 7.44-.13-1-.7-2.34-1.73-2.53-.764-.145-1.543-.202-2.32-.17H14l-.1-1.57h.25a7.83 7.83 0 0 0 2.23-.56A2.61 2.61 0 0 0 17.82 68z" class="B"/><path d="M14.5 71.08c0 .25.07.5.1.8a7.13 7.13 0 0 1 0 .79h-.58l-.1-1.57.6-.01z" class="C E"/><path d="M12 68.7a1.26 1.26 0 0 0-.55.16l-.1.06a.64.64 0 0 0-.15.13l-.07.08-.1.12a5.56 5.56 0 0 0 .39 5.62h0l.1.1c.02.026.044.05.07.07l.17.1h.05l.12.05a1.3 1.3 0 0 0 .56.09 1.31 1.31 0 0 0 .53-.16c.7-.32 1.17-1.7 1.06-3.3s-.76-2.9-1.5-3.12a1.14 1.14 0 0 0-.58-.01h0z" class="B"/><path d="M11.64 70.06c.53 0 1 .83 1.1 1.94s-.3 2-.82 2.08c-.32 0-.64-.3-.84-.82.37.5.93.37 1.14-.3a3.91 3.91 0 0 0-.18-2.24c-.2-.4-.45-.63-.77-.45a.57.57 0 0 1 .37-.2h0z" class="C F"/><g class="B"><use xlink:href="#B"/><use xlink:href="#B"/></g><use xlink:href="#B" opacity=".4" fill="#fff"/><path d="M55.1 26.23c12.6-1.23 42.08 11.94 42.92 43s-30.9 42-41.75 41.9a42.71 42.71 0 0 0 17.732-1.986c5.705-1.903 10.944-4.99 15.374-9.057a42.71 42.71 0 0 0 10.332-14.548c2.38-5.523 3.57-11.486 3.486-17.5a42.71 42.71 0 0 0-14.696-31.654A42.71 42.71 0 0 0 55.1 26.26v-.03z" class="C D"/><use xlink:href="#C" class="B"/><g class="C"><use xlink:href="#C" class="D"/><path d="M87.3 86.26c-1.36.7-3.06-1.26-2.3-4.14.6-2.28 2.32-4.06 3.7-4.05a1.82 1.82 0 0 1 1.281.586 1.82 1.82 0 0 1 .479 1.324c-.4-.9-1.4-1.2-2.54-.35a5.62 5.62 0 0 0-2.11 4.79c.12 1.14.75 1.84 1.5 1.84z" class="G"/></g><use xlink:href="#D" class="B"/><g class="C"><use xlink:href="#D" class="D"/><path d="M39.8 42.64c1.5-.27 2.6 2.07 1 4.62-1.22 2-3.36 3.25-4.68 2.85a1.82 1.82 0 0 1-1.066-.917 1.82 1.82 0 0 1-.094-1.403c.13 1 1 1.55 2.35 1.05a5.67 5.67 0 0 0 3.36-4c.24-1.14-.17-2-.87-2.2z" class="G"/></g><use xlink:href="#E" class="B"/><g class="C"><use xlink:href="#E" class="D"/><path d="M51.6 85.4c-.7-1.07.74-2.7 3.22-2.34 2 .27 3.62 1.52 3.76 2.68a1.54 1.54 0 0 1-.365 1.125 1.54 1.54 0 0 1-1.055.535c.72-.43.87-1.3 0-2.16A4.73 4.73 0 0 0 53 84c-.95.18-1.47.77-1.4 1.4z" class="G"/></g><use xlink:href="#F" class="B"/><g class="C"><use xlink:href="#F" class="D"/><path d="M77.53 61.8c-.26 1.5-2.83 1.72-4.7-.6-1.48-1.84-1.9-4.27-1.07-5.38a1.83 1.83 0 0 1 1.23-.682 1.83 1.83 0 0 1 1.35.392c-1-.2-1.8.42-1.8 1.85a5.66 5.66 0 0 0 2.61 4.53c1 .58 1.93.48 2.37-.1z" class="G"/></g><use xlink:href="#G" class="B"/><g class="C"><use xlink:href="#G" class="D"/><path d="M50.46 100c-.77-1.32 1.06-3.15 4-2.57 2.32.45 4.2 2 4.3 3.42a1.82 1.82 0 0 1-.118.708c-.086.226-.216.432-.383.607a1.82 1.82 0 0 1-1.289.565c.88-.46 1.1-1.48.18-2.56a5.65 5.65 0 0 0-4.92-1.78c-1.15.17-1.8.84-1.76 1.6z" class="G"/></g><use xlink:href="#H" class="B"/><g class="C"><use xlink:href="#H" class="D"/><path d="M57.47 51c1 .85.1 2.94-2.5 3.37-2.06.34-4.12-.4-4.62-1.5a1.62 1.62 0 0 1 .008-1.248 1.62 1.62 0 0 1 .892-.872c-.6.66-.46 1.58.64 2.18a5 5 0 0 0 4.64-.05c.87-.5 1.2-1.25.94-1.88z" class="G"/></g><use xlink:href="#I" class="B"/><g class="C"><use xlink:href="#I" class="D"/><path d="M27.77 62.25c1.34-1.63 4.6-.12 5.24 4 .5 3.23-.66 6.44-2.42 7.2a2.53 2.53 0 0 1-1.948-.026 2.53 2.53 0 0 1-1.352-1.403c1 .93 2.46.74 3.42-1a7.8 7.8 0 0 0 0-7.25c-.82-1.4-2-1.94-2.94-1.53z" class="G"/></g><use xlink:href="#J" class="B"/><g class="C"><use xlink:href="#J" class="D"/><path d="M92.94 63.36c-.52 1-2.4.58-3.2-1.5-.63-1.64-.37-3.47.47-4.07a1.37 1.37 0 0 1 1.029-.203 1.37 1.37 0 0 1 .871.584c-.64-.37-1.38-.1-1.7.9a4.2 4.2 0 0 0 .82 3.82c.58.64 1.26.78 1.7.46z" class="G"/></g><use xlink:href="#K" class="B"/><g class="C"><use xlink:href="#K" class="D"/><path d="M80.7 43.66c.32 1.5-2 2.7-4.67 1.2-2.1-1.18-3.4-3.32-3-4.68.07-.236.186-.455.34-.645a1.85 1.85 0 0 1 1.263-.672 1.85 1.85 0 0 1 .726.078c-1 .16-1.55 1.07-1 2.4a5.74 5.74 0 0 0 4.18 3.31c1.1.17 1.96-.27 2.16-1z" class="G"/></g><path d="M57.15 39.5c-2.06.42-4-.5-4.3-2s1.1-3.14 3.15-3.56 4 .5 4.3 2-1.1 3.14-3.14 3.56z" class="B"/><g class="C"><path d="M57.15 39.5c-2.06.42-4-.5-4.3-2s1.1-3.14 3.15-3.56 4 .5 4.3 2-1.1 3.14-3.14 3.56z" class="D"/><path d="M58.88 35.26c.83.54.3 2.14-1.58 2.66-1.5.4-3.05 0-3.5-.76a1.19 1.19 0 0 1-.089-.915 1.19 1.19 0 0 1 .589-.705c-.38.52-.22 1.2.64 1.55a3.67 3.67 0 0 0 3.39-.38c.6-.45.8-1.03.55-1.45z" class="G"/></g><use xlink:href="#L" class="B"/><g class="C"><use xlink:href="#L" class="D"/><path d="M34.1 89.5c0-1 1.63-1.4 3.1-.13 1.15 1 1.7 2.53 1.28 3.34a1.18 1.18 0 0 1-.711.576 1.18 1.18 0 0 1-.909-.106c.64 0 1.1-.47.94-1.38a3.69 3.69 0 0 0-2.18-2.63c-.7-.26-1.3-.1-1.5.33z" class="G"/></g><use xlink:href="#M" class="B"/><g class="C"><use xlink:href="#M" class="D"/><path d="M72.05 82.8c-.94.34-1.9-1.05-1.2-2.85.56-1.44 1.8-2.47 2.7-2.36a1.2 1.2 0 0 1 1 1.37c-.2-.62-.83-.9-1.63-.42a3.69 3.69 0 0 0-1.71 3c-.01.7.35 1.2.83 1.26z" class="G"/></g><use xlink:href="#N" class="B"/><g class="C"><use xlink:href="#N" class="D"/><path d="M42.12 67.6c.6-.8 2.16-.16 2.55 1.75.3 1.5-.18 3-1 3.44a1.19 1.19 0 0 1-.918.025 1.19 1.19 0 0 1-.662-.635c.5.42 1.17.3 1.6-.53a3.71 3.71 0 0 0-.16-3.41c-.4-.63-.97-.86-1.4-.64z" class="G"/></g><path d="M72.5 96.74c1.9-.9 4-.5 4.66.93s-.3 3.3-2.18 4.22-4 .5-4.66-.92.3-3.32 2.18-4.23z" class="B"/><g class="C"><path d="M72.5 96.74c1.9-.9 4-.5 4.66.93s-.3 3.3-2.18 4.22-4 .5-4.66-.92.3-3.32 2.18-4.23z" class="D"/><path d="M71.85 101.3c-.93-.33-.8-2 .9-3 1.34-.76 2.95-.77 3.57-.12a1.19 1.19 0 0 1 .313.862 1.19 1.19 0 0 1-.393.828c.24-.6-.08-1.2-1-1.35a3.68 3.68 0 0 0-3.2 1.2c-.47.62-.5 1.23-.18 1.58z" class="G"/></g><use xlink:href="#O" class="B"/><g class="C"><use xlink:href="#O" class="D"/><path d="M56.88 72.57c1.55.9 3.9 0 4.7-2.64s-1.44-6.18-3.85-5.42a5.25 5.25 0 0 1 2.4 4.68c-.2 2.2-1.7 3.52-3.26 3.38z" class="G"/></g><defs ><path id="B" d="M41.14 30.52a42.71 42.71 0 0 1 47.119 5.67c6.413 5.5 11.05 12.776 13.327 20.91s2.1 16.763-.537 24.79a42.71 42.71 0 0 1-37.331 29.304c-8.423.646-16.848-1.222-24.2-5.365S26.18 95.455 22.36 87.92a42.71 42.71 0 0 1 18.78-57.4h0z"/><path id="C" d="M83 80.7c1-3.05 3.7-4.9 6-4.13s3.32 3.87 2.3 6.92-3.72 4.9-6 4.13S82 83.74 83 80.7z"/><path id="D" d="M42.36 49.2c-1.84 2.64-4.94 3.65-6.93 2.27s-2.1-4.65-.27-7.3 4.94-3.65 6.93-2.27 2.1 4.64.27 7.3z"/><path id="E" d="M55.8 81.24c2.65.55 4.47 2.6 4.05 4.6s-2.9 3.16-5.53 2.62-4.46-2.6-4.05-4.6 2.9-3.16 5.53-2.62z"/><path id="F" d="M70.5 62c-1.85-2.63-1.75-5.9.23-7.3s5.1-.38 6.94 2.25 1.74 5.9-.24 7.3-5.08.34-6.93-2.25z"/><path id="G" d="M55.74 95.3c3.1.82 5.13 3.38 4.5 5.72s-3.64 3.58-6.75 2.76-5.13-3.38-4.52-5.72 3.64-3.58 6.76-2.76z"/><path id="H" d="M54.54 56.53c-2.83.3-5.3-1.2-5.52-3.34s1.9-4.1 4.74-4.38 5.3 1.2 5.52 3.34-1.9 4.1-4.74 4.38z"/><path id="I" d="M36.34 66.9c.4 4.44-2 8.3-5.3 8.6s-6.38-3-6.8-7.48 2-8.3 5.3-8.6 6.4 3.04 6.8 7.48z"/><path id="J" d="M87.9 61.87c-.72-2.3.1-4.6 1.83-5.13s3.7.88 4.42 3.18-.1 4.6-1.83 5.13-3.7-.88-4.42-3.18z"/><path id="K" d="M74.1 46.45c-2.73-1.8-3.86-4.92-2.5-7s4.67-2.28 7.4-.48 3.87 4.92 2.52 7-4.67 2.27-7.4.48z"/><path id="L" d="M38.6 88.62c1.48 1.5 1.78 3.6.66 4.7s-3.23.8-4.7-.67-1.77-3.6-.65-4.7 3.22-.8 4.7.67z"/><path id="M" d="M69.67 78.87c.9-1.9 2.77-2.9 4.2-2.23s1.87 2.75 1 4.65-2.76 2.9-4.2 2.23-1.9-2.75-1-4.65z"/><path id="N" d="M46.25 69.6c.28 2.08-.75 3.94-2.32 4.16s-3.06-1.3-3.35-3.37.75-3.94 2.32-4.16 3.1 1.3 3.35 3.37z"/><path id="O" d="M58.26 63.07c2.75-.06 5 2.48 5.1 5.66s-2.12 5.8-4.87 5.85-5-2.48-5.1-5.66 2.12-5.8 4.87-5.85z"/></defs></svg>