<svg xmlns="http://www.w3.org/2000/svg" xmlns:xlink="http://www.w3.org/1999/xlink" width="43" height="47" fill="none" xmlns:v="https://vecta.io/nano"><style><![CDATA[.B{fill:#e0e0e0}.C{fill:#f0f0f0}.D{opacity:.1}.E{fill:#000}]]></style><path d="M35.15 21.05a7 7 0 0 1-1-3.19c.28.5 1.27.68 3.05.2l3.84-1.1.42-.13.26.83-.42.14-3.77 1.32c-1.74.65-2.45 1.35-2.38 1.93z" class="C"/><path d="M41.18 17.83a2.5 2.5 0 0 1-.16-.41 3.75 3.75 0 0 1-.11-.42l.53-.17.26.83-.52.17z" class="B"/><path d="M42.5 18.5a.61.61 0 0 0 .22-.13h0c.022-.02.04-.043.05-.07v-.06a2.44 2.44 0 0 0-.76-2.39h0-.22a.59.59 0 0 0-.26 0c-.076.028-.147.07-.2.12a1.56 1.56 0 0 0-.11 1.54c.22.68.63 1.18 1 1.2a.54.54 0 0 0 .29-.2h0z" class="C"/><path d="M42.52 17.9c-.23.07-.53-.26-.68-.73s-.1-.9.13-1 .3.06.45.26c-.2-.18-.44-.06-.46.25a1.68 1.68 0 0 0 .32 1c.13.16.26.23.38.12a.34.34 0 0 1-.14.1h0z" class="B"/><path d="M32.85 15.47a7.89 7.89 0 0 1-2.23-2.5c.45.36.9.58 2.18-.44l1.84-1.47.3-.26.57.65-.3.26-1.7 1.64c-1.16 1.17-1 1.65-.68 2.12z" class="C"/><g class="B"><path d="M35.1 11.8a1.79 1.79 0 0 1-.32-.3 3.01 3.01 0 0 1-.27-.35l.42-.36.57.65-.4.36z"/><path d="M36.6 11.32c-.2.2-.7 0-1.08-.46s-.54-.94-.33-1.13.36-.08.62.07c-.32-.1-.5.15-.38.5a2.1 2.1 0 0 0 .8.88c.22.1.4.1.46-.06a.25.25 0 0 1-.09.2h0z"/></g><path d="M28.2 11.24a7.16 7.16 0 0 1-2.57-1.16c.47.13 1.08-.27 1.66-1.38a8.52 8.52 0 0 0 .57-1l.12-.28.67.3-.12.27c-.16.352-.29.717-.4 1.1-.44 1.17-.35 1.9.06 2.15z" class="C"/><path d="M28.45 8.14c-.12-.036-.236-.08-.35-.13s-.22-.1-.32-.18l.2-.42.67.3-.2.42z" class="B"/><path d="M29.62 7.7a.5.5 0 0 0 .05-.21c.004-.026.004-.054 0-.08a1.81 1.81 0 0 0-.85-.69 1.74 1.74 0 0 0-1.08-.18h0-.12a.43.43 0 0 0-.13.17.54.54 0 0 0 0 .21c0 .3.36.7.9.93s1.1.27 1.3.06a.43.43 0 0 0-.08-.21h0z" class="C"/><path d="M29.24 7.33c-.08.18-.46.2-.84 0s-.62-.46-.54-.64.22-.16.42-.14c-.23 0-.28.24-.1.44a1.58 1.58 0 0 0 .77.34c.18 0 .3 0 .3-.18a.22.22 0 0 1 0 .18h0z" class="B"/><path d="M22.7 9.37a7.14 7.14 0 0 1-3.35 0c.57-.1 1-1 1.14-2.8l.14-3.93V2.2h.87v.43l.1 3.94c.1 1.8.54 2.7 1.1 2.8z" class="C"/><path d="M21.5 2.73a2.12 2.12 0 0 1-.44 0 3.15 3.15 0 0 1-.44 0v-.55h.87v.55z" class="B"/><path d="M22.93 1.5a.67.67 0 0 0-.07-.31v-.06l-.07-.1-.06-.06a2.6 2.6 0 0 0-1.57-.44 2.66 2.66 0 0 0-1.56.42h0l-.07.06a.27.27 0 0 0-.07.08v.06a.67.67 0 0 0-.07.31.6.6 0 0 0 .06.3c.15.4.9.72 1.78.73s1.64-.3 1.8-.7a.6.6 0 0 0-.09-.29h0z" class="C"/><path d="M22.2 1.23c0 .3-.5.53-1.12.52s-1.12-.24-1.12-.53.2-.35.5-.44c-.3.2-.24.5.12.65a2.2 2.2 0 0 0 1.25 0c.23-.1.37-.22.28-.4a.34.34 0 0 1 .1.21h0z" class="B"/><path d="M16.6 9.9a11.89 11.89 0 0 1-2.91 1.28c.47-.27.68-.87.4-1.77l-.73-1.92c0-.08-.06-.14-.1-.2L14 7c.034.068.064.138.1.2l.93 1.83c.47.78 1.05 1.03 1.57.86z" class="C"/><path d="M14.15 7.27c-.118.073-.242.137-.37.2-.127.06-.257.11-.4.15l-.14-.33L14 7l.15.27z" class="B"/><path d="M14.67 6.06a.62.62 0 0 0-.14-.18h0-.13a1.87 1.87 0 0 0-1.15.17 1.91 1.91 0 0 0-.9.73h0v.06c-.003.027-.003.053 0 .08V7c-.014.073-.014.147 0 .22a.59.59 0 0 0 .13.18c.2.22.8.2 1.37 0s1-.68 1-1a.54.54 0 0 0-.18-.33h0z" class="C"/><path d="M14.1 6.1c.1.2-.17.5-.58.67s-.8.17-.88 0 0-.28.2-.42c-.14.2 0 .4.27.38a1.48 1.48 0 0 0 .81-.36c.12-.14.17-.26.07-.35a.19.19 0 0 1 .12.08h0z" class="B"/><path d="M11.35 12.82a7 7 0 0 1-2.24 2.47c.3-.5 0-1.42-1.3-2.7L4.98 9.87l-.3-.3.58-.65.32.3 3 2.55c1.37 1.14 2.32 1.4 2.78 1.05z" class="C"/><g class="B"><path d="M5.66 9.3a2.88 2.88 0 0 1-.27.34 3.07 3.07 0 0 1-.32.31l-.4-.37.58-.65.4.37z"/><path d="M5 7.62c.24.22.06.8-.4 1.3s-1 .73-1.25.5-.14-.4 0-.7c-.06.37.23.56.6.37a2.35 2.35 0 0 0 .91-1c.1-.26.1-.46-.12-.53a.36.36 0 0 1 .24.06h0z"/></g><path d="M7.76 17.6a10.92 10.92 0 0 1-1.1 3.33c.12-.6-.32-1.23-1.5-1.73l-2.57-1-.3-.1.3-.87.28.1 2.65.75c1.24.33 1.97.07 2.23-.48z" class="C"/><path d="M3 17.4c-.032.15-.072.296-.12.44s-.097.3-.16.43l-.4-.13.3-.87.4.13z" class="B"/><path d="M2.3 16.05a.72.72 0 0 0-.25 0h-.2a2.08 2.08 0 0 0-.72 1.08 2.2 2.2 0 0 0-.07 1.3h0v.14a.57.57 0 0 0 .21.13.55.55 0 0 0 .25 0c.35 0 .77-.5 1-1.18s.18-1.32-.1-1.54a.57.57 0 0 0-.13.07h0z" class="C"/><path d="M1.92 16.55c.22.07.28.5.12 1s-.46.8-.7.72-.2-.23-.2-.48c.07.27.32.3.53.07a1.79 1.79 0 0 0 .3-1c0-.2-.08-.33-.24-.3a.21.21 0 0 1 .19 0z" class="B"/><path d="M6.35 24a21.8 21.8 0 0 1 .26 2.55c-.06-.35-.27-.8-.62-.85-.266-.027-.534-.027-.8 0H5.1l-.06-.54h.1a2.67 2.67 0 0 0 .76-.21.89.89 0 0 0 .45-.95h0z" class="C"/><path d="M5.25 25.1a1.93 1.93 0 0 1 0 .27 2.65 2.65 0 0 1 0 .27h-.2L5 25.1h.26z" class="B"/><path d="M4.37 24.3a.6.6 0 0 0-.19.06h0s0 0-.05 0 0 0 0 0a1.9 1.9 0 0 0 .19 1.93h.06a.44.44 0 0 0 .2 0 .35.35 0 0 0 .18-.06c.24-.1.4-.6.33-1.14s-.3-1-.55-1.06a.4.4 0 0 0-.17.27z" class="C"/><path d="M4.26 24.77c.18 0 .36.27.4.65s-.07.7-.26.73-.22-.1-.3-.28c.13.17.32.12.38-.1a1.28 1.28 0 0 0-.08-.77c-.08-.14-.16-.2-.27-.15a.19.19 0 0 1 .13-.07z" class="B"/><path d="M7.6 29.8a8 8 0 0 1 1.71 2.87c-.37-.44-.75-.73-2.17 0l-2 1.06-.33.2-.45-.75.33-.2L6.6 31.7c1.3-.9 1.2-1.38 1-1.92z" class="C"/><path d="M4.8 32.9c.094.113.177.233.25.36s.14.256.2.4l-.47.28-.45-.75.47-.28z" class="B"/><path d="M3.1 32.36a.88.88 0 0 0-.22.21v.06a1 1 0 0 0 0 .1v.08a3 3 0 0 0 1.53 2.56h.33a.61.61 0 0 0 .28-.09.7.7 0 0 0 .22-.2c.26-.32.15-1.08-.3-1.8S3.9 32.1 3.5 32.16a.71.71 0 0 0-.4.2h0z" class="C"/><path d="M3.24 33.1c.24-.14.68.15 1 .65s.34 1 .1 1.18-.38 0-.6-.2c.3.15.53 0 .47-.4a2.06 2.06 0 0 0-.62-1c-.2-.14-.36-.2-.47 0a.27.27 0 0 1 .11-.23h0z" class="B"/><path d="M11.45 34.8a7.31 7.31 0 0 1 2.3 1.62c-.43-.22-1.1 0-1.87 1a7.19 7.19 0 0 0-.73.87c-.07.08-.12.16-.18.24l-.6-.42.17-.25c.22-.317.414-.652.58-1 .65-1.02.68-1.73.33-2.06z" class="C"/><path d="M10.64 37.76A1.79 1.79 0 0 1 11 38a2.15 2.15 0 0 1 .28.23l-.27.38-.6-.42.23-.43z" class="B"/><path d="M9.4 38a.52.52 0 0 0-.09.2v.07a.2.2 0 0 0 0 .07h0v.06a1.74 1.74 0 0 0 .7.84 1.8 1.8 0 0 0 1 .38h.17a.36.36 0 0 0 .16-.14.52.52 0 0 0 .09-.2c.07-.28-.22-.74-.7-1.1s-1-.46-1.27-.3a.5.5 0 0 0-.05.11h0z" class="C"/><path d="M9.7 38.4c.12-.16.5-.1.83.14s.52.57.4.73-.24.12-.44.06c.23 0 .33-.2.18-.4a1.58 1.58 0 0 0-.69-.48c-.17 0-.3 0-.32.12a.21.21 0 0 1 .03-.16h0z" class="B"/><path d="M16.5 37.7a7.12 7.12 0 0 1 3.28.66c-.58 0-1.2.76-1.64 2.5l-.87 3.8a.97.97 0 0 1-.09.42l-.85-.17c0-.13.06-.27.08-.42l.65-3.85c.25-1.8-.06-2.73-.56-2.95z" class="C"/><path d="M16.44 44.38a2.18 2.18 0 0 1 .43.05 2.58 2.58 0 0 1 .42.12c0 .2-.07.37-.1.53l-.85-.17.1-.53z" class="B"/><path d="M14.8 45.33a.86.86 0 0 0 0 .32v.06l.05.1.15.2a2.63 2.63 0 0 0 1.45.72 2.69 2.69 0 0 0 1.62-.11h.08a.71.71 0 0 0 .09-.07.7.7 0 0 0 .13-.29.8.8 0 0 0 0-.31c-.07-.43-.74-.87-1.6-1s-1.67 0-1.9.36c-.024.01-.047.02-.07.03h0z" class="C"/><path d="M15.47 45.72c.06-.28.6-.42 1.2-.3s1.05.45 1 .74-.26.3-.56.33c.32-.12.33-.44 0-.65a2.1 2.1 0 0 0-1.23-.23c-.25 0-.4.15-.35.34a.32.32 0 0 1-.06-.23z" class="B"/><path d="M22.63 38.3a12.33 12.33 0 0 1 3.1-.7c-.52.17-.84.7-.72 1.64l.34 2v.22l-.8.2-.06-.22-.55-2c-.25-.85-.77-1.2-1.3-1.13z" class="C"/><path d="M24.52 41.3a3.26 3.26 0 0 1 .4-.11c.132-.032.265-.056.4-.07 0 .12.06.24.08.34l-.8.2c-.033-.115-.06-.232-.08-.35zm-.18 1.17c0-.2.26-.45.7-.55s.82 0 .86.2-.07.27-.26.38c.17-.18.08-.4-.2-.43a1.54 1.54 0 0 0-.87.21c-.15.1-.22.2-.13.32a.18.18 0 0 1-.066-.053c-.017-.023-.03-.05-.034-.077h0z" class="B"/><path d="M28.37 36.33a5.6 5.6 0 0 1 2.67-2c-.37.45-.07 1.6 1.22 3.5l1.68 2.58.33.43-.7.53-.33-.44-1.86-2.44c-1.45-1.77-2.48-2.4-3-2.16z" class="C"/><path d="M33.24 40.93a2.66 2.66 0 0 1 .7-.52l.33.43-.7.53-.33-.44z" class="B"/><path d="M32.78 43a.68.68 0 0 0 .26.22h.07a.2.2 0 0 0 .11 0h.16a2.79 2.79 0 0 0 1.65-.65 2.9 2.9 0 0 0 1.09-1.4.29.29 0 0 0 0-.09v-.3a.83.83 0 0 0-.14-.32.86.86 0 0 0-.25-.22c-.4-.26-1.25 0-2 .55s-1.23 1.34-1.1 1.8a.67.67 0 0 0 .14.41z" class="C"/><path d="M33.6 42.7c-.2-.25.1-.8.63-1.2s1.13-.52 1.33-.26.05.43-.14.7c.13-.36-.12-.6-.53-.48a2.3 2.3 0 0 0-1.09.83c-.14.24-.17.43 0 .54a.36.36 0 0 1-.2-.13h0z" class="B"/><path d="M32.65 32.4a8.68 8.68 0 0 1 1.71-3.06c-.2.57.26 1.38 1.65 2.27l1.85 1.1.34.2-.45.8-.34-.2c-.82-.45-.75-.3-2-.9-1.4-.72-2.4-.7-2.76-.22z" class="C"/><path d="M37.4 33.5a2.59 2.59 0 0 1 .2-.41c.075-.135.16-.265.25-.4l.36.2-.45.8-.36-.2z" class="B"/><path d="M37.82 34.93a.44.44 0 0 0 .24.07h.24a2.08 2.08 0 0 0 .91-.93 2 2 0 0 0 .31-1.26h0v-.15a.61.61 0 0 0-.19-.17.55.55 0 0 0-.24-.07c-.34-.06-.85.34-1.2 1a1.57 1.57 0 0 0-.2 1.53.6.6 0 0 0 .13-.02h0z" class="C"/><path d="M38.3 34.52c-.2-.12-.18-.56.06-1s.6-.7.8-.57.17.26.12.5c0-.28-.26-.37-.5-.17a1.72 1.72 0 0 0-.48.88c0 .2 0 .34.17.36a.27.27 0 0 1-.18-.01h0z" class="B"/><path d="M35.33 26.38a22.5 22.5 0 0 1 .23-2.55c0 .35.1.83.45 1 .252.095.513.158.78.2h.08l-.05.54h-.08a2.36 2.36 0 0 0-.79.07.88.88 0 0 0-.62.75z" class="C"/><path d="M36.62 25.5v-.54h.2l-.05.54h-.15z" class="B"/><path d="M37.34 26.44a.44.44 0 0 0 .2 0h.06a1.67 1.67 0 0 0 .35-.94 1.6 1.6 0 0 0-.18-1h0a.42.42 0 0 0-.19-.06.4.4 0 0 0-.19 0c-.26.07-.5.5-.54 1.06s.1 1 .34 1.15a.35.35 0 0 0 .15-.21z" class="C"/><path d="M37.54 26c-.18 0-.3-.33-.26-.72s.2-.67.4-.65.2.13.24.32c-.1-.2-.3-.18-.4 0a1.32 1.32 0 0 0-.07.77c.05.15.12.24.24.2a.18.18 0 0 1-.14.08h0z" class="B"/><use xlink:href="#B" class="C"/><use xlink:href="#B" fill="#f5f5f5"/><path d="M20.4 38.48c-4.34-.27-13.6-6.36-12.2-16.93S21 9 24.66 9.63A14.67 14.67 0 0 0 6.427 21.672 14.67 14.67 0 0 0 20.39 38.48h0zm-6.48-20a1.57 1.57 0 0 1-2.68-.84A1.57 1.57 0 0 1 13.52 16a1.81 1.81 0 0 1 .4 2.48z" class="B"/><path d="M12.77 16.35c.5-.16 1 .6.55 1.53-.33.74-1 1.25-1.48 1.17a.62.62 0 0 1-.401-.267.62.62 0 0 1-.089-.473c.1.33.4.48.85.26a2 2 0 0 0 1-1.51c-.01-.4-.2-.67-.43-.7z" class="D E"/><path d="M26 31.4a1.57 1.57 0 0 1 1.651.054 1.57 1.57 0 0 1 .689 1.501 1.57 1.57 0 0 1-1.036 1.287 1.57 1.57 0 0 1-1.614-.352 1.8 1.8 0 0 1 .31-2.49h0z" class="B"/><path d="M26.5 33.76c-.53 0-.77-.85-.1-1.63a1.75 1.75 0 0 1 1.75-.71.63.63 0 0 1 .311.369.63.63 0 0 1-.041.481c0-.34-.26-.58-.74-.48A1.92 1.92 0 0 0 26.3 33c-.13.34-.04.65.2.76z" class="D E"/><path d="M23.17 19.78A1.52 1.52 0 0 1 22.05 18a1.76 1.76 0 0 1 1.334-1.571 1.76 1.76 0 0 1 1.91.772 1.76 1.76 0 0 1-.131 2.056 1.76 1.76 0 0 1-1.993.523h0z" class="B"/><path d="M24.83 18.6c.18.4-.4.87-1.22.6-.65-.2-1.14-.7-1.13-1.1a.53.53 0 0 1 .183-.363.53.53 0 0 1 .387-.127c-.26.1-.36.4-.13.73a1.64 1.64 0 0 0 1.36.67c.33-.02.54-.2.55-.4z" class="D E"/><path d="M17.13 25.52a1.57 1.57 0 0 1 .381 1.355 1.57 1.57 0 0 1-.858 1.116 1.57 1.57 0 0 1-1.408-.021 1.57 1.57 0 0 1-.825-1.14 1.57 1.57 0 0 1-.381-1.355 1.57 1.57 0 0 1 .858-1.116 1.57 1.57 0 0 1 1.408.021 1.57 1.57 0 0 1 .825 1.14h0z" class="B"/><path d="M14.74 25.18c.17-.5 1.06-.42 1.56.47a1.73 1.73 0 0 1 .07 1.88.64.64 0 0 1-.89 0c.3.12.63-.05.7-.53a1.94 1.94 0 0 0-.64-1.68c-.3-.32-.63-.32-.8-.14z" class="D E"/><path d="M24 15a1.8 1.8 0 0 1-1.21-2.19 2.08 2.08 0 0 1 2.442-.574 2.08 2.08 0 0 1 1.218 2.194A1.83 1.83 0 0 1 24 15h0z" class="B"/><path d="M26 13.73c.2.48-.53 1-1.5.65-.76-.28-1.32-.92-1.27-1.4a.63.63 0 0 1 .243-.417.63.63 0 0 1 .467-.123c-.32.1-.46.44-.2.86a2 2 0 0 0 1.57.88c.42-.01.68-.18.68-.45z" class="D E"/><path d="M22.25 28.24c1 0 1.73.7 1.7 1.43a1.61 1.61 0 0 1-1.85 1.23c-1-.06-1.73-.7-1.7-1.44s.87-1.28 1.85-1.22z" class="B"/><path d="M21 29.94c-.3-.35.13-1 1-1 .7 0 1.37.36 1.48.77a.57.57 0 0 1-.42.67c.23-.2.24-.5-.1-.78a1.76 1.76 0 0 0-1.57-.24c-.34.12-.5.36-.4.58z" class="D E"/><path d="M29 25.72c.1-1.53 1.12-2.7 2.27-2.63s2 1.38 1.9 2.9-1.12 2.7-2.27 2.63-2-1.38-1.9-2.9z" class="B"/><path d="M31.64 27.77c-.54.48-1.56-.22-1.56-1.63 0-1.13.58-2.15 1.22-2.32a.87.87 0 0 1 1 .67c-.3-.37-.8-.4-1.2.15a2.67 2.67 0 0 0-.4 2.46c.24.5.6.75.95.67z" class="D E"/><path d="M11.23 24.6a1.36 1.36 0 0 1-.91 1.64c-.6.1-1.2-.5-1.32-1.32a1.34 1.34 0 0 1 .9-1.64c.6-.1 1.2.5 1.33 1.32z" class="B"/><path d="M9.6 23.8c.23-.32.85-.07 1 .68a1.29 1.29 0 0 1-.38 1.36.46.46 0 0 1-.361.012.46.46 0 0 1-.259-.253c.2.17.46.12.62-.2a1.43 1.43 0 0 0-.07-1.34c-.15-.25-.38-.34-.55-.25z" class="D E"/><path d="M15.06 30.58a1.6 1.6 0 0 1 .888 1.136 1.6 1.6 0 0 1-.387 1.389 1.6 1.6 0 0 1-1.347.514A1.6 1.6 0 0 1 13 32.84a1.59 1.59 0 0 1-.842-1.134 1.59 1.59 0 0 1 .392-1.357 1.59 1.59 0 0 1 1.317-.509 1.59 1.59 0 0 1 1.203.74h-.01z" class="B"/><path d="M12.67 31.16c0-.53.84-.8 1.65-.14a1.75 1.75 0 0 1 .77 1.75.64.64 0 0 1-.37.324.64.64 0 0 1-.49-.034c.35 0 .6-.28.47-.76a2 2 0 0 0-1.23-1.3c-.38-.17-.7-.07-.8.16z" class="D E"/><path d="M20.43 33.87c.72 0 1.32.38 1.34.92s-.54 1-1.26 1a1.18 1.18 0 0 1-1.34-.93c-.03-.5.54-.96 1.26-1z" class="B"/><path d="M19.6 35.2c-.26-.23 0-.74.68-.8a1.11 1.11 0 0 1 1.14.45.41.41 0 0 1-.25.52c.15-.16.14-.4-.14-.56a1.25 1.25 0 0 0-1.17-.06c-.23.12-.32.3-.26.46z" class="D E"/><path d="M29.42 18.23a1 1 0 0 1-.297-.79 1 1 0 0 1 .413-.736 1 1 0 0 1 .829-.157 1 1 0 0 1 .654.533 1 1 0 0 1 .297.79 1 1 0 0 1-.413.736 1 1 0 0 1-.829.157 1 1 0 0 1-.654-.534z" class="B"/><path d="M31 18.17c-.06.34-.63.4-1.06-.12a1.14 1.14 0 0 1-.25-1.2.41.41 0 0 1 .275-.156.41.41 0 0 1 .305.086c-.22-.05-.4.1-.4.4a1.25 1.25 0 0 0 .6 1c.22.14.43.12.53-.02z" class="D E"/><path d="M18.34 19.83a1 1 0 0 1-1.03.116 1 1 0 0 1-.579-.859 1 1 0 0 1 .493-.911 1 1 0 0 1 1.036.015 1.18 1.18 0 0 1 .08 1.64h0z" class="B"/><path d="M17.75 18.36c.34-.06.6.46.25 1s-.75.73-1 .65a.42.42 0 0 1-.27-.52c0 .22.23.34.53.23a1.24 1.24 0 0 0 .74-.91.39.39 0 0 0-.25-.45h0z" class="D E"/><path d="M25.78 24.26c0-.72.47-1.3 1-1.28s1 .6.95 1.33a1.17 1.17 0 0 1-1 1.28c-.54-.01-.97-.6-.95-1.33z" class="B"/><path d="M27.07 25.17c-.25.23-.74-.07-.77-.74a1.15 1.15 0 0 1 .52-1.11.42.42 0 0 1 .51.29c-.15-.17-.38-.16-.57.1a1.24 1.24 0 0 0-.13 1.16c.1.24.28.35.44.3z" class="D E"/><path d="M18.37 13.6a1.18 1.18 0 0 1-1.53-.57c-.16-.52.28-1.1 1-1.32a1.19 1.19 0 0 1 1.53.57 1.19 1.19 0 0 1-1 1.32h0z" class="B"/><path d="M18.84 12.1c.3.16.16.73-.47 1a1.13 1.13 0 0 1-1.22-.16.41.41 0 0 1-.054-.312.41.41 0 0 1 .184-.258c-.12.2 0 .42.26.52a1.28 1.28 0 0 0 1.15-.24c.2-.2.24-.4.15-.55z" class="D E"/><path d="M21.35 25.8a2 2 0 0 1-1.859-1.317 2 2 0 0 1 .58-2.203 2 2 0 0 1 2.266-.231A2 2 0 0 1 23.35 24.1a1.85 1.85 0 0 1-.643 1.273 1.85 1.85 0 0 1-1.357.437h0z" class="B"/><path d="M22.34 22.67a1.18 1.18 0 0 0-1.029-.112 1.18 1.18 0 0 0-.721.742c-.4.84.15 2.18 1 2.05a1.5 1.5 0 0 1-.56-1.72c.02-.15.07-.294.15-.425a1.13 1.13 0 0 1 .711-.521 1.13 1.13 0 0 1 .45-.014z" class="D E"/><defs ><path id="B" d="M25.36 37.8a14.68 14.68 0 0 1-15.675-4.516 14.68 14.68 0 0 1-1.825-16.21 14.68 14.68 0 0 1 14.279-7.888A14.68 14.68 0 0 1 34.89 19.36a14.67 14.67 0 0 1-.943 11.195A14.67 14.67 0 0 1 25.36 37.8h0z"/></defs></svg>