<svg xmlns="http://www.w3.org/2000/svg" xmlns:xlink="http://www.w3.org/1999/xlink" width="67" height="72" fill="none" xmlns:v="https://vecta.io/nano"><style><![CDATA[.B{fill:#407bff}.C{fill:#000}.D{opacity:.1}.E{opacity:.2}.F{opacity:.3}.G{opacity:.25}]]></style><path d="M53.88 24.2a10.74 10.74 0 0 1-3-4.23c.64.62 2.2.4 4.6-1.14l5.16-3.46.56-.4.78 1.1-.55.4-4.95 3.74c-2.25 1.78-2.98 3.16-2.6 3.98z" class="B"/><path d="M61.28 16.57a4.56 4.56 0 0 1-.43-.52c-.133-.183-.25-.377-.35-.58l.7-.5.78 1.1-.7.5z" class="C E"/><path d="M63.56 17a.89.89 0 0 0 .26-.29.2.2 0 0 0 0-.08h0v-.3a3.22 3.22 0 0 0-.7-1.9 3.29 3.29 0 0 0-1.56-1.28h0-.44a.87.87 0 0 0-.36.15.89.89 0 0 0-.26.29c-.3.44-.08 1.42.57 2.33s1.5 1.44 2 1.3a1 1 0 0 0 .49-.21h0z" class="B"/><path d="M63.3 16c-.3.2-.9-.12-1.35-.75s-.56-1.3-.27-1.52.5 0 .8.18c-.4-.16-.68.12-.57.6a2.69 2.69 0 0 0 .92 1.26c.27.16.5.2.62 0a.36.36 0 0 1-.15.24h0z" class="C F"/><path d="M47.83 17a12.15 12.15 0 0 1-4.48-2.64c.84.32 1.6.43 3-1.7l2-3 .32-.52 1.16.7-.3.52-1.72 3.23c-1.13 2.26-.66 2.86.03 3.4z" class="B"/><path d="M49.44 10.55a4.3 4.3 0 0 1-.61-.3 4 4 0 0 1-.56-.39l.44-.73 1.16.7-.43.73z" class="C E"/><path d="M52.16 10a1 1 0 0 0 .15-.44v-.1a.44.44 0 0 0 0-.16.19.19 0 0 0 0-.08.94.94 0 0 0 0-.13 4.54 4.54 0 0 0-4-2.35h-.2l-.15.06-.08.06a1 1 0 0 0-.32.34 1 1 0 0 0-.15.43c-.1.63.6 1.58 1.74 2.25s2.32.84 2.8.44a1.13 1.13 0 0 0 .21-.31z" class="B"/><path d="M51.42 9.1c-.22.37-1 .3-1.82-.16s-1.24-1.14-1-1.52c.13-.23.5-.3.94-.2-.5 0-.68.45-.32.9a3.08 3.08 0 0 0 1.6.92c.37.05.63 0 .66-.3a.46.46 0 0 1-.06.35h0z" class="C F"/><path d="M38.93 13a11 11 0 0 1-4.35-.5c.75 0 1.46-.9 1.8-2.83a13.39 13.39 0 0 0 .35-1.76c0-.17 0-.32.06-.47l1.13.13v.47c-.066.594-.083 1.193-.05 1.8-.15 1.94.33 2.95 1.06 3.17z" class="B"/><path d="M37.84 8.26a3.71 3.71 0 0 1-.57 0 3.09 3.09 0 0 1-.56-.11c0-.25 0-.5.08-.7l1.13.13-.08.7z" class="C E"/><path d="M39.37 7.05a.93.93 0 0 0 0-.33c.003-.023.003-.047 0-.07a.3.3 0 0 0-.06-.11h0l-.06-.07a2.76 2.76 0 0 0-1.58-.63 2.81 2.81 0 0 0-1.68.25h0l-.07.05-.08.1v.06a.64.64 0 0 0-.11.31.69.69 0 0 0 0 .32c.1.44.85.85 1.78 1s1.74-.12 1.95-.53a.76.76 0 0 0-.09-.34h0z" class="B"/><path d="M38.63 6.7c0 .3-.6.5-1.23.42s-1.14-.4-1.1-.7.25-.34.56-.4c-.32.16-.3.5.06.7a2.24 2.24 0 0 0 1.3.13c.26-.07.4-.2.35-.4a.37.37 0 0 1 .07.24h0z" class="C F"/><path d="M29.92 12.8A10.88 10.88 0 0 1 25 14.37c.8-.42 1.05-1.94.35-4.68l-1.67-5.9-.2-.64 1.3-.4.2.64 2 5.8C28 11.82 29 12.92 29.92 12.8z" class="B"/><g class="C"><path d="M25 3.56a3.6 3.6 0 0 1-.63.25 6.29 6.29 0 0 1-.66.16l-.26-.8 1.3-.4.26.8z" class="E"/><path d="M25.3 1c.14.44-.5 1-1.4 1.32s-1.77.16-1.9-.27c-.08-.27.13-.6.52-.88-.35.42-.13.86.5.9a3.33 3.33 0 0 0 1.84-.6c.3-.26.44-.5.23-.74a.52.52 0 0 1 .24.27h0z" class="F"/></g><path d="M21.12 16.5c-1.083 1.25-2.327 2.35-3.7 3.27.57-.62.6-1.6-.27-2.8a28.16 28.16 0 0 0-2-2.51l-.23-.26 1-.85.24.26a35.5 35.5 0 0 0 2.24 2.28c1.06 1 2.03 1.1 2.72.6z" class="B"/><path d="M16.27 13.77l-.46.45a4.44 4.44 0 0 1-.51.4l-.36-.4 1-.85.33.4z" class="C E"/><path d="M16.45 11.73a.94.94 0 0 0-.28-.21h-.36a2.92 2.92 0 0 0-1.62.79 3 3 0 0 0-1 1.51h0a.38.38 0 0 1 0 .1v.06a.49.49 0 0 0 0 .12h0c.005.027.005.053 0 .08a1.05 1.05 0 0 0 .17.31.9.9 0 0 0 .28.2c.42.23 1.27-.06 2-.72s1.14-1.46 1-1.9a.9.9 0 0 0-.19-.33h0z" class="B"/><path d="M15.65 12.06c.22.24 0 .8-.54 1.26s-1.1.62-1.32.38-.1-.43.08-.72c-.1.37.17.6.58.44a2.42 2.42 0 0 0 1-.93c.12-.25.14-.45-.07-.54a.34.34 0 0 1 .27.11z" class="C F"/><path d="M14.76 23.3A11 11 0 0 1 12.6 28c.22-.87-.73-2.08-3.22-3.38l-5.46-2.7-.6-.28.57-1.23.6.28 5.6 2.36c2.6 1.06 4.14.94 4.66.25z" class="B"/><path d="M4.65 20.8a4.59 4.59 0 0 1-.24.64c-.09.21-.196.4-.32.6l-.78-.36.57-1.23.77.35z" class="C E"/><path d="M3.77 17.68a1.39 1.39 0 0 0-.52-.11H2.8a.42.42 0 0 0-.14.06h0a5.21 5.21 0 0 0-2.21 4.83h0v.23l.1.17.07.1a1.2 1.2 0 0 0 .43.33 1.3 1.3 0 0 0 .51.11c.73 0 1.73-.88 2.37-2.26s.67-2.75.15-3.27a1.23 1.23 0 0 0-.31-.18z" class="B"/><path d="M2.86 18.64c.45.2.47 1.15 0 2.1S1.7 22.3 1.25 22.1c-.28-.12-.4-.53-.34-1 .1.58.6.72 1.1.26a3.7 3.7 0 0 0 .86-1.94c0-.43-.1-.73-.43-.73a.5.5 0 0 1 .43-.04z" class="C F"/><path d="M11.7 32.1a16.89 16.89 0 0 1-.06 5.45c-.1-.93-1.05-1.68-3-1.86l-4.27-.23H3.9v-1.42h.47l4.28-.15c1.97-.14 2.93-.9 3.06-1.8z" class="B"/><path d="M4.55 34v.7c-.001.24-.018.48-.05.72h-.65V34h.7z" class="C E"/><path d="M2.88 32.4a1 1 0 0 0-.38.08h-.08l-.1.08h-.05l-.08.08a3.33 3.33 0 0 0-.55 2 3.26 3.26 0 0 0 .52 2h0l.07.08h.05l.1.08h.08a.92.92 0 0 0 .38.09 1 1 0 0 0 .38-.08c.5-.18.9-1.1.9-2.22s-.37-2-.87-2.23a.79.79 0 0 0-.38.04h0z" class="B"/><path d="M2.55 33.3c.37 0 .66.63.65 1.4s-.3 1.4-.67 1.4-.43-.24-.54-.6c.23.37.62.3.8-.15a2.71 2.71 0 0 0 0-1.55c-.12-.3-.28-.46-.5-.36a.41.41 0 0 1 .27-.12h0z" class="C F"/><path d="M12.65 42.2c.6 1.188 1.127 2.4 1.58 3.66-.24-.5-.76-1.06-1.3-1a6.32 6.32 0 0 0-1.2.32l-.12.06-.34-.78h.12a3.92 3.92 0 0 0 1-.68 1.4 1.4 0 0 0 .27-1.58h0z" class="B"/><g class="C"><path d="M11.55 44.37a4.58 4.58 0 0 1 .18.38c.057.127.107.257.15.4l-.28.13-.34-.78.3-.12z" class="E"/><path d="M9.92 44.36c.26-.1.66.24.9.8s.2 1.07 0 1.2-.37 0-.57-.26c.28.18.54 0 .52-.36a2.08 2.08 0 0 0-.49-1.1c-.17-.17-.34-.24-.46-.1a.28.28 0 0 1 .1-.17z" class="F"/></g><path d="M17.26 50.22a12.34 12.34 0 0 1 3.89 3.43c-.76-.47-1.47-.73-3.22 1l-2.5 2.54-.4.44-1-.9.4-.45 2.24-2.77c1.5-1.93 1.16-2.6.6-3.3z" class="B"/><path d="M14.58 56.13a3.85 3.85 0 0 1 .54.41 4.23 4.23 0 0 1 .47.48l-.56.64-1-.9.55-.64z" class="C E"/><path d="M11.8 56.16a1.3 1.3 0 0 0-.23.41v.48a3.92 3.92 0 0 0 1.32 2 3.84 3.84 0 0 0 2.15 1.06h.47a1.1 1.1 0 0 0 .38-.27 1 1 0 0 0 .22-.4c.23-.6-.3-1.66-1.28-2.54s-2.1-1.26-2.68-1a1 1 0 0 0-.35.26h0z" class="B"/><path d="M12.36 57.17c.28-.33 1.07-.1 1.76.5s1 1.36.7 1.68-.54.2-1 0c.5.08.75-.3.5-.83a3.26 3.26 0 0 0-1.39-1.21c-.36-.12-.63-.1-.72.18a.46.46 0 0 1 .15-.32h0z" class="C F"/><path d="M25.33 55.8a11.38 11.38 0 0 1 4.18 1.31c-.75-.1-1.6.6-2.3 2.4-.264.526-.488 1.07-.67 1.63-.06.16-.1.3-.14.44l-1.1-.34c0-.14.1-.28.13-.44a12.44 12.44 0 0 0 .39-1.73c.46-1.87.16-2.94-.5-3.27z" class="B"/><path d="M25.53 60.57c.2.025.378.07.56.13a3.65 3.65 0 0 1 .53.21l-.2.68-1.1-.34.2-.68z" class="C E"/><path d="M23.8 61.47a.62.62 0 0 0 0 .33c-.005.023-.005.047 0 .07h0c-.004.037-.004.074 0 .1v.08a2.75 2.75 0 0 0 1.44.92 2.72 2.72 0 0 0 1.7.07h.14l.1-.06h.05a.8.8 0 0 0 .19-.61c0-.45-.67-1-1.57-1.28a2.06 2.06 0 0 0-2 .15c-.024.07-.038.145-.04.22h0z" class="B"/><path d="M24.46 62c.1-.3.67-.38 1.3-.18s1.05.6.95.88-.3.3-.62.3c.35-.1.4-.43.08-.7a2.29 2.29 0 0 0-1.26-.38c-.27 0-.44.1-.4.32a.34.34 0 0 1-.03-.24h0z" class="C F"/><path d="M34.18 57.7a11 11 0 0 1 5.16-.59c-.86.26-1.4 1.7-1.24 4.5l.52 6c0 .24 0 .46.07.66l-1.34.16c0-.2 0-.43-.08-.67l-.87-6c-.47-2.74-1.32-4-2.22-4.05z" class="B"/><path d="M37.25 67.6c.22-.057.444-.097.67-.12a4 4 0 0 1 .68 0 3.73 3.73 0 0 0 .09.84l-1.34.16-.1-.88z" class="C E"/><path d="M35.3 69.8a1.05 1.05 0 0 0 .16.46.24.24 0 0 0 .06.09l.12.12.07.06.1.08a4.78 4.78 0 0 0 4.83-.56h0l.1-.1.05-.07c.037-.045.067-.096.1-.15v-.1a1.14 1.14 0 0 0 0-.49 1.2 1.2 0 0 0-.16-.46c-.3-.6-1.5-.94-2.88-.78s-2.48.77-2.64 1.42a1.27 1.27 0 0 0 .1.48h0z" class="B"/><path d="M36.47 70.07c-.06-.46.67-.92 1.63-1s1.77.18 1.82.63c0 .28-.24.56-.67.76.42-.34.28-.82-.3-1a3.34 3.34 0 0 0-1.93.24c-.34.2-.52.4-.36.68a.46.46 0 0 1-.18-.31h0z" class="C F"/><path d="M43.54 55.7c1.306-1.017 2.738-1.86 4.26-2.5-.68.5-.9 1.45-.3 2.78l1.46 2.8.17.3-1.1.65-.18-.3-1.75-2.64c-.86-1.17-1.8-1.44-2.57-1.1z" class="B"/><path d="M47.76 59.24l.53-.36.58-.3.27.48-1.1.65c-.04-.14-.18-.3-.28-.47z" class="C E"/><path d="M47.2 61.2a1 1 0 0 0 .24.26h.34a2.84 2.84 0 0 0 1.74-.47 3 3 0 0 0 1.25-1.29.16.16 0 0 0 0-.09c.004-.02.004-.04 0-.06a.49.49 0 0 0 0-.12v-.1a.81.81 0 0 0-.11-.33.83.83 0 0 0-.23-.26c-.38-.3-1.26-.17-2.12.33s-1.4 1.22-1.3 1.7a1 1 0 0 0 .2.45z" class="B"/><path d="M48 61c-.16-.28.18-.8.77-1.14s1.2-.4 1.37-.12 0 .44-.22.7c.18-.34 0-.6-.48-.54a2.38 2.38 0 0 0-1.19.71c-.16.23-.22.43 0 .55A.33.33 0 0 1 48 61h0z" class="C F"/><path d="M51.1 50.05a8.76 8.76 0 0 1 3-4.24c-.34.84.66 2.42 3.46 4.6l3.7 3 .7.5-.78 1.1-.7-.5-3.92-2.72c-2.97-1.93-4.8-2.35-5.47-1.75z" class="B"/><path d="M60.5 54.53a3.59 3.59 0 0 1 .35-.58 4.56 4.56 0 0 1 .43-.52l.7.5-.78 1.1-.7-.5z" class="C E"/><path d="M60.77 57.76a1.18 1.18 0 0 0 .49.21h.17c.063.005.127.005.2 0h.24a4.44 4.44 0 0 0 2.13-1.75 4.36 4.36 0 0 0 .95-2.59h0v-.24c-.01-.06-.028-.122-.05-.18v-.05c-.013-.035-.03-.07-.05-.1a1.37 1.37 0 0 0-.36-.4 1.2 1.2 0 0 0-.48-.21c-.7-.2-1.87.53-2.75 1.77s-1.2 2.57-.78 3.18a1.33 1.33 0 0 0 .3.36z" class="B"/><path d="M61.85 57c-.4-.3-.25-1.22.36-2.08s1.44-1.3 1.84-1c.25.18.3.6.13 1.1 0-.6-.46-.82-1-.46a3.72 3.72 0 0 0-1.21 1.74c-.1.43-.05.73.3.8a.55.55 0 0 1-.41-.1h0z" class="C F"/><path d="M55.57 42.18a13.19 13.19 0 0 1 1.08-5.35c0 .94 1 1.92 3.52 2.58l3.25.75.6.13-.28 1.4-.6-.12c-1.43-.28-1.25-.1-3.33-.4-2.54-.35-3.9.13-4.24 1z" class="B"/><path d="M63.1 41.55c0-.22.06-.46.1-.7a5.76 5.76 0 0 1 .18-.69l.64.13-.28 1.4-.64-.13z" class="C E"/><path d="M64.42 43.5a1.07 1.07 0 0 0 .4 0h.08a.34.34 0 0 0 .12-.06h.06l.08-.07a3.88 3.88 0 0 0 .77-3.82l-.06-.1v-.06l-.1-.1a.18.18 0 0 1-.07 0 1.17 1.17 0 0 0-.36-.16.86.86 0 0 0-.39 0c-.53.08-1.1.9-1.3 2s0 2.08.43 2.36a1 1 0 0 0 .34 0z" class="B"/><path d="M64.92 42.65c-.36-.07-.53-.74-.37-1.5s.56-1.3.92-1.24.37.32.42.7c-.16-.4-.56-.4-.82 0a2.65 2.65 0 0 0-.29 1.53c.06.3.18.5.43.44a.4.4 0 0 1-.29.06h0z" class="C F"/><path d="M56.7 32c-.365-1.28-.656-2.578-.87-3.9.15.53.55 1.18 1.1 1.2a5.33 5.33 0 0 0 1.24-.1h.13l.18.82h-.12a3.82 3.82 0 0 0-1.14.47 1.4 1.4 0 0 0-.53 1.5h0z" class="B"/><path d="M58.18 30.1c0-.13-.08-.27-.1-.4l-.07-.42.3-.06.18.82-.3.07z" class="C E"/><path d="M59.7 31.14A.7.7 0 0 0 60 31h0l.07-.08c-.004-.027-.004-.053 0-.08h0a3 3 0 0 0-.66-2.94h0-.23a.81.81 0 0 0-.31 0 .84.84 0 0 0-.27.13c-.34.22-.48 1-.3 1.83s.63 1.47 1 1.53a.61.61 0 0 0 .38-.25h0z" class="B"/><path d="M59.78 30.4c-.28.06-.6-.36-.74-.94s0-1.1.27-1.16.36.1.5.36c-.23-.23-.52-.12-.58.26a2 2 0 0 0 .28 1.17c.14.2.3.3.44.18a.28.28 0 0 1-.077.084c-.03.022-.066.038-.103.046h0z" class="C F"/><g class="B"><use xlink:href="#B"/><use xlink:href="#B"/></g><use xlink:href="#B" opacity=".4" fill="#fff"/><path d="M40.3 57c-6.56 1.65-23.17-3-26.1-19.28s13-24.64 18.72-25.46a22.81 22.81 0 0 0-16.567 8.484 22.81 22.81 0 0 0-4.731 18.002 22.81 22.81 0 0 0 10.255 15.533A22.81 22.81 0 0 0 40.31 57h0z" class="C D"/><use xlink:href="#C" class="B"/><g class="C"><use xlink:href="#C" class="D"/><path d="M18.53 27.86c.66-.47 1.7.42 1.54 2-.14 1.25-.9 2.32-1.63 2.43a1 1 0 0 1-1.08-.87c.28.45.84.53 1.37 0a3 3 0 0 0 .73-2.7c-.16-.6-.55-.9-.93-.86z" class="G"/></g><use xlink:href="#D" class="B"/><g class="C"><use xlink:href="#D" class="D"/><path d="M47.1 47.12c-.77.27-1.53-.9-.92-2.35.48-1.17 1.52-2 2.25-1.88a1 1 0 0 1 .79 1.13c-.14-.5-.66-.74-1.32-.37a3 3 0 0 0-1.46 2.39c-.01.6.27 1.03.66 1.08z" class="G"/></g><use xlink:href="#E" class="B"/><g class="C"><use xlink:href="#E" class="D"/><path d="M37.45 25.48c.46.5-.18 1.48-1.5 1.5-1.06 0-2-.5-2.2-1.1a.82.82 0 0 1 .095-.628.82.82 0 0 1 .515-.372c-.34.28-.35.75.16 1.14a2.52 2.52 0 0 0 2.32.34c.48-.18.7-.54.62-.86z" class="G"/></g><use xlink:href="#F" class="B"/><g class="C"><use xlink:href="#F" class="D"/><path d="M25.63 40c0-.8 1.36-1.13 2.53 0 .93.85 1.34 2.1 1 2.76a1 1 0 0 1-1.34.35c.53 0 .92-.36.8-1.1a3 3 0 0 0-1.74-2.19c-.58-.28-1.06-.15-1.25.2z" class="G"/></g><use xlink:href="#G" class="B"/><g class="C"><use xlink:href="#G" class="D"/><path d="M36.9 17.7c.52.63-.3 1.75-1.9 1.68-1.26-.06-2.4-.75-2.54-1.47a1 1 0 0 1 .79-1.14c-.43.32-.47.88.1 1.37a3 3 0 0 0 2.74.55c.6-.2.9-.6.8-1z" class="G"/></g><use xlink:href="#H" class="B"/><g class="C"><use xlink:href="#H" class="D"/><path d="M37.1 44.1c-.62-.37-.3-1.55 1-2a2.38 2.38 0 0 1 2.56.43.87.87 0 0 1-.31 1.19c.26-.4.12-.87-.5-1.1a2.63 2.63 0 0 0-2.44.39c-.4.36-.5.8-.3 1.1z" class="G"/></g><path d="M47 34c-.58-2.3.37-4.53 2.1-5s3.62 1.1 4.2 3.4-.38 4.53-2.12 5S47.56 36.35 47 34z" class="B"/><g class="C"><path d="M47 34c-.58-2.3.37-4.53 2.1-5s3.62 1.1 4.2 3.4-.38 4.53-2.12 5S47.56 36.35 47 34z" class="D"/><path d="M51.88 35.8c-.58 1-2.4.43-3.08-1.67-.53-1.67-.16-3.46.7-4a1.35 1.35 0 0 1 1.035-.14 1.35 1.35 0 0 1 .825.64c-.6-.4-1.36-.2-1.73.8a4.16 4.16 0 0 0 .59 3.83c.53.65 1.2.84 1.66.55z" class="G"/></g><use xlink:href="#I" class="B"/><g class="C"><use xlink:href="#I" class="D"/><path d="M17.37 40.4c.2-.58 1.22-.5 1.8.53a2 2 0 0 1 .08 2.19.73.73 0 0 1-1 0c.37.15.73 0 .82-.6a2.25 2.25 0 0 0-.74-2c-.34-.3-.76-.32-.97-.1z" class="G"/></g><use xlink:href="#J" class="B"/><g class="C"><use xlink:href="#J" class="D"/><path d="M25.4 49.84c-.3-.77.86-1.58 2.37-1 1.2.46 2.06 1.48 2 2.23a1 1 0 0 1-1.13.84c.5-.16.73-.7.34-1.35a3.1 3.1 0 0 0-2.47-1.42c-.66 0-1.07.3-1.1.7z" class="G"/></g><use xlink:href="#K" class="B"/><g class="C"><use xlink:href="#K" class="D"/><path d="M37.6 52.54c-.5-.22-.33-1.1.62-1.53a1.78 1.78 0 0 1 1.91.12.63.63 0 0 1 .122.48.63.63 0 0 1-.262.42c.16-.3 0-.65-.46-.77a2 2 0 0 0-1.76.47c-.28.27-.33.6-.17.8z" class="G"/></g><use xlink:href="#L" class="B"/><g class="C"><use xlink:href="#L" class="D"/><path d="M46.37 21.92c.08.52-.74.87-1.62.3-.7-.44-1.1-1.2-.94-1.66a.64.64 0 0 1 .82-.38c-.34 0-.55.34-.4.8a2 2 0 0 0 1.36 1.21c.4.08.7-.05.77-.3z" class="G"/></g><use xlink:href="#M" class="B"/><g class="C"><use xlink:href="#M" class="D"/><path d="M26.86 28.48c.46-.26 1.08.4.85 1.4-.18.8-.75 1.44-1.23 1.46a.63.63 0 0 1-.456-.184.63.63 0 0 1-.184-.456c.15.3.5.4.9.1a2 2 0 0 0 .67-1.7c-.06-.4-.28-.63-.54-.62z" class="G"/></g><use xlink:href="#N" class="B"/><g class="C"><use xlink:href="#N" class="D"/><path d="M43.88 34.13c-.26.47-1.13.25-1.5-.72a1.76 1.76 0 0 1 .25-1.9.63.63 0 0 1 .482-.086.63.63 0 0 1 .398.286c-.3-.18-.64-.07-.8.4a2 2 0 0 0 .35 1.78c.27.3.6.38.8.23z" class="G"/></g><use xlink:href="#O" class="B"/><g class="C"><use xlink:href="#O" class="D"/><path d="M25.5 18.7c.52.1.6 1-.23 1.63a1.76 1.76 0 0 1-1.88.35.64.64 0 0 1-.09-.9c-.08.34.14.63.63.63a2 2 0 0 0 1.6-.89c.2-.34.17-.67-.03-.82z" class="G"/></g><use xlink:href="#P" class="B"/><g class="C"><use xlink:href="#P" class="D"/><path d="M35.7 32.67c-.9-.35-2.07.33-2.3 1.77s1.26 3.15 2.47 2.56a2.82 2.82 0 0 1-1.64-2.28c-.04-.23-.036-.467.015-.696a1.76 1.76 0 0 1 .792-1.112 1.76 1.76 0 0 1 .653-.242z" class="G"/></g><defs ><path id="B" d="M47.35 53.63a22.81 22.81 0 0 1-25.335.763 22.81 22.81 0 0 1-10.399-23.115 22.81 22.81 0 0 1 17.377-18.452A22.81 22.81 0 0 1 52.69 21.82a22.81 22.81 0 0 1-5.34 31.81h0z"/><path id="C" d="M21.24 30.46c-.3 1.7-1.58 2.9-2.85 2.66s-2.06-1.78-1.77-3.47 1.58-2.88 2.85-2.66 2.07 1.78 1.77 3.47z"/><path id="D" d="M45.22 43.86c.76-1.54 2.3-2.32 3.47-1.75s1.5 2.3.72 3.83-2.3 2.32-3.47 1.75-1.5-2.28-.72-3.83z"/><path id="E" d="M35.56 28c-1.45-.08-2.57-1-2.5-2.1s1.28-1.9 2.72-1.82 2.56 1 2.5 2.1-1.27 1.9-2.7 1.83z"/><path id="F" d="M29.34 39.36c1.18 1.25 1.4 3 .45 3.87s-2.66.6-3.84-.64-1.4-3-.46-3.86 2.66-.6 3.85.63z"/><path id="G" d="M34.48 20.57c-1.7-.2-3-1.38-2.84-2.66s1.64-2.18 3.34-2 3 1.38 2.85 2.67-1.64 2.18-3.35 2z"/><path id="H" d="M38.2 41c1.47-.38 2.9.22 3.18 1.33s-.68 2.3-2.16 2.68-2.9-.2-3.18-1.32.68-2.35 2.16-2.7z"/><path id="I" d="M20.15 40.8a1.82 1.82 0 0 1-.71 1.779 1.82 1.82 0 0 1-1.909.158 1.82 1.82 0 0 1-.993-1.638 1.82 1.82 0 0 1 1.022-1.62 2.1 2.1 0 0 1 2.59 1.32h0z"/><path id="J" d="M28.67 47.84c1.58.73 2.43 2.3 1.88 3.5s-2.3 1.57-3.87.84-2.44-2.3-1.9-3.48 2.3-1.58 3.88-.85z"/><path id="K" d="M38.17 50.16a1.59 1.59 0 0 1 1.489.77 1.59 1.59 0 0 1-.028 1.676 1.59 1.59 0 0 1-1.513.72A1.59 1.59 0 0 1 36.8 52.29a1.84 1.84 0 0 1 1.37-2.13h0z"/><path id="L" d="M44.07 22.74a1.59 1.59 0 0 1-.153-1.666 1.59 1.59 0 0 1 1.423-.88 1.59 1.59 0 0 1 1.423.88 1.59 1.59 0 0 1-.153 1.666 1.83 1.83 0 0 1-2.54 0h0z"/><path id="M" d="M28.42 30.36c-.3 1.08-1.23 1.76-2 1.52a2.12 2.12 0 0 1-2.037-1.427 2.12 2.12 0 0 1 .721-2.381 2.12 2.12 0 0 1 2.487-.057 2.12 2.12 0 0 1 .83 2.345h0z"/><path id="N" d="M41.54 33.4a1.83 1.83 0 0 1 .89-2.38c.8-.24 1.72.44 2 1.52a1.59 1.59 0 0 1 .149 1.414 1.59 1.59 0 0 1-1.041.968 1.59 1.59 0 0 1-1.399-.252 1.59 1.59 0 0 1-.639-1.27h.04z"/><path id="O" d="M25.5 21.15a1.59 1.59 0 0 1-1.624-.395 1.59 1.59 0 0 1-.373-1.629 1.59 1.59 0 0 1 1.29-1.063 1.59 1.59 0 0 1 1.528.677 1.84 1.84 0 0 1-.82 2.41h0z"/><path id="P" d="M35.7 37.8a3.11 3.11 0 0 1-3.398-1.031 3.11 3.11 0 0 1-.217-3.544 3.11 3.11 0 0 1 3.247-1.438 3.11 3.11 0 0 1 2.478 2.542 2.89 2.89 0 0 1-2.11 3.47h0z"/></defs></svg>