<svg xmlns="http://www.w3.org/2000/svg" xmlns:xlink="http://www.w3.org/1999/xlink" width="100" height="103" fill="none" xmlns:v="https://vecta.io/nano"><style><![CDATA[.B{fill:#407bff}.C{fill:#000}.D{opacity:.1}.E{opacity:.2}.F{opacity:.3}.G{opacity:.25}]]></style><path d="M27.3 24.42a15.74 15.74 0 0 1-5.31 5.47c.73-1.1 0-3.27-2.87-6.35L12.75 17l-.72-.7 1.38-1.43.73.7 6.72 6.16c3.14 2.76 5.35 3.44 6.43 2.68z" class="B"/><path d="M14.3 15.75a6.37 6.37 0 0 1-.64.77 5.71 5.71 0 0 1-.75.66l-.9-.87 1.38-1.43.9.87z" class="C E"/><path d="M14.26 12.36a1.41 1.41 0 0 0-.49-.3h-.18a1.19 1.19 0 0 0-.2 0h-.27a5.63 5.63 0 0 0-4 4.11h0a.92.92 0 0 0 0 .16v.36a.56.56 0 0 0 0 .12 1.35 1.35 0 0 0 .32.48 1.22 1.22 0 0 0 .48.3c.72.32 2.07-.27 3.2-1.44s1.68-2.54 1.34-3.26a1.42 1.42 0 0 0-.21-.53h0z" class="B"/><path d="M13 13c.38.37.06 1.33-.73 2.15s-1.74 1.16-2.12.78-.2-.68 0-1.2c-.13.63.35 1 1 .66a3.92 3.92 0 0 0 1.57-1.66c.17-.43.17-.77-.18-.9A.59.59 0 0 1 13 13h0z" class="C F"/><path d="M18.54 35.06a17.66 17.66 0 0 1-2.63 7.16c.25-1.3.2-2.4-3.23-3.9L7.74 36.2l-.84-.3.68-1.86.84.3 5.13 1.63c3.6 1.04 4.34.25 5-.9z" class="B"/><path d="M8.76 34.45a7.17 7.17 0 0 1-.69 1.87L6.9 35.9l.68-1.86 1.18.42z" class="C E"/><path d="M7.23 30.67a1.65 1.65 0 0 0-.69-.09h-.2a1 1 0 0 0-.23.07l-.1.05-.17.1a6.68 6.68 0 0 0-2.34 6.37h0l.07.18c.02.036.035.072.05.1.037.07.08.137.13.2v.05l.1.1a1.58 1.58 0 0 0 1.24.46c.94 0 2.12-1.3 2.8-3.1s.6-3.56-.12-4.17a1.63 1.63 0 0 0-.51-.32h0z" class="B"/><path d="M6.15 32c.6.22.7 1.42.25 2.68s-1.32 2.1-1.92 1.88c-.37-.14-.56-.65-.53-1.32.16.74.84.87 1.4.23a4.62 4.62 0 0 0 .9-2.55c0-.55-.18-.92-.62-.88a.7.7 0 0 1 .51-.04z" class="C F"/><path d="M15.05 49a16.29 16.29 0 0 1 .44 6.42c-.24-1.08-1.7-1.87-4.57-1.85-.88-.057-1.76-.057-2.64 0h-.7l-.1-1.67.68-.05a16.1 16.1 0 0 0 2.61-.4c2.86-.4 4.23-1.36 4.28-2.45z" class="B"/><path d="M8.53 51.8a5.35 5.35 0 0 1 .12.83 6 6 0 0 1 0 .85l-1.05.06-.1-1.67 1.04-.07z" class="C E"/><path d="M6.38 49.93a1 1 0 0 0-.47.14l-.1.05a.69.69 0 0 0-.13.11l-.06.06-.08.1a4 4 0 0 0-.5 2.45 4.08 4.08 0 0 0 .82 2.36l.1.1.06.06c.048.034.098.064.15.1h.1a1.1 1.1 0 0 0 .48.08 1.17 1.17 0 0 0 .46-.13c.6-.28 1-1.46.9-2.83s-.64-2.5-1.28-2.68a1.25 1.25 0 0 0-.47.04h0z" class="B"/><path d="M6.05 51.1c.46 0 .88.7.94 1.67s-.25 1.74-.7 1.77c-.28 0-.55-.26-.73-.7.32.43.8.32 1-.26a3.35 3.35 0 0 0-.15-1.92c-.18-.35-.38-.54-.66-.4a.45.45 0 0 1 .3-.17h0z" class="C F"/><path d="M17.2 62a16 16 0 0 1 3.56 6.75c-.82-1-3.08-1-6.85.73l-8.07 4L5 74l-.92-1.76.87-.47 7.83-4.43c3.5-2.18 4.8-4.04 4.42-5.34z" class="B"/><path d="M5.14 71.6c.198.27.376.553.53.85.162.293.296.6.4.92L5 74l-.92-1.76c.3-.24.67-.42 1.06-.64z" class="C E"/><path d="M1.1 70.08a1.79 1.79 0 0 0-.55.47l-.1.13v.05a1.2 1.2 0 0 0-.11.23v.12a1.42 1.42 0 0 0 0 .2h0a7 7 0 0 0 3.34 6.31l.18.07h.6a1.83 1.83 0 0 0 .7-.19 1.74 1.74 0 0 0 .54-.46c.65-.73.48-2.56-.47-4.36s-2.37-3-3.35-2.85a1.59 1.59 0 0 0-.79.28h0z" class="B"/><path d="M1.37 71.84c.6-.32 1.6.44 2.26 1.7s.7 2.5.12 2.82c-.36.2-.9 0-1.4-.5.7.4 1.27 0 1.17-.95a4.87 4.87 0 0 0-1.36-2.5c-.45-.36-.85-.5-1.12-.13a.65.65 0 0 1 .33-.42h0z" class="C F"/><path d="M24.86 73.78c2.094 1.233 4.014 2.74 5.7 4.48-1.05-.67-2.48-.45-4 1.12l-3.1 3.53-.32.4-1.5-1.16.32-.4 2.7-3.84c1.2-1.83 1.07-3.26.17-4.12z" class="B"/><path d="M22.2 81.5a7.9 7.9 0 0 1 1.49 1.17l-.5.63-1.5-1.16c.16-.15.3-.4.5-.64z" class="C E"/><path d="M19.2 81.8a1.25 1.25 0 0 0-.23.46v.1c.001.017.001.033 0 .05v.4a5 5 0 0 0 4 3.15h.5a1.26 1.26 0 0 0 .4-.33 1.18 1.18 0 0 0 .22-.45c.22-.67-.43-1.82-1.57-2.72s-2.4-1.25-3-.88a1.08 1.08 0 0 0-.33.2h0z" class="B"/><path d="M19.9 82.86c.3-.38 1.18-.18 2 .44s1.2 1.44.9 1.8-.6.25-1.07.07c.57.06.82-.4.5-.95a3.49 3.49 0 0 0-1.61-1.24c-.4-.1-.7-.08-.77.24a.46.46 0 0 1 .06-.37h0z" class="C F"/><path d="M36.38 81.16a16.14 16.14 0 0 1 7.39 1.87c-1.3-.1-2.8 1.6-4 5.54l-2.43 8.6-.25.95-1.92-.48.23-1 1.93-8.73c.76-4 .25-6.2-.95-6.75z" class="B"/><path d="M35.44 96.42c.337.033.67.1 1 .17.323.085.64.192.95.32l-.3 1.2-1.92-.48.28-1.22z" class="C E"/><path d="M31.17 98.52a1.76 1.76 0 0 0 0 .79c-.004.057-.004.113 0 .17a.68.68 0 0 1 0 .07 2.71 2.71 0 0 0 .11.25l.07.12.13.18a7.71 7.71 0 0 0 3.527 1.979c1.33.334 2.726.306 4.043-.08h0l.2-.1.12-.07a1.85 1.85 0 0 0 .22-.17l.05-.06a.69.69 0 0 0 .11-.13 1.86 1.86 0 0 0 .36-.7 1.84 1.84 0 0 0 0-.77c-.12-1.08-1.73-2.28-3.9-2.82s-4.15-.25-4.76.64a1.72 1.72 0 0 0-.27.7h0z" class="B"/><path d="M32.8 99.6c.18-.7 1.53-1 3-.6s2.56 1.26 2.38 2c-.1.44-.67.72-1.44.77.82-.28.9-1.07.1-1.64a5.33 5.33 0 0 0-3-.73c-.63.1-1 .32-.93.82a.77.77 0 0 1-.1-.61h0z" class="C F"/><path d="M49.88 83.24a24.79 24.79 0 0 1 7.88-1.37c-1.3.4-2.14 2-1.87 4.86l.8 6.23c0 .25.08.47.12.68l-2.05.36c0-.2-.08-.44-.13-.68l-1.34-6.14c-.73-2.8-2.04-4-3.4-3.94z" class="B"/><path d="M54.6 93.06c.33-.094.663-.17 1-.23l1-.13.16.94-2.05.36c0-.3-.05-.6-.1-.94z" class="C E"/><path d="M52.65 95.9a1.29 1.29 0 0 0 .22.54l.07.1a.67.67 0 0 0 .15.14l.08.06.14.08a5.64 5.64 0 0 0 5.64-1h0c.04-.04.072-.082.1-.13l.06-.08a.76.76 0 0 0 .09-.18c.005-.016.005-.034 0-.05a.56.56 0 0 0 0-.12 1.4 1.4 0 0 0 0-.58 1.28 1.28 0 0 0-.22-.52c-.4-.7-1.83-1-3.44-.73s-2.86 1.07-3 1.85a1.18 1.18 0 0 0 .11.62h0z" class="B"/><path d="M54.05 96.14c-.1-.53.74-1.12 1.85-1.3s2.1.08 2.18.6c.06.32-.24.68-.74.94.47-.44.28-1-.43-1.13a4 4 0 0 0-2.24.42c-.4.25-.6.52-.38.82a.55.55 0 0 1-.24-.35h0z" class="C F"/><path d="M64.23 79.2a49.42 49.42 0 0 1 4.86-3.26c-.65.5-1.33 1.4-1 2.16a8.46 8.46 0 0 0 .78 1.64l.1.16-1 .7-.1-.16a5.86 5.86 0 0 0-1.25-1.3 2.05 2.05 0 0 0-2.39.07z" class="B"/><path d="M67.65 80.2c.15-.12.32-.24.5-.36.17-.12.347-.23.53-.33l.25.38-1 .7-.28-.38z" class="C E"/><path d="M67 82.84a1.21 1.21 0 0 0 .33.31l.1.05h.35a4.35 4.35 0 0 0 3.68-2.46h0v-.2a.93.93 0 0 0 0-.16h0v-.1a1.16 1.16 0 0 0-.17-.42 1.11 1.11 0 0 0-.31-.3c-.5-.36-1.6-.13-2.66.57s-1.68 1.65-1.54 2.25a1.24 1.24 0 0 0 .23.45h0z" class="B"/><path d="M68.07 82.57c-.23-.35.17-1 .9-1.5s1.5-.6 1.72-.25.05.55-.22.9c.2-.45-.1-.78-.66-.66a3.06 3.06 0 0 0-1.45 1c-.2.3-.25.56 0 .7a.41.41 0 0 1-.29-.17h0z" class="C F"/><path d="M74.58 70.42a18.14 18.14 0 0 1 3.93-6.54c-.5 1.22-.67 2.3 2.34 4.38l4.33 2.95.74.45-1 1.7-.75-.45-4.6-2.5c-3.26-1.7-4.14-1-5 0z" class="B"/><path d="M83.83 72.72a6.21 6.21 0 0 1 .45-.89 7.4 7.4 0 0 1 .57-.82l1.07.65-1 1.7-1.1-.64z" class="C E"/><path d="M84.6 76.73a1.6 1.6 0 0 0 .66.21h.57a1.26 1.26 0 0 0 .18-.06h0a6.65 6.65 0 0 0 3.5-5.81h0v-.3a.92.92 0 0 0-.09-.23v-.06l-.08-.12a1.77 1.77 0 0 0-.5-.48 1.68 1.68 0 0 0-.63-.21c-.93-.17-2.33.86-3.33 2.53s-1.26 3.38-.67 4.12a1.76 1.76 0 0 0 .39.41h0z" class="B"/><path d="M85.92 75.65c-.55-.33-.43-1.53.26-2.68s1.7-1.8 2.24-1.48c.33.2.42.74.27 1.4 0-.75-.66-1-1.34-.48a4.6 4.6 0 0 0-1.37 2.33c-.08.55 0 .94.44 1a.7.7 0 0 1-.5-.08h0z" class="C F"/><path d="M80.52 57.28a16.6 16.6 0 0 1 .79-6.39c0 1.1 1.28 2.15 4.06 2.67.832.24 1.68.422 2.54.54l.67.08-.2 1.67-.67-.08c-.862-.104-1.732-.137-2.6-.1-2.82-.16-4.3.54-4.6 1.6z" class="B"/><path d="M87.33 55.72c-.02-.28-.02-.56 0-.84a6.78 6.78 0 0 1 .17-.83l1 .13-.2 1.67-.97-.13z" class="C E"/><path d="M89.1 58a1.32 1.32 0 0 0 .49 0h.1l.15-.08.07-.06.1-.1a4.06 4.06 0 0 0 .95-2.31 4 4 0 0 0-.36-2.48l-.08-.1-.05-.06a.68.68 0 0 0-.12-.12l-.1-.06a1.14 1.14 0 0 0-.46-.16 1.06 1.06 0 0 0-.47 0c-.65.15-1.26 1.23-1.43 2.6s.16 2.57.75 2.88a1.14 1.14 0 0 0 .45.05z" class="B"/><path d="M89.63 56.9c-.45-.06-.73-.87-.6-1.82s.58-1.66 1-1.6c.28 0 .5.36.58.83-.24-.5-.72-.47-1 .07a3.29 3.29 0 0 0-.22 1.91c.1.38.28.6.57.5a.51.51 0 0 1-.32.11h0z" class="C F"/><path d="M80.88 44a16.14 16.14 0 0 1-2.22-7.29c.6 1.17 2.82 1.58 6.8.6l8.6-2.35.94-.28.58 1.9-.94.3-8.45 2.85c-3.87 1.4-5.48 2.97-5.33 4.3z" class="B"/><path d="M94.4 36.92A6.68 6.68 0 0 1 94 36c-.096-.328-.17-.662-.22-1l1.2-.36.58 1.9-1.16.38z" class="C E"/><path d="M98.08 39.18a1.77 1.77 0 0 0 .63-.35l.16-.16a1.9 1.9 0 0 0 .15-.21l.06-.1.08-.18a7 7 0 0 0-2.08-6.82h0c-.053-.04-.1-.072-.17-.1l-.1-.06-.24-.1h-.22a1.77 1.77 0 0 0-.72 0c-.225.074-.433.193-.6.35-.8.6-1 2.42-.37 4.37s1.76 3.37 2.75 3.43a1.54 1.54 0 0 0 .69-.07h0z" class="B"/><path d="M98.15 37.4c-.64.2-1.5-.74-1.9-2.1s-.23-2.6.4-2.8c.4-.12.88.2 1.28.76-.6-.5-1.25-.2-1.32.7a4.85 4.85 0 0 0 .86 2.71c.37.45.73.66 1.08.34a.68.68 0 0 1-.41.36h0z" class="C F"/><path d="M75.52 31a27.46 27.46 0 0 1-4.76-5.48c.9.85 2.34.92 4.08-.33 1.43-1 2.75-2.06 3.67-2.85l.4-.33 1.23 1.43-.38.34L76.4 27c-1.47 1.56-1.6 3-.9 4z" class="B"/><path d="M79.52 24a8.61 8.61 0 0 1-.66-.68l-.58-.75.62-.53 1.23 1.43-.6.53z" class="C E"/><path d="M82.52 24.26a1.31 1.31 0 0 0 .3-.41l.05-.1a1.15 1.15 0 0 0 0-.18c-.005-.03-.005-.06 0-.1v-.14a4.33 4.33 0 0 0-1.15-2.38 4.25 4.25 0 0 0-2.2-1.47h0-.57a1.3 1.3 0 0 0-.46.25 1.17 1.17 0 0 0-.3.4c-.34.62.08 1.86 1 3s2.13 1.68 2.8 1.44a1.31 1.31 0 0 0 .53-.31h0z" class="B"/><path d="M82.05 23.08c-.36.32-1.2-.05-1.85-.8s-.9-1.63-.54-1.94.63-.13 1.06.13c-.55-.16-.88.23-.66.84a3.39 3.39 0 0 0 1.35 1.52c.37.2.67.22.8-.1a.5.5 0 0 1-.16.35z" class="C F"/><path d="M65.36 21.58a12.78 12.78 0 0 1-6.91-3.23c1.3.28 3.3-1.58 5.72-6.22l3.37-6.15.53-1.13 1.8.84-.52 1.13-2.9 6.38c-2 4.8-2.14 7.56-1.1 8.38z" class="B"/><path d="M69.35 6.82c-.322-.092-.636-.21-.94-.35-.3-.147-.59-.31-.87-.5l.53-1.13 1.8.84-.52 1.13z" class="C E"/><path d="M73.94 5.57a2.1 2.1 0 0 0 .17-.77c.005-.057.005-.113 0-.17v-.08c-.013-.09-.033-.182-.06-.27 0 0 0-.08-.05-.13s-.05-.13-.1-.2A7.7 7.7 0 0 0 66.84.64h0l-.2.07h-.13l-.25.13-.06.05-.13.1a1.91 1.91 0 0 0-.49.63 2 2 0 0 0-.17.75c-.08 1.08 1.27 2.56 3.3 3.5s4 1 4.8.28a2 2 0 0 0 .45-.58z" class="B"/><path d="M72.55 4.2c-.3.67-1.7.68-3.1 0s-2.28-1.72-2-2.4c.2-.4.8-.57 1.56-.48-.86.12-1.07.88-.4 1.6a5.34 5.34 0 0 0 2.84 1.28c.63 0 1.07-.12 1.07-.62a.77.77 0 0 1 .02.61h0z" class="C F"/><path d="M52.8 17.2a19.28 19.28 0 0 1-8-.15c1.37-.2 2.5-2 2.8-5.76l.23-4.9v-.9h2.08v.9c0 2.13.2 1.83.32 4.9.16 3.8 1.22 5.7 2.58 5.9z" class="B"/><path d="M49.9 6.5h-1.05c-.37 0-.7 0-1-.08v-.95h2.08c-.03.37-.03.7-.03 1.03z" class="C E"/><path d="M52.35 4.08a1.35 1.35 0 0 0-.12-.57.37.37 0 0 0-.05-.11h0a.88.88 0 0 0-.12-.17l-.18-.18a5.63 5.63 0 0 0-5.72-.1h0l-.12.1-.07.07-.13.16c-.026.033-.046.07-.06.1a1.49 1.49 0 0 0-.14.57 1.46 1.46 0 0 0 .11.55c.26.75 1.6 1.33 3.25 1.36s3-.5 3.3-1.24a1.27 1.27 0 0 0 .06-.55h0z" class="B"/><path d="M51 3.58c0 .54-.94 1-2.07.94s-2-.47-2-1c0-.33.36-.62.9-.8-.55.34-.46.9.2 1.2a3.93 3.93 0 0 0 2.28 0c.43-.17.68-.4.53-.73a.57.57 0 0 1 .15.39z" class="C F"/><path d="M37.82 18.3c-1.75.865-3.55 1.626-5.4 2.28.73-.36 1.57-1.12 1.44-1.93a8.32 8.32 0 0 0-.46-1.76l-.07-.18 1.13-.48s0 .1.08.17a6 6 0 0 0 1 1.52 2 2 0 0 0 2.27.38h0z" class="B"/><path d="M34.65 16.65c-.182.097-.37.183-.56.26a5.24 5.24 0 0 1-.58.22l-.17-.42 1.13-.48.18.42z" class="C E"/><path d="M35.78 14.2a1 1 0 0 0-.26-.37l-.07-.06-.13-.07h-.2a3.72 3.72 0 0 0-2.27.3 3.67 3.67 0 0 0-1.8 1.42h0c-.02.038-.038.078-.05.12v.07c-.005.05-.005.1 0 .15v.1a1 1 0 0 0 .08.44 1.16 1.16 0 0 0 .25.36c.42.44 1.56.43 2.72-.06s2-1.3 1.93-1.9a1.06 1.06 0 0 0-.21-.49h0z" class="B"/><path d="M34.68 14.26c.16.38-.35 1-1.16 1.3s-1.6.3-1.75-.08.06-.55.4-.84c-.27.4 0 .8.52.77a3.06 3.06 0 0 0 1.62-.7c.25-.26.35-.5.14-.7a.42.42 0 0 1 .24.23h0z" class="C F"/><g class="B"><use xlink:href="#B"/><use xlink:href="#B"/></g><use xlink:href="#B" opacity=".4" fill="#fff"/><path d="M78.27 35.32c4.13 9 1.88 34.25-20.92 42.8s-39-12.2-41.73-20.28a33.5 33.5 0 0 0 16.63 21.752 33.5 33.5 0 0 0 27.302 2.081 33.5 33.5 0 0 0 19.735-18.981A33.5 33.5 0 0 0 78.27 35.32h0z" class="C D"/><use xlink:href="#C" class="B"/><g class="C"><use xlink:href="#C" class="D"/><path d="M42 74.5c-.86-.83.15-2.6 2.48-2.76 1.85-.13 3.6.68 3.95 1.7a1.42 1.42 0 0 1-.118 1.108 1.42 1.42 0 0 1-.882.682c.58-.53.54-1.35-.4-2a4.4 4.4 0 0 0-4.09-.34c-.82.4-1.18 1.1-.95 1.6z" class="G"/></g><use xlink:href="#D" class="B"/><g class="C"><use xlink:href="#D" class="D"/><path d="M62.2 28.15c.58 1-.88 2.45-3.16 2-1.8-.4-3.27-1.66-3.3-2.75a1.43 1.43 0 0 1 .412-1.024 1.43 1.43 0 0 1 1.018-.426c-.7.35-.9 1.15-.18 2a4.4 4.4 0 0 0 3.83 1.47c.9-.18 1.4-.7 1.4-1.27z" class="G"/></g><use xlink:href="#E" class="B"/><g class="C"><use xlink:href="#E" class="D"/><path d="M33.5 47.8c.6-.8 2.18-.14 2.56 1.8.3 1.53-.2 3.07-1 3.47a1.19 1.19 0 0 1-.928.022 1.19 1.19 0 0 1-.662-.652c.5.43 1.18.3 1.6-.52a3.75 3.75 0 0 0-.13-3.45c-.44-.64-1-.87-1.45-.66z" class="G"/></g><use xlink:href="#F" class="B"/><g class="C"><use xlink:href="#F" class="D"/><path d="M57.6 61c-1.18.2-2-1.67-.75-3.64 1-1.57 2.68-2.5 3.72-2.17a1.44 1.44 0 0 1 .87 1.84c-.1-.77-.78-1.23-1.83-.86a4.46 4.46 0 0 0-2.7 3.1c-.17.9.14 1.58.7 1.73z" class="G"/></g><use xlink:href="#G" class="B"/><g class="C"><use xlink:href="#G" class="D"/><path d="M22.4 50.68c.78-.9 2.6 0 2.93 2.3.25 1.84-.45 3.64-1.45 4.06a1.43 1.43 0 0 1-1.103-.038 1.43 1.43 0 0 1-.747-.812c.57.54 1.38.45 2-.52a4.42 4.42 0 0 0 .06-4.1c-.48-.8-1.15-1.1-1.7-.88z" class="G"/></g><use xlink:href="#H" class="B"/><g class="C"><use xlink:href="#H" class="D"/><path d="M60.48 43.4c-.36 1-2.15.82-3.13-1-.78-1.44-.77-3.15-.07-3.8a1.27 1.27 0 0 1 .927-.31 1.27 1.27 0 0 1 .873.44c-.63-.27-1.28.06-1.45 1a3.94 3.94 0 0 0 1.22 3.43c.6.54 1.25.6 1.63.25z" class="G"/></g><use xlink:href="#I" class="B"/><g class="C"><use xlink:href="#I" class="D"/><path d="M44.6 24.23c1.55.58 1.26 3.37-1.6 4.9-2.27 1.2-4.95 1.16-6 .05a2 2 0 0 1-.474-1.456 2 2 0 0 1 .694-1.364c-.43 1 .08 2 1.6 2.3a6.14 6.14 0 0 0 5.38-1.86c.8-.95.94-1.96.4-2.55z" class="G"/></g><use xlink:href="#J" class="B"/><g class="C"><use xlink:href="#J" class="D"/><path d="M60.38 72.85c-.88-.13-1-1.63.3-2.76 1.05-.88 2.47-1.16 3.14-.7a1.08 1.08 0 0 1 .2 1.51c.1-.57-.27-1.06-1.1-1a3.31 3.31 0 0 0-2.62 1.59c-.3.56-.3 1.1.1 1.35z" class="G"/></g><use xlink:href="#K" class="B"/><g class="C"><use xlink:href="#K" class="D"/><path d="M71.88 58.75c-1.05.62-2.52-.83-2.08-3.16.34-1.85 1.6-3.37 2.7-3.45a1.46 1.46 0 0 1 1.054.388 1.46 1.46 0 0 1 .466 1.022c-.38-.7-1.2-.87-2-.12a4.49 4.49 0 0 0-1.39 3.94c.12.9.66 1.42 1.25 1.38z" class="G"/></g><use xlink:href="#L" class="B"/><g class="C"><use xlink:href="#L" class="D"/><path d="M72.54 40.42c-.2.76-1.5.77-2.37-.5-.68-1-.8-2.26-.33-2.8a.93.93 0 0 1 .665-.28.93.93 0 0 1 .665.28c-.5-.15-.94.14-1 .86a2.87 2.87 0 0 0 1.15 2.42c.5.3.97.3 1.22 0z" class="G"/></g><use xlink:href="#M" class="B"/><g class="C"><use xlink:href="#M" class="D"/><path d="M26 35.87c.74-.26 1.47.84.9 2.25-.46 1.12-1.45 1.9-2.15 1.8a1 1 0 0 1-.77-1.09c.15.5.64.7 1.27.35a2.87 2.87 0 0 0 1.39-2.29c0-.6-.28-.98-.63-1.03z" class="G"/></g><use xlink:href="#N" class="B"/><g class="C"><use xlink:href="#N" class="D"/><path d="M40.64 62.3c-.5-.6.3-1.67 1.8-1.6 1.2.06 2.28.7 2.43 1.4a.94.94 0 0 1-.147.706.94.94 0 0 1-.603.394c.4-.3.44-.84-.1-1.3a2.89 2.89 0 0 0-2.63-.53c-.56.2-.83.58-.75.95z" class="G"/></g><use xlink:href="#O" class="B"/><g class="C"><use xlink:href="#O" class="D"/><path d="M44.3 36.23c.74.24.66 1.56-.65 2.34a2.6 2.6 0 0 1-2.8.15.94.94 0 0 1-.276-.665.94.94 0 0 1 .276-.665c-.18.47.08.94.8 1a2.89 2.89 0 0 0 2.49-1c.4-.4.43-.9.16-1.16z" class="G"/></g><use xlink:href="#P" class="B"/><g class="C"><use xlink:href="#P" class="D"/><path d="M26.87 66.88c0-.78 1.3-1.1 2.42-.1.9.8 1.33 2 1 2.63a.92.92 0 0 1-.559.449.92.92 0 0 1-.711-.089c.5 0 .87-.36.74-1.08a2.85 2.85 0 0 0-1.7-2.06c-.55-.2-1.06-.08-1.2.25z" class="G"/></g><use xlink:href="#Q" class="B"/><g class="C"><use xlink:href="#Q" class="D"/><path d="M44.35 48.45c-.27 1.38 1 2.9 3.16 2.83s4.22-2.65 3-4.25a4.11 4.11 0 0 1-2.86 3c-1.65.4-3-.4-3.3-1.58z" class="G"/></g><defs ><path id="B" d="M71.53 26.05a33.5 33.5 0 0 1 7.815 36.397 33.5 33.5 0 0 1-30.638 21.145 33.5 33.5 0 0 1-31.258-20.217A33.5 33.5 0 0 1 24.17 26.76a33.5 33.5 0 0 1 47.36-.71h0z"/><path id="C" d="M45 69.9c2.53 0 4.58 1.5 4.6 3.4s-2 3.45-4.55 3.47-4.58-1.5-4.6-3.4 2-3.46 4.54-3.47z"/><path id="D" d="M58 31.72c-2.43-.7-4-2.73-3.45-4.56s2.9-2.75 5.33-2.06 4 2.74 3.46 4.56-2.92 2.75-5.34 2.06z"/><path id="E" d="M37.65 49.87c.27 2.1-.8 4-2.38 4.18s-3.08-1.34-3.35-3.44.8-4 2.38-4.17 3.08 1.33 3.35 3.43z"/><path id="F" d="M55.7 55.85c1.48-2 3.93-2.8 5.47-1.68s1.58 3.67.1 5.72-3.93 2.8-5.47 1.68-1.58-3.68-.1-5.72z"/><path id="G" d="M27.2 53.4c.2 2.52-1.2 4.67-3.1 4.8s-3.58-1.78-3.77-4.3 1.2-4.67 3.1-4.8 3.57 1.8 3.76 4.3z"/><path id="H" d="M55.66 42.63c-.94-2-.46-4.24 1.07-4.95s3.52.37 4.45 2.4.46 4.24-1.07 4.95-3.52-.37-4.45-2.4z"/><path id="I" d="M43.32 31.77c-3.2 1.44-6.65.66-7.73-1.74s.62-5.5 3.8-6.95 6.65-.66 7.74 1.74-.63 5.5-3.82 6.95z"/><path id="J" d="M60.2 68.74c1.52-1.12 3.43-1.1 4.27 0s.3 3-1.23 4.1-3.43 1.1-4.27 0-.3-2.98 1.23-4.1z"/><path id="K" d="M68.13 54.57c.63-2.5 2.66-4.12 4.53-3.65s2.88 2.88 2.25 5.37-2.67 4.12-4.54 3.65-2.88-2.88-2.24-5.37z"/><path id="L" d="M69 40.22c-.84-1.42-.65-3.08.4-3.7s2.6 0 3.45 1.43.65 3.07-.42 3.7-2.65 0-3.44-1.42z"/><path id="M" d="M27.78 39c-.72 1.48-2.2 2.23-3.32 1.7s-1.43-2.2-.7-3.66 2.2-2.24 3.32-1.7 1.43 2.16.7 3.66z"/><path id="N" d="M42.94 59.55c1.64.17 2.86 1.3 2.73 2.55s-1.56 2.08-3.2 1.9-2.86-1.3-2.73-2.54 1.57-2.1 3.2-1.92z"/><path id="O" d="M43.85 39.8c-1.47.74-3.1.45-3.67-.66s.18-2.6 1.65-3.35 3.1-.44 3.67.66-.18 2.6-1.65 3.35z"/><path id="P" d="M30.4 66.2c1.15 1.17 1.38 2.83.5 3.7s-2.53.63-3.7-.54-1.38-2.83-.5-3.7 2.53-.66 3.7.54z"/><path id="Q" d="M51.76 47.05c.74 2-.56 4.37-2.9 5.23s-4.85-.1-5.6-2.13.56-4.36 2.9-5.22 4.83.07 5.6 2.12z"/></defs></svg>