<svg xmlns="http://www.w3.org/2000/svg" xmlns:xlink="http://www.w3.org/1999/xlink" width="82" height="91" fill="none" xmlns:v="https://vecta.io/nano"><style><![CDATA[.B{fill:#e0e0e0}.C{fill:#f0f0f0}.D{opacity:.1}.E{fill:#000}]]></style><path d="M14.68 54.92a13.5 13.5 0 0 1 2.93 5.78c-.68-.9-2.63-.9-5.9.56l-7 3.3-.76.38-.76-1.5.76-.4 6.8-3.7c3.1-1.78 4.24-3.35 3.92-4.43z" class="C"/><path d="M4.13 63a5.12 5.12 0 0 1 .44.72 5.78 5.78 0 0 1 .33.79l-.95.47-.76-1.5.94-.48z" class="B"/><path d="M1.4 62.06a1.08 1.08 0 0 0-.38.32.27.27 0 0 0-.07.08.8.8 0 0 0-.08.16.19.19 0 0 0 0 .08.5.5 0 0 0 0 .13 4.8 4.8 0 0 0 2.2 4.34h0l.13.05h.4a1 1 0 0 0 .48-.12 1.26 1.26 0 0 0 .38-.3c.45-.5.36-1.74-.27-3s-1.58-2.05-2.25-2a1.25 1.25 0 0 0-.54.26z" class="C"/><path d="M1.55 63.26c.4-.2 1.1.32 1.53 1.18s.45 1.72.05 1.92-.6 0-.95-.36c.47.27.86 0 .8-.63a3.36 3.36 0 0 0-.89-1.72c-.3-.25-.57-.35-.76-.1a.48.48 0 0 1 .22-.29h0z" class="B"/><path d="M20.8 64.9a15 15 0 0 1 5 4.09c-1-.55-1.87-.83-4 1.52l-3.07 3.4-.5.58-1.3-1.06.47-.6 2.73-3.67c1.85-2.58 1.4-3.42.66-4.26z" class="C"/><path d="M17.62 72.6c.248.137.483.298.7.48s.428.372.62.58l-.68.82-1.3-1.06.66-.82z" class="B"/><path d="M14.16 72.77a1.41 1.41 0 0 0-.26.52v.18a.74.74 0 0 0 0 .21.38.38 0 0 0 0 .1c-.004.053-.004.107 0 .16h0a5.71 5.71 0 0 0 4.48 3.64h.52l.1-.05a1.31 1.31 0 0 0 .46-.36 1.37 1.37 0 0 0 .26-.51c.25-.75-.45-2.06-1.73-3.1s-2.7-1.46-3.4-1.05a1.31 1.31 0 0 0-.45.26h0z" class="C"/><path d="M14.9 74c.34-.42 1.34-.18 2.22.54s1.32 1.64 1 2.06c-.2.26-.67.27-1.2.07.64.07.92-.44.57-1.07a4 4 0 0 0-1.8-1.43c-.45-.13-.8-.1-.88.25a.55.55 0 0 1 .09-.42h0z" class="B"/><path d="M31 71.54a13.94 13.94 0 0 1 5.28 1.42c-.94-.1-2 .85-2.76 3.16-.296.687-.55 1.392-.76 2.1l-.15.57-1.38-.37.15-.57a13.64 13.64 0 0 0 .4-2.21c.53-2.4.12-3.73-.78-4.1z" class="C"/><path d="M31.5 77.56c.24.028.477.075.7.14a4.39 4.39 0 0 1 .67.23l-.23.87-1.38-.37.23-.87zm-1.26 1.8c.1-.37.82-.5 1.6-.3s1.33.68 1.23 1.05-.36.37-.76.4c.43-.14.48-.55.06-.86a2.81 2.81 0 0 0-1.58-.41c-.33 0-.55.16-.5.43a.44.44 0 0 1-.05-.31h0z" class="B"/><path d="M42.12 73.43a13.57 13.57 0 0 1 6.4-1c-1 .38-1.66 2.2-1.3 5.7l1 7.58c0 .3.08.57.13.83l-1.67.26c0-.26-.08-.54-.13-.83l-1.4-7.5c-.77-3.47-1.9-5-3.03-5.04z" class="C"/><path d="M46.47 85.75a5.3 5.3 0 0 1 .83-.19 5 5 0 0 1 .85-.07l.16 1.05-1.67.26-.17-1.05z" class="B"/><path d="M44.13 88.57a1.52 1.52 0 0 0 .23.57.44.44 0 0 0 .08.11v.05l.16.15.08.06.15.1A5 5 0 0 0 48 90a5.09 5.09 0 0 0 2.86-1.28h0l.1-.13.06-.08a1.17 1.17 0 0 0 .1-.19c.004-.02.004-.04 0-.06.006-.043.006-.087 0-.13a1.25 1.25 0 0 0 0-.61 1.51 1.51 0 0 0-.21-.56c-.4-.73-1.93-1.1-3.64-.83s-3 1.08-3.2 1.9a1.5 1.5 0 0 0 .06.54h0z" class="C"/><path d="M45.62 88.85c-.1-.57.8-1.17 2-1.36s2.2.12 2.3.7c.06.34-.26.7-.8 1 .5-.45.32-1-.43-1.2a4.29 4.29 0 0 0-2.39.4c-.4.26-.63.54-.4.87a.61.61 0 0 1-.27-.4z" class="B"/><path d="M53.67 70.5c1.567-1.34 3.306-2.468 5.17-3.35-.82.66-1 1.86-.2 3.5l2 3.45.23.38-1.34.87-.24-.37-2.34-3.23c-1.17-1.44-2.35-1.76-3.3-1.25z" class="C"/><path d="M59.14 74.78l.65-.47.7-.4.37.6-1.34.87-.38-.58z" class="B"/><path d="M58.54 77.26a1 1 0 0 0 .31.31l.1.05.15.05h.2a3.63 3.63 0 0 0 2.14-.68 3.69 3.69 0 0 0 1.5-1.67h0v-.35c-.005-.033-.005-.067 0-.1a1.1 1.1 0 0 0-.16-.41 1.07 1.07 0 0 0-.3-.3c-.48-.36-1.58-.16-2.62.52s-1.67 1.6-1.54 2.17a1 1 0 0 0 .23.41h0z" class="C"/><path d="M59.6 77c-.22-.34.18-1 .9-1.46s1.48-.56 1.7-.22 0 .54-.23.87c.2-.44-.1-.76-.64-.65a3.06 3.06 0 0 0-1.44.95c-.2.3-.26.54 0 .7a.44.44 0 0 1-.29-.18h0z" class="B"/><path d="M62.78 63.3a13.61 13.61 0 0 1 3.54-5.42c-.43 1 .5 2.7 3.34 4.76l6.24 4.34.7.46-.92 1.4-.7-.45-6.48-4c-3.03-1.72-4.94-1.9-5.7-1.1z" class="C"/><path d="M74.78 68.26a6.15 6.15 0 0 1 .41-.74 5.17 5.17 0 0 1 .52-.67l.88.58-.92 1.4-.9-.58z" class="B"/><path d="M75.28 72.27a1.58 1.58 0 0 0 .63.24h.56l.18-.05a5.58 5.58 0 0 0 2.57-2.29 5.51 5.51 0 0 0 1-3.27h0v-.18c.006-.036.006-.073 0-.1a1.55 1.55 0 0 0-.08-.23v-.05c0-.05-.05-.1-.07-.13a1.59 1.59 0 0 0-1.08-.72c-.9-.2-2.3.77-3.34 2.36s-1.35 3.26-.8 4a1.55 1.55 0 0 0 .44.43h0z" class="C"/><path d="M76.6 71.27c-.52-.34-.36-1.5.36-2.6s1.7-1.7 2.23-1.36c.33.2.4.73.22 1.36 0-.73-.6-1-1.3-.52a4.5 4.5 0 0 0-1.42 2.23c-.1.53 0 .92.4 1a.65.65 0 0 1-.5-.1h0z" class="B"/><path d="M68.18 53a21.3 21.3 0 0 1 1.07-6.71c0 1.16 1 2.26 3.4 2.85l5.23 1.07.58.1-.28 1.74-.58-.08-5.3-.62c-2.45-.17-3.78.55-4.1 1.65z" class="C"/><path d="M77.37 52a6.91 6.91 0 0 1 .09-.88c.05-.3.12-.6.2-.87l.8.13-.28 1.74-.8-.12z" class="B"/><path d="M79.12 54.3a1.15 1.15 0 0 0 .49 0h.1l.16-.1.06-.05.1-.08a4.78 4.78 0 0 0 .77-4.8h0l-.07-.1v-.07l-.12-.13-.1-.06a1 1 0 0 0-.45-.18 1.1 1.1 0 0 0-.48 0c-.66.13-1.32 1.2-1.54 2.57s.07 2.6.66 2.92a1 1 0 0 0 .4.08z" class="C"/><path d="M79.7 53.23c-.45-.07-.7-.9-.54-1.85s.64-1.65 1.1-1.58c.28 0 .48.38.56.85-.22-.5-.7-.5-1 0a3.34 3.34 0 0 0-.28 1.91c.1.4.25.62.56.54a.49.49 0 0 1-.39.13h0z" class="B"/><path d="M68.9 40.38a42.22 42.22 0 0 1-1.27-4.81c.2.66.75 1.45 1.44 1.44.52-.001 1.035-.06 1.54-.18h.16l.27 1h-.16c-.493.146-.962.365-1.4.65a1.76 1.76 0 0 0-.59 1.9h0z" class="C"/><path d="M70.66 37.9c-.065-.163-.12-.33-.16-.5l-.12-.52.38-.1.27 1-.37.12z" class="B"/><path d="M72.6 39.15a1 1 0 0 0 .34-.17l.06-.06.1-.1v-.06l.05-.1a3.7 3.7 0 0 0-1-3.63h0l-.1-.05h-.26a1 1 0 0 0-.38 0 .84.84 0 0 0-.34.17c-.42.3-.55 1.26-.27 2.3s.86 1.8 1.38 1.86a.94.94 0 0 0 .42-.15h0z" class="C"/><path d="M72.66 38.22c-.34.1-.77-.42-1-1.14s-.07-1.37.27-1.46.46.12.66.43c-.3-.28-.66-.12-.7.35a2.55 2.55 0 0 0 .4 1.44c.2.24.38.36.56.2a.35.35 0 0 1-.18.18z" class="B"/><path d="M64.7 29.64a15.53 15.53 0 0 1-4.17-5c.85.73 1.68 1.18 4.17-.67l3.56-2.66.57-.47 1.08 1.3-.56.48-3.28 3c-2.25 2.16-1.94 3.07-1.37 4.03z" class="C"/><path d="M69.1 22.84a5.73 5.73 0 0 1-.59-.61c-.182-.218-.35-.45-.5-.7l.82-.67 1.08 1.3-.8.68zM72 22c-.4.35-1.34-.08-2.07-.95s-1-1.86-.58-2.2.72-.13 1.2.17c-.62-.2-1 .25-.76.94a4 4 0 0 0 1.49 1.75c.42.2.76.25.9-.1A.56.56 0 0 1 72 22z" class="B"/><path d="M55.78 21.23a14.22 14.22 0 0 1-4.91-2.39c.9.28 2.08-.44 3.27-2.53a16.15 16.15 0 0 0 1.13-1.9l.26-.5 1.27.62-.25.52a15.2 15.2 0 0 0-.79 2.06c-.9 2.22-.76 3.6.02 4.13z" class="C"/><path d="M56.4 15.33a5.1 5.1 0 0 1-.66-.27c-.216-.104-.423-.224-.62-.36l.4-.8 1.27.62-.4.8z" class="B"/><path d="M58.7 14.54a1.17 1.17 0 0 0 .1-.41c.005-.03.005-.06 0-.1h0c.008-.046.008-.094 0-.14.003-.023.003-.047 0-.07v-.1a3.39 3.39 0 0 0-1.59-1.4 3.53 3.53 0 0 0-2.09-.4h-.18l-.13.06-.07.05a1.23 1.23 0 0 0-.26.33 1.07 1.07 0 0 0-.1.39c-.05.56.65 1.35 1.7 1.87s2.1.58 2.52.2a1 1 0 0 0 .1-.28h0z" class="C"/><path d="M58 13.8c-.17.35-.9.34-1.62 0s-1.18-.93-1-1.28.42-.3.82-.23c-.45.05-.57.45-.22.83a2.76 2.76 0 0 0 1.48.7c.33 0 .56 0 .56-.32a.37.37 0 0 1-.02.3h0z" class="B"/><path d="M45.2 17.27a13.79 13.79 0 0 1-6.48-.23c1.1-.16 2-1.83 2.36-5.3l.5-7.56v-.83l1.7.06v8.4c.02 3.5.84 5.2 1.94 5.46z" class="C"/><path d="M43.26 4.46a5.74 5.74 0 0 1-.84 0 5.68 5.68 0 0 1-.85-.09V3.3l1.7.06c.03.35.01.7 0 1.1z" class="B"/><path d="M46.1 2.13a1.54 1.54 0 0 0-.12-.61c-.012-.042-.03-.082-.05-.12v-.05l-.12-.18-.08-.07-.12-.12a5.06 5.06 0 0 0-3-.94 5.13 5.13 0 0 0-3.06.72h0l-.13.1a.6.6 0 0 0-.08.08l-.14.16v.06l-.06.1a1.48 1.48 0 0 0-.16.6 1.67 1.67 0 0 0 .11.59c.26.8 1.68 1.44 3.4 1.5s3.2-.5 3.52-1.26a1.6 1.6 0 0 0 .08-.57h0z" class="C"/><path d="M44.7 1.58c0 .57-1 1-2.2.95s-2.14-.54-2.12-1.1c0-.36.4-.66 1-.82-.6.35-.5.95.2 1.26a4.19 4.19 0 0 0 2.42.06c.45-.18.72-.4.57-.78a.64.64 0 0 1 .14.43h0z" class="B"/><path d="M33.3 18a23.77 23.77 0 0 1-5.72 2.31c.94-.5 1.38-1.62.87-3.37l-1.28-3.73-.16-.4 1.5-.6.16.4c.4 1 1 2.25 1.67 3.57.85 1.6 1.96 2.1 2.97 1.82z" class="C"/><path d="M28.75 12.84l-.73.33a7 7 0 0 1-.76.27L27 12.8l1.5-.6.26.64z" class="B"/><path d="M29.8 10.5a1.16 1.16 0 0 0-.25-.36c-.026-.02-.05-.044-.07-.07l-.14-.08h-.18a3.62 3.62 0 0 0-2.23.26 3.72 3.72 0 0 0-1.79 1.36h0c-.02.03-.037.065-.05.1v.07c-.005.05-.005.1 0 .15v.1a1.09 1.09 0 0 0 .08.43 1 1 0 0 0 .24.36c.4.44 1.52.45 2.66 0s1.95-1.25 1.93-1.85a.89.89 0 0 0-.2-.47h0z" class="C"/><path d="M28.73 10.56c.15.38-.37.94-1.16 1.26s-1.56.28-1.7-.1c-.1-.23.07-.54.4-.82-.28.4-.05.77.5.77a2.93 2.93 0 0 0 1.6-.67c.25-.25.35-.48.15-.67a.43.43 0 0 1 .23.23h0z" class="B"/><path d="M22.92 23.55a10.93 10.93 0 0 1-4.51 4.67c.6-1-.35-3.1-3.4-6.32l-4-4.4-.76-.74 1.17-1.2.77.73 4.32 4.1c3.3 2.95 5.5 3.8 6.42 3.2z" class="C"/><path d="M12.16 16.27c-.168.23-.348.45-.54.66a5.46 5.46 0 0 1-.64.56l-.76-.74 1.17-1.2.77.73z" class="B"/><path d="M12.42 12.24a1.55 1.55 0 0 0-.57-.35h-.74a6.53 6.53 0 0 0-4.61 4.77h0a1.09 1.09 0 0 0 0 .18v.12a1.57 1.57 0 0 0 0 .23v.2a1.48 1.48 0 0 0 .37.56 1.59 1.59 0 0 0 .56.35c.84.37 2.4-.3 3.72-1.68s1.94-2.95 1.55-3.77a1.53 1.53 0 0 0-.28-.61z" class="C"/><path d="M11 13c.45.43.07 1.55-.84 2.5s-2 1.35-2.46.92c-.27-.27-.24-.8.05-1.38-.15.72.4 1.1 1.17.75a4.54 4.54 0 0 0 1.82-1.92c.2-.5.2-.9-.2-1A.68.68 0 0 1 11 13z" class="B"/><path d="M15.94 32.43a16.38 16.38 0 0 1-2.33 6.39c.22-1.15-.92-2.55-3.86-3.83l-3.87-1.53-.72-.27.6-1.66.72.26c1.7.6 1.52.35 4 1.1 3.1.9 4.88.58 5.45-.45z" class="C"/><path d="M6.53 31.8a7.46 7.46 0 0 1-.26.85c-.095.282-.212.556-.35.82l-.76-.28.6-1.66.76.27z" class="B"/><path d="M5.26 29.17a1 1 0 0 0-.49-.06h-.15l-.16.05h-.08l-.12.07a4.08 4.08 0 0 0-1.45 2.06 4.13 4.13 0 0 0-.21 2.51h0l.05.12a.3.3 0 0 0 0 .08l.1.14.08.08a1.16 1.16 0 0 0 .89.33c.67 0 1.5-.93 2-2.23s.42-2.56-.1-3a1.25 1.25 0 0 0-.36-.15h0z" class="C"/><path d="M4.5 30.1c.43.15.5 1 .2 1.9s-.95 1.5-1.38 1.35c-.26-.1-.4-.46-.38-.94.12.53.6.62 1 .16a3.43 3.43 0 0 0 .65-1.83c0-.4-.14-.66-.45-.63a.46.46 0 0 1 .37-.02h0z" class="B"/><path d="M12.67 44.77a42.92 42.92 0 0 1 .35 5c-.1-.68-.47-1.56-1.15-1.7-.51-.094-1.03-.13-1.55-.1h-.16l-.08-1.05h.17a4.84 4.84 0 0 0 1.49-.37 1.72 1.72 0 0 0 .93-1.78h0z" class="C"/><path d="M10.47 46.86a4.13 4.13 0 0 1 .06.52 4.78 4.78 0 0 1 0 .53h-.38l-.08-1.05h.4z" class="B"/><path d="M8.8 45.28a.76.76 0 0 0-.37.1l-.07.05a.39.39 0 0 0-.1.08v.05l-.07.1a3.1 3.1 0 0 0-.38 1.91 3.19 3.19 0 0 0 .64 1.84h0l.08.07v.05a.41.41 0 0 0 .11.07h.08a.9.9 0 0 0 .37 0 .72.72 0 0 0 .36-.1c.47-.2.78-1.13.7-2.2s-.5-1.93-1-2.08a.85.85 0 0 0-.36.07z" class="C"/><path d="M8.56 46.18c.35 0 .68.55.73 1.3s-.2 1.36-.55 1.4-.42-.2-.56-.55c.25.34.62.25.76-.2a2.62 2.62 0 0 0-.12-1.5c-.14-.27-.3-.42-.5-.3a.34.34 0 0 1 .25-.13z" class="B"/><use xlink:href="#B" class="C"/><use xlink:href="#B" fill="#f5f5f5"/><path d="M37.52 17c8.4-.82 28 7.95 28.6 28.64s-20.58 28-27.82 27.92a28.46 28.46 0 0 0 31.239-28.716A28.46 28.46 0 0 0 37.52 17zm18.6 36.26c.68-2 2.47-3.26 4-2.75s2.22 2.58 1.53 4.6-2.47 3.27-4 2.75-2.22-2.58-1.53-4.6z" class="B"/><path d="M59 57c-.9.45-2-.84-1.54-2.76.4-1.52 1.55-2.7 2.47-2.7a1.2 1.2 0 0 1 .855.387 1.2 1.2 0 0 1 .315.883c-.26-.6-.93-.8-1.7-.24a3.78 3.78 0 0 0-1.41 3.2c.07.74.5 1.23 1 1.23z" class="D E"/><path d="M29 32.27c-1.23 1.76-3.3 2.44-4.62 1.52s-1.4-3.1-.18-4.86 3.3-2.43 4.62-1.5 1.43 3.1.18 4.85z" class="B"/><path d="M27.32 27.9c1-.2 1.72 1.38.7 3.08-.82 1.34-2.24 2.16-3.13 1.9a1.22 1.22 0 0 1-.77-1.54c.1.65.68 1 1.57.7a3.79 3.79 0 0 0 2.24-2.68c.13-.75-.14-1.3-.6-1.45z" class="D E"/><path d="M38 53.63c1.77.36 3 1.73 2.7 3.06s-1.92 2.1-3.7 1.75-3-1.74-2.7-3.06 1.9-2.1 3.68-1.75z" class="B"/><path d="M35.2 56.4c-.47-.7.5-1.8 2.14-1.55 1.3.18 2.42 1 2.5 1.78a1 1 0 0 1-.231.758 1 1 0 0 1-.709.352c.48-.3.58-.87 0-1.44a3.17 3.17 0 0 0-2.81-.85c-.6.15-.94.56-.9.95z" class="D E"/><path d="M47.78 40.78c-1.23-1.75-1.16-3.93.16-4.86s3.4-.25 4.62 1.5 1.16 3.93-.16 4.86-3.4.25-4.62-1.5z" class="B"/><path d="M52.47 40.68c-.18 1-1.9 1.14-3.14-.4-1-1.22-1.26-2.84-.7-3.58a1.21 1.21 0 0 1 .82-.457 1.21 1.21 0 0 1 .9.267c-.65-.15-1.2.28-1.2 1.22a3.77 3.77 0 0 0 1.74 3c.66.4 1.28.35 1.58-.04z" class="D E"/><path d="M37.94 63c2.07.54 3.42 2.25 3 3.8s-2.42 2.38-4.5 1.84-3.42-2.26-3-3.82 2.43-2.37 4.5-1.83z" class="B"/><path d="M34.43 66.1c-.52-.88.7-2.1 2.65-1.72 1.54.3 2.8 1.37 2.86 2.3a1.21 1.21 0 0 1-.333.874 1.21 1.21 0 0 1-.857.376c.58-.3.74-1 .12-1.7a3.78 3.78 0 0 0-3.28-1.19c-.76.14-1.2.6-1.16 1.08z" class="D E"/><path d="M37.15 37.16c-1.9.2-3.54-.8-3.68-2.22s1.27-2.73 3.16-2.92 3.53.8 3.67 2.22S39 37 37.15 37.16z" class="B"/><path d="M39.1 33.5c.7.57.07 1.95-1.66 2.24-1.37.23-2.75-.26-3.08-1a1.08 1.08 0 0 1 .007-.83 1.08 1.08 0 0 1 .593-.58c-.4.44-.3 1 .43 1.45a3.33 3.33 0 0 0 3.09 0c.58-.38.8-.88.62-1.28z" class="D E"/><path d="M25 44.07c.28 3-1.3 5.53-3.53 5.74s-4.25-2-4.53-5 1.3-5.52 3.54-5.73 4.26 2.03 4.52 5z" class="B"/><path d="M19.3 41c.9-1.08 3.06-.08 3.5 2.64.34 2.15-.45 4.3-1.62 4.8a1.69 1.69 0 0 1-1.31-.037 1.69 1.69 0 0 1-.89-.963c.68.62 1.64.5 2.28-.65a5.21 5.21 0 0 0 0-4.84c-.54-.9-1.33-1.26-1.96-.96z" class="D E"/><path d="M59.38 40.72c-.48-1.53.06-3.06 1.2-3.42s2.48.6 3 2.12-.07 3.06-1.22 3.42-2.52-.6-3-2.12z" class="B"/><path d="M62.74 41.7c-.35.68-1.6.4-2.14-1a2.52 2.52 0 0 1 .31-2.72.89.89 0 0 1 .686-.139.89.89 0 0 1 .574.399c-.42-.25-.92-.08-1.12.6a2.83 2.83 0 0 0 .55 2.55c.4.43.84.53 1.14.3z" class="D E"/><path d="M50.18 30.44c-1.82-1.2-2.57-3.28-1.67-4.65s3.1-1.5 4.93-.32 2.57 3.28 1.67 4.65-3.1 1.52-4.93.32z" class="B"/><path d="M54.58 28.58c.2 1-1.36 1.8-3.12.8-1.4-.8-2.26-2.22-2-3.12a1.24 1.24 0 0 1 .602-.737 1.24 1.24 0 0 1 .947-.093c-.66.1-1 .72-.66 1.6a3.82 3.82 0 0 0 2.78 2.2c.75.12 1.3-.18 1.45-.66z" class="D E"/><path d="M38.88 25.82c-1.37.28-2.65-.33-2.86-1.36s.72-2.1 2.1-2.37 2.65.32 2.86 1.35-.73 2.1-2.1 2.38z" class="B"/><path d="M40 23c.55.36.2 1.42-1.06 1.77a2.19 2.19 0 0 1-2.33-.51.79.79 0 0 1-.062-.609.79.79 0 0 1 .392-.471c-.25.35-.14.8.43 1a2.47 2.47 0 0 0 2.26-.26c.44-.27.57-.65.37-.92z" class="D E"/><path d="M26.52 58.55c1 1 1.18 2.4.43 3.14s-2.15.54-3.13-.45-1.18-2.4-.44-3.14 2.15-.54 3.14.45z" class="B"/><path d="M23.52 59.14c0-.67 1.08-.95 2.05-.1a2.18 2.18 0 0 1 .86 2.22.79.79 0 0 1-.473.386.79.79 0 0 1-.607-.066c.43 0 .74-.32.63-.93a2.5 2.5 0 0 0-1.46-1.75c-.47-.17-.86-.06-1 .23z" class="D E"/><path d="M47.23 52.05a2.29 2.29 0 0 1 2.8-1.49c1 .45 1.24 1.84.65 3.1s-1.84 1.94-2.8 1.5-1.24-1.83-.65-3.1z" class="B"/><path d="M48.8 54.67c-.62.22-1.26-.7-.8-1.9.38-1 1.2-1.64 1.8-1.57a.79.79 0 0 1 .526.314.79.79 0 0 1 .144.596c-.13-.42-.55-.6-1.1-.28a2.45 2.45 0 0 0-1.14 2c0 .47.23.8.55.84z" class="D E"/><path d="M31.62 45.87c.2 1.38-.5 2.62-1.54 2.77s-2.05-.87-2.24-2.25.5-2.63 1.54-2.77 2.05.86 2.24 2.25z" class="B"/><path d="M28.87 44.53c.4-.53 1.44-.1 1.7 1.17a2.18 2.18 0 0 1-.65 2.29.8.8 0 0 1-.613.02.8.8 0 0 1-.447-.42c.34.27.8.2 1.06-.36a2.45 2.45 0 0 0-.1-2.27c-.27-.42-.65-.57-.94-.43z" class="D E"/><path d="M49.1 64c1.26-.6 2.65-.33 3.1.62s-.2 2.2-1.45 2.8-2.65.33-3.1-.6.2-2.25 1.45-2.82z" class="B"/><path d="M48.68 67c-.62-.22-.54-1.34.6-2a2.19 2.19 0 0 1 2.39-.07.79.79 0 0 1 .203.572.79.79 0 0 1-.263.547c.16-.4-.06-.8-.67-.9a2.46 2.46 0 0 0-2.13.8c-.3.4-.34.8-.12 1.05z" class="D E"/><path d="M39.62 41.52a3.88 3.88 0 0 1 4.004 1.894 3.88 3.88 0 0 1-.38 4.413 3.88 3.88 0 0 1-4.268 1.182 3.88 3.88 0 0 1-2.596-3.588 3.6 3.6 0 0 1 3.24-3.9h0z" class="B"/><path d="M38.7 47.85c1 .6 2.6 0 3.14-1.76s-1-4.12-2.57-3.6a2.9 2.9 0 0 1 1.61 3.12c-.14 1.47-1.14 2.4-2.18 2.25z" class="D E"/><defs ><path id="B" d="M28.2 19.83a28.46 28.46 0 0 1 31.398 3.775 28.46 28.46 0 0 1 8.526 30.453 28.46 28.46 0 0 1-24.874 19.53A28.46 28.46 0 0 1 15.7 58.08a28.46 28.46 0 0 1 12.51-38.25h0z"/></defs></svg>