<svg xmlns="http://www.w3.org/2000/svg" xmlns:xlink="http://www.w3.org/1999/xlink" width="43" height="47" fill="none" xmlns:v="https://vecta.io/nano"><style><![CDATA[.B{fill:#e0e0e0}.C{fill:#f0f0f0}.D{opacity:.1}.E{fill:#000}]]></style><path d="M35 21.15a6.94 6.94 0 0 1-1-3.18c.28.5 1.27.67 3.05.2l3.84-1.1.42-.13.26.82-.42.14-3.77 1.32c-1.78.65-2.5 1.36-2.38 1.93z" class="C"/><path d="M41 17.93a2.38 2.38 0 0 1-.16-.4c-.045-.14-.082-.285-.1-.43l.53-.16.26.82-.52.17z" class="B"/><path d="M42.3 18.6a.59.59 0 0 0 .22-.12h0l.05-.07v-.07a2.44 2.44 0 0 0-.76-2.39h0-.22a.71.71 0 0 0-.25 0 .54.54 0 0 0-.22.13c-.27.2-.33.85-.1 1.54s.63 1.17 1 1.2a.54.54 0 0 0 .29-.21h0z" class="C"/><path d="M42.33 18c-.23.07-.53-.25-.68-.73s-.1-.9.13-1 .3.06.45.27c-.2-.18-.44-.07-.46.25a1.71 1.71 0 0 0 .32.95c.13.15.26.22.38.1a.29.29 0 0 1-.14.15z" class="B"/><path d="M32.66 15.57a7.67 7.67 0 0 1-2.22-2.5c.44.37.88.58 2.17-.44l1.84-1.47.3-.26.57.65-.3.27-1.7 1.64c-1.16 1.16-1 1.62-.68 2.1z" class="C"/><path d="M34.92 11.92c-.116-.093-.224-.197-.32-.3a2.56 2.56 0 0 1-.26-.34l.4-.37.57.65-.4.37z" class="B"/><path d="M36.7 12.1a.69.69 0 0 0 .18-.24.14.14 0 0 0 0-.07c.006-.036.006-.074 0-.1v-.08a2.49 2.49 0 0 0-.69-1.38 2.42 2.42 0 0 0-1.29-.84h-.34a.76.76 0 0 0-.26.15.66.66 0 0 0-.17.24c-.2.36.06 1.08.62 1.72s1.26 1 1.64.8a.52.52 0 0 0 .31-.2h0z" class="C"/><path d="M36.4 11.43c-.2.18-.7 0-1.08-.46s-.54-.95-.33-1.13.36-.08.62.07c-.32-.1-.5.14-.38.5a2 2 0 0 0 .8.88c.22.1.4.12.47-.06a.3.3 0 0 1-.1.21h0z" class="B"/><path d="M28 11.34a7.16 7.16 0 0 1-2.57-1.16c.47.14 1.08-.26 1.66-1.38.215-.32.405-.653.57-1l.12-.27.67.3-.12.27c-.158.356-.29.724-.4 1.1-.44 1.16-.34 1.88.06 2.14z" class="C"/><path d="M28.26 8.24a1.89 1.89 0 0 1-.35-.13l-.32-.17.2-.42.67.3-.2.42z" class="B"/><path d="M29.43 7.8a.54.54 0 0 0 .05-.21c.005-.016.005-.034 0-.05h0c.004-.023.004-.047 0-.07a1.82 1.82 0 0 0-.85-.7 1.71 1.71 0 0 0-1.08-.17h-.13a.37.37 0 0 0-.13.17.46.46 0 0 0 0 .2c0 .3.36.7.9.94a1.33 1.33 0 0 0 1.3.06.52.52 0 0 0-.07-.17h0z" class="C"/><path d="M29.05 7.44c-.08.18-.46.18-.84 0s-.62-.46-.54-.64.22-.16.42-.13c-.23 0-.28.24-.1.43a1.49 1.49 0 0 0 .78.34c.17 0 .28 0 .28-.17a.22.22 0 0 1 0 .17h0z" class="B"/><path d="M22.52 9.47a7 7 0 0 1-3.35 0c.57-.1 1-1 1.14-2.8l.14-3.94V2.3h.87v.44l.1 3.93c.1 1.8.6 2.68 1.1 2.8z" class="C"/><path d="M21.32 2.84a3.15 3.15 0 0 1-.44 0 2 2 0 0 1-.43 0V2.3h.87v.54z" class="B"/><path d="M22.74 1.6a.62.62 0 0 0-.07-.31.15.15 0 0 0 0-.07h0l-.07-.1-.06-.06a3.06 3.06 0 0 0-3.13 0h0l-.07.06-.07.1v.06a.6.6 0 0 0-.07.3.81.81 0 0 0 .06.31c.15.4.9.7 1.78.72s1.64-.3 1.8-.7a.63.63 0 0 0-.09-.31h0z" class="C"/><path d="M22 1.33c0 .3-.5.53-1.12.53s-1.12-.25-1.12-.54.2-.34.5-.43c-.3.18-.24.5.12.64a2.11 2.11 0 0 0 1.25 0c.23-.1.37-.22.28-.4a.28.28 0 0 1 .1.2z" class="B"/><path d="M16.4 10a11.89 11.89 0 0 1-2.91 1.28c.47-.27.68-.86.4-1.76l-.73-1.93-.1-.2.76-.34.1.2.93 1.84c.38.68 1.04 1.07 1.56.9z" class="C"/><path d="M14 7.38a2.55 2.55 0 0 1-.37.18l-.4.15c-.04-.11-.087-.216-.14-.32l.76-.34.14.33z" class="B"/><path d="M14.48 6.16a.62.62 0 0 0-.14-.18h-.13A1.94 1.94 0 0 0 13 6a2 2 0 0 0-.9.73v.06c-.004.023-.004.047 0 .07V7c-.014.073-.014.147 0 .22a.59.59 0 0 0 .13.18 1.38 1.38 0 0 0 1.37 0c.6-.26 1-.67 1-1a.57.57 0 0 0-.12-.24z" class="C"/><path d="M13.92 6.2c.1.2-.17.5-.58.67s-.8.16-.88 0 0-.28.2-.43c-.14.2 0 .4.27.4a1.57 1.57 0 0 0 .81-.37c.12-.13.18-.25.07-.35a.23.23 0 0 1 .12.09z" class="B"/><path d="M11.17 12.92a7.08 7.08 0 0 1-2.25 2.47c.3-.5 0-1.4-1.3-2.7L4.8 9.97l-.3-.3.58-.64.32.3 3 2.55c1.37 1.12 2.33 1.4 2.8 1.04z" class="C"/><g class="B"><path d="M5.47 9.4a3 3 0 0 1-.27.35l-.32.3-.4-.37.58-.64.4.36z"/><path d="M4.8 7.73c.24.2.06.8-.4 1.3s-1 .73-1.25.5-.14-.4 0-.7c-.06.38.23.56.6.37a2.3 2.3 0 0 0 .91-1c.1-.26.1-.46-.12-.52a.28.28 0 0 1 .24.06h0z"/></g><path d="M7.57 17.7a11 11 0 0 1-1.1 3.33c.12-.6-.32-1.24-1.5-1.73l-2.57-1-.3-.1.3-.87.28.1 2.65.75c1.24.32 1.97.06 2.23-.48z" class="C"/><path d="M2.8 17.5c-.032.152-.072.302-.12.45s-.1.283-.16.42l-.4-.13.3-.87.4.13z" class="B"/><path d="M2.1 16.16a.55.55 0 0 0-.25 0h-.23a2.17 2.17 0 0 0-.72 1.08 2.2 2.2 0 0 0-.07 1.3h0v.14a.67.67 0 0 0 .22.13.65.65 0 0 0 .24 0c.35 0 .77-.5 1-1.18s.18-1.32-.1-1.54a.55.55 0 0 0-.1.07h0z" class="C"/><path d="M1.73 16.65c.22.07.28.52.12 1s-.46.8-.7.7-.2-.23-.2-.48c.07.27.32.3.53.07a1.76 1.76 0 0 0 .3-.95c0-.2-.08-.34-.24-.32a.26.26 0 0 1 .19-.03h0z" class="B"/><path d="M6.16 24.08a22.1 22.1 0 0 1 .26 2.55c-.06-.35-.27-.8-.62-.85-.266-.028-.534-.028-.8 0h-.08l-.05-.53H5a2.75 2.75 0 0 0 .76-.22.88.88 0 0 0 .4-.95h0z" class="C"/><path d="M5.06 25.2a2.51 2.51 0 0 1 0 .27v.28h-.2l-.05-.53h.25z" class="B"/><path d="M4.18 24.4a.48.48 0 0 0-.18.06h0l-.05.05v.05a1.61 1.61 0 0 0-.17 1 1.54 1.54 0 0 0 .36.93h.06a.64.64 0 0 0 .2 0 .48.48 0 0 0 .18-.06c.24-.12.4-.6.33-1.15s-.3-1-.55-1.06l-.18.18z" class="C"/><path d="M4.07 24.87c.18 0 .36.28.4.66s-.07.7-.26.72-.22-.1-.3-.27c.13.17.32.12.4-.12a1.36 1.36 0 0 0-.09-.77c-.08-.14-.16-.2-.27-.15a.24.24 0 0 1 .13-.07h0z" class="B"/><path d="M7.4 29.9a7.88 7.88 0 0 1 1.71 2.87c-.37-.44-.75-.74-2.17 0l-2 1.07-.33.2-.45-.75.33-.2 1.92-1.26c1.3-.9 1.2-1.4 1-1.93z" class="C"/><path d="M4.6 33a3.28 3.28 0 0 1 .25.36 2.4 2.4 0 0 1 .2.39l-.47.28-.45-.75.47-.28z" class="B"/><path d="M2.9 32.47a.63.63 0 0 0-.22.21h0v.1a.43.43 0 0 1 0 .05.28.28 0 0 0 0 .09 2.47 2.47 0 0 0 .42 1.48 2.38 2.38 0 0 0 1.11 1.07h.33a.71.71 0 0 0 .28-.09.88.88 0 0 0 .22-.21c.26-.32.15-1.07-.3-1.8s-1.05-1.2-1.45-1.1a.71.71 0 0 0-.4.22h0z" class="C"/><path d="M3.05 33.2c.24-.14.68.15 1 .66s.35 1 .1 1.17-.38 0-.6-.18c.3.14.53-.05.47-.42a2 2 0 0 0-.62-1c-.2-.14-.36-.2-.47 0a.3.3 0 0 1 .11-.23h0z" class="B"/><path d="M11.26 34.9a7.25 7.25 0 0 1 2.3 1.63c-.43-.22-1.1.05-1.87 1a7.19 7.19 0 0 0-.73.87l-.18.24-.6-.42.17-.24a7.27 7.27 0 0 0 .57-1c.65-1 .68-1.75.33-2.08z" class="C"/><path d="M10.45 37.86l.32.2c.098.075.19.155.28.24l-.27.37-.6-.42.26-.38z" class="B"/><path d="M9.22 38.08a.48.48 0 0 0-.09.19v.07a.25.25 0 0 0 0 .08v.06a2.07 2.07 0 0 0 1.73 1.22h.27a.54.54 0 0 0 .15-.15.48.48 0 0 0 .09-.19c.07-.28-.22-.74-.7-1.1s-1-.47-1.27-.3a.54.54 0 0 0-.17.12h0z" class="C"/><path d="M9.52 38.5c.12-.16.5-.1.83.15s.52.56.4.73-.24.1-.44.05c.23 0 .33-.18.18-.4a1.58 1.58 0 0 0-.69-.48c-.17 0-.3 0-.32.12a.22.22 0 0 1 .03-.16z" class="B"/><path d="M16.3 37.8a7 7 0 0 1 3.28.65c-.58 0-1.2.76-1.64 2.5l-.87 3.8a1.01 1.01 0 0 1-.09.42l-.85-.17c0-.13.06-.27.08-.42l.65-3.86c.26-1.74-.02-2.74-.56-2.94z" class="C"/><path d="M16.25 44.48c.144.007.288.024.43.05s.284.068.42.12c0 .2-.07.37-.1.54l-.85-.17.1-.54z" class="B"/><path d="M14.6 45.43a.86.86 0 0 0 0 .32.63.63 0 0 1 0 .07.31.31 0 0 0 .05.1v.12a3.1 3.1 0 0 0 3.07.61h.13l.08-.07v-.06a.7.7 0 0 0 .13-.29.81.81 0 0 0 0-.31c-.07-.42-.73-.87-1.6-1s-1.67 0-1.9.35c.007.055.02.108.04.16z" class="C"/><path d="M15.28 45.83c.06-.3.6-.43 1.2-.3s1 .46 1 .74-.26.3-.56.34c.32-.13.33-.45 0-.66a2.19 2.19 0 0 0-1.23-.23c-.25 0-.4.15-.35.35a.35.35 0 0 1-.06-.23h0z" class="B"/><path d="M22.44 38.4a12.33 12.33 0 0 1 3.1-.7c-.52.17-.84.7-.72 1.64l.34 2v.22l-.8.18-.06-.22-.55-1.95c-.25-.9-.75-1.23-1.3-1.17z" class="C"/><path d="M24.33 41.4c.13-.045.265-.082.4-.1l.4-.07c0 .12.06.24.08.35l-.8.18-.08-.35z" class="B"/><path d="M23.6 42.5a.54.54 0 0 0 .1.2h.12a1.82 1.82 0 0 0 1.16 0 1.89 1.89 0 0 0 1-.54h0v-.12c.01-.076.01-.154 0-.23a.54.54 0 0 0-.1-.2 1.4 1.4 0 0 0-1.35-.21c-.63.14-1.1.47-1.14.78a.81.81 0 0 0 .21.32h0z" class="C"/><path d="M24.15 42.57c0-.2.26-.45.7-.54s.82 0 .86.2-.07.27-.26.38c.17-.18.1-.38-.2-.43a1.56 1.56 0 0 0-.87.21c-.15.1-.22.2-.13.33a.2.2 0 0 1-.1-.14h0z" class="B"/><path d="M28.18 36.44a5.6 5.6 0 0 1 2.67-2c-.37.44-.07 1.6 1.22 3.5l1.68 2.57.33.44-.7.52-.33-.44-1.86-2.43c-1.44-1.78-2.48-2.4-3-2.16z" class="C"/><path d="M33.05 41c.1-.1.2-.2.33-.3l.37-.23.33.44-.7.52-.33-.44z" class="B"/><path d="M32.6 43.06a.82.82 0 0 0 .26.23h.34a2.79 2.79 0 0 0 1.65-.65 2.84 2.84 0 0 0 1.09-1.39h0a.29.29 0 0 0 0-.09v-.24a.73.73 0 0 0-.14-.31.9.9 0 0 0-.25-.23c-.4-.25-1.25 0-2 .55s-1.23 1.34-1.1 1.8a.63.63 0 0 0 .14.33h0z" class="C"/><path d="M33.4 42.8c-.2-.26.1-.8.63-1.2s1.13-.52 1.33-.27.05.43-.14.7c.13-.35-.12-.6-.53-.48a2.44 2.44 0 0 0-1.09.83c-.14.24-.17.44 0 .54a.34.34 0 0 1-.2-.12h0z" class="B"/><path d="M32.46 32.5a8.6 8.6 0 0 1 1.71-3.06c-.2.56.26 1.37 1.65 2.26L38 33l-.45.8-.34-.2c-.82-.45-.75-.3-2-.9-1.45-.7-2.38-.7-2.76-.2z" class="C"/><path d="M37.2 33.6l.2-.4c.075-.135.16-.265.25-.4.12.08.25.14.36.2l-.45.8-.36-.2z" class="B"/><path d="M37.63 35a.73.73 0 0 0 .24.07h.28a2.11 2.11 0 0 0 .91-.92 2.07 2.07 0 0 0 .31-1.27v-.15a.79.79 0 0 0-.19-.17c-.075-.037-.157-.06-.24-.07-.34-.05-.85.35-1.2 1s-.42 1.27-.2 1.53c.03-.004.06-.01.1-.02h0z" class="C"/><path d="M38.1 34.62c-.2-.1-.18-.55.06-1s.6-.7.8-.57.17.27.12.5c0-.28-.26-.36-.5-.16a1.7 1.7 0 0 0-.48.87c0 .2 0 .35.17.36a.22.22 0 0 1-.18-.01h0z" class="B"/><path d="M35.14 26.5a21.28 21.28 0 0 1 .24-2.56c0 .36.1.84.44 1 .253.087.514.148.78.18h.08v.54h-.1a2.65 2.65 0 0 0-.79.07.91.91 0 0 0-.66.77z" class="C"/><path d="M36.44 25.6c-.005-.1-.005-.18 0-.27-.005-.1-.005-.18 0-.27h.2v.54h-.2z" class="B"/><path d="M37.15 26.55a.64.64 0 0 0 .2 0h.06a1.67 1.67 0 0 0 .35-.94 1.6 1.6 0 0 0-.18-1h0v-.05c-.06-.03-.124-.05-.2-.06a.58.58 0 0 0-.19 0c-.26.08-.5.52-.54 1.07s.1 1 .34 1.14a.55.55 0 0 0 .15-.16h0z" class="C"/><path d="M37.35 26.1c-.18 0-.3-.34-.26-.72s.2-.68.4-.66.2.14.24.32c-.1-.2-.3-.17-.4 0a1.35 1.35 0 0 0-.07.78c.05.14.12.23.24.2a.19.19 0 0 1-.14.09z" class="B"/><use xlink:href="#B" class="C"/><use xlink:href="#B" fill="#f5f5f5"/><path d="M20.2 38.6C15.86 38.3 6.6 32.22 8 21.65S20.8 9.1 24.47 9.73A14.68 14.68 0 0 0 6.182 21.77 14.68 14.68 0 0 0 20.2 38.59h0zm-6.47-20.02a1.57 1.57 0 0 1-2.686-.833 1.57 1.57 0 0 1 2.286-1.637 1.81 1.81 0 0 1 .4 2.47z" class="B"/><path d="M12.58 16.45c.5-.15 1 .6.55 1.53-.33.74-1 1.25-1.48 1.18a.64.64 0 0 1-.49-.75c.1.33.4.5.85.26a1.93 1.93 0 0 0 1-1.51c-.01-.4-.18-.66-.43-.7z" class="D E"/><path d="M25.8 31.5a1.56 1.56 0 0 1 1.638.059 1.56 1.56 0 0 1 .681 1.491 1.56 1.56 0 0 1-1.027 1.277 1.56 1.56 0 0 1-1.602-.347 1.8 1.8 0 0 1 .31-2.48z" class="B"/><path d="M26.3 33.86c-.53 0-.77-.84-.1-1.62a1.73 1.73 0 0 1 1.75-.71.63.63 0 0 1 .311.369.63.63 0 0 1 .027.245c-.007.083-.03.163-.07.236 0-.34-.26-.58-.74-.5a2 2 0 0 0-1.36 1.18c-.1.37-.04.68.2.8z" class="D E"/><path d="M23 19.9a1.32 1.32 0 0 1-.53-1.293 1.32 1.32 0 0 1 .928-1.045 1.32 1.32 0 0 1 1.346.374A1.32 1.32 0 0 1 25 19.3a1.52 1.52 0 0 1-2 .59h0z" class="B"/><path d="M24.64 18.7c.18.4-.4.87-1.22.62-.65-.2-1.14-.72-1.13-1.12a.53.53 0 0 1 .57-.48c-.26.1-.36.4-.13.73a1.66 1.66 0 0 0 1.36.66c.33-.02.54-.2.55-.4z" class="D E"/><path d="M16.94 25.62a1.57 1.57 0 0 1-.611 1.54 1.57 1.57 0 0 1-1.651.135 1.57 1.57 0 0 1-.853-1.42 1.57 1.57 0 0 1 .895-1.394 1.8 1.8 0 0 1 2.22 1.14h0z" class="B"/><path d="M14.55 25.3c.17-.5 1.06-.43 1.56.46a1.73 1.73 0 0 1 .07 1.88.62.62 0 0 1-.445.188.62.62 0 0 1-.445-.188c.3.13.63 0 .7-.53a1.94 1.94 0 0 0-.64-1.68c-.3-.3-.63-.3-.8-.13z" class="D E"/><path d="M23.78 15.12a1.57 1.57 0 0 1-.51-1.57 1.57 1.57 0 0 1 1.175-1.158 1.57 1.57 0 0 1 1.562.533 1.57 1.57 0 0 1 .223 1.635 1.8 1.8 0 0 1-2.45.56h0z" class="B"/><path d="M25.83 13.83c.2.5-.53 1-1.5.65-.76-.28-1.32-.92-1.27-1.4a.62.62 0 0 1 .24-.421.62.62 0 0 1 .47-.119c-.32.1-.46.44-.2.86a1.94 1.94 0 0 0 1.57.87c.4-.01.65-.2.68-.45z" class="D E"/><path d="M22.06 28.34c1 .06 1.73.7 1.7 1.44A1.6 1.6 0 0 1 21.9 31c-1-.06-1.73-.7-1.7-1.44a1.6 1.6 0 0 1 1.85-1.22h0z" class="B"/><path d="M20.76 30c-.3-.34.13-1 1-1a1.53 1.53 0 0 1 1.48.76.56.56 0 0 1-.42.67c.23-.2.24-.5-.1-.77a1.7 1.7 0 0 0-1.57-.24c-.3.17-.44.4-.4.58z" class="D E"/><path d="M28.8 25.82c.1-1.53 1.12-2.7 2.27-2.63s2 1.4 1.9 2.92-1.12 2.7-2.27 2.62-2-1.38-1.9-2.9z" class="B"/><path d="M31.45 27.87c-.54.48-1.56-.2-1.56-1.63 0-1.12.58-2.15 1.22-2.3a.86.86 0 0 1 1 .66c-.3-.37-.8-.38-1.2.15a2.67 2.67 0 0 0-.4 2.46c.24.5.6.8.95.67z" class="D E"/><path d="M11 24.7a1.35 1.35 0 0 1-.91 1.64c-.6.1-1.2-.5-1.32-1.32a1.36 1.36 0 0 1 .9-1.64c.66-.08 1.25.5 1.33 1.32z" class="B"/><path d="M9.4 23.9c.23-.3.85-.06 1 .7A1.27 1.27 0 0 1 10 26a.47.47 0 0 1-.62-.23c.2.16.46.1.62-.22a1.43 1.43 0 0 0-.07-1.34c-.13-.3-.35-.38-.52-.3z" class="D E"/><path d="M14.87 30.68a1.6 1.6 0 0 1-.002 1.685 1.6 1.6 0 0 1-1.51.749 1.6 1.6 0 0 1-1.343-1.019 1.6 1.6 0 0 1 .314-1.656 1.85 1.85 0 0 1 2.54.24h0z" class="B"/><path d="M12.48 31.27c0-.53.84-.8 1.65-.15a1.76 1.76 0 0 1 .77 1.76.64.64 0 0 1-.37.324.64.64 0 0 1-.49-.034c.35 0 .6-.28.47-.77a2 2 0 0 0-1.23-1.35c-.38-.12-.7-.05-.8.22z" class="D E"/><path d="M20.24 34c.72 0 1.32.38 1.34.93s-.54 1-1.26 1S19 35.55 19 35s.52-1 1.24-1z" class="B"/><path d="M19.42 35.32c-.25-.23 0-.75.68-.82a1.13 1.13 0 0 1 1.14.45.41.41 0 0 1-.25.52c.15-.15.14-.4-.14-.56a1.25 1.25 0 0 0-1.17 0c-.23.1-.32.25-.26.4z" class="D E"/><path d="M29.23 18.33a1 1 0 0 1-.297-.79 1 1 0 0 1 .413-.736 1 1 0 0 1 .829-.157 1 1 0 0 1 .654.534 1 1 0 0 1 .297.79 1 1 0 0 1-.413.736 1 1 0 0 1-.829.157 1 1 0 0 1-.654-.534h0z" class="B"/><path d="M30.8 18.28c-.06.34-.63.4-1.06-.13a1.14 1.14 0 0 1-.25-1.2.41.41 0 0 1 .275-.156.41.41 0 0 1 .305.086c-.22 0-.4.1-.4.42a1.26 1.26 0 0 0 .6 1 .4.4 0 0 0 .53-.02z" class="D E"/><path d="M18.15 19.93a1 1 0 0 1-1.033.117 1 1 0 0 1-.578-.864 1 1 0 0 1 .502-.911 1 1 0 0 1 1.04.028 1.18 1.18 0 0 1 .07 1.63h0z" class="B"/><path d="M17.56 18.47c.34-.07.6.46.25 1s-.75.74-1 .65a.42.42 0 0 1-.27-.52c0 .22.23.35.53.23a1.24 1.24 0 0 0 .74-.9c.01-.23-.1-.42-.25-.46z" class="D E"/><path d="M25.6 24.36c0-.72.47-1.3 1-1.28a1.18 1.18 0 0 1 .95 1.33c0 .72-.47 1.3-1 1.28s-.97-.6-.95-1.33z" class="B"/><path d="M26.88 25.27c-.25.24-.74-.06-.77-.73a1.14 1.14 0 0 1 .52-1.11.41.41 0 0 1 .316.038.41.41 0 0 1 .194.252c-.15-.17-.38-.17-.57.1a1.26 1.26 0 0 0-.13 1.17c.1.23.28.34.44.3z" class="D E"/><path d="M18.18 13.7a1.17 1.17 0 0 1-1.53-.57c-.16-.52.28-1.1 1-1.3a1 1 0 0 1 .854-.037 1 1 0 0 1 .571.636 1 1 0 0 1-.13.845 1 1 0 0 1-.735.436h-.03z" class="B"/><path d="M18.65 12.2c.3.16.16.72-.47.95A1.13 1.13 0 0 1 17 13a.4.4 0 0 1-.059-.313.4.4 0 0 1 .189-.257c-.12.2 0 .4.26.5a1.3 1.3 0 0 0 1.15-.23c.15-.16.2-.37.1-.5z" class="D E"/><path d="M21.16 25.92a2 2 0 0 1-1.859-1.314 2 2 0 0 1 .574-2.203 2 2 0 0 1 2.264-.238A2 2 0 0 1 23.16 24.2a1.85 1.85 0 0 1-.64 1.279 1.85 1.85 0 0 1-1.36.441z" class="B"/><path d="M22.15 22.77a1.19 1.19 0 0 0-1.029-.102 1.19 1.19 0 0 0-.721.742c-.4.84.15 2.17 1 2.05a1.5 1.5 0 0 1-.55-1.72 1.12 1.12 0 0 1 .442-.763 1.12 1.12 0 0 1 .858-.207h0z" class="D E"/><defs ><path id="B" d="M25.18 37.9a14.67 14.67 0 0 1-15.662-4.511A14.67 14.67 0 0 1 7.69 17.193a14.67 14.67 0 0 1 14.262-7.889A14.67 14.67 0 0 1 34.7 19.46a14.67 14.67 0 0 1-.939 11.192A14.67 14.67 0 0 1 25.18 37.9h0z"/></defs></svg>